<?xml version="1.0" standalone="no"?>
<!DOCTYPE svg PUBLIC "-//W3C//DTD SVG 20010904//EN"
 "http://www.w3.org/TR/2001/REC-SVG-20010904/DTD/svg10.dtd">
<svg version="1.0" xmlns="http://www.w3.org/2000/svg"
 width="2048.000000pt" height="2048.000000pt" viewBox="0 0 2048.000000 2048.000000"
 preserveAspectRatio="xMidYMid meet">
<metadata>
Created by potrace 1.16, written by Peter Selinger 2001-2019
</metadata>
<g transform="translate(0.000000,2048.000000) scale(0.100000,-0.100000)"
fill="#000000" stroke="none">
<path d="M9755 13123 c-223 -28 -531 -182 -815 -409 -119 -95 -349 -328 -454
-459 -256 -320 -439 -675 -477 -925 -16 -106 -7 -282 19 -347 65 -170 216
-263 427 -263 143 0 235 27 544 161 24 10 48 19 53 19 6 0 44 16 85 36 211
100 486 181 712 209 180 23 459 17 576 -13 243 -63 428 -201 522 -392 92 -186
107 -345 57 -590 -16 -76 -68 -246 -81 -266 -5 -6 -33 -17 -63 -24 -30 -7 -66
-18 -80 -25 -14 -7 -108 -32 -210 -55 -102 -24 -187 -46 -190 -50 -3 -4 -108
-31 -235 -60 -126 -29 -232 -56 -235 -60 -13 -18 -848 -188 -1305 -265 -460
-78 -653 -106 -682 -99 -20 5 -24 4 -18 -6 5 -9 4 -11 -4 -6 -6 4 -82 0 -168
-9 -86 -9 -169 -14 -185 -11 -16 3 -27 2 -24 -2 2 -4 -115 -8 -260 -9 -155 -2
-264 1 -264 7 0 5 -44 11 -97 13 -111 6 -238 23 -268 36 -11 5 -44 15 -73 21
-29 7 -70 20 -91 30 -20 10 -50 22 -65 26 -15 3 -30 13 -33 20 -3 8 -11 14
-17 14 -7 0 -31 16 -54 35 -48 42 -61 77 -69 193 -6 92 7 136 76 262 36 65
193 240 216 240 7 0 43 21 81 46 38 25 99 62 137 80 232 118 504 140 515 42
10 -81 -137 -237 -324 -343 -85 -49 -257 -119 -320 -131 -82 -15 -119 -94 -70
-150 20 -24 31 -28 72 -27 63 1 220 43 308 83 235 105 446 292 508 450 30 76
30 180 1 236 -29 54 -93 109 -152 129 -66 23 -191 29 -296 16 -167 -22 -424
-127 -536 -218 -26 -21 -70 -56 -98 -78 -70 -54 -151 -152 -215 -260 -46 -76
-70 -135 -103 -250 -3 -11 -6 -51 -6 -88 0 -61 5 -78 47 -163 82 -165 217
-280 446 -383 66 -29 191 -68 244 -76 25 -4 49 -11 51 -16 3 -4 37 -11 75 -15
39 -4 73 -11 76 -15 3 -5 29 -9 59 -9 30 0 66 -5 82 -11 17 -6 113 -10 253 -9
124 1 241 2 260 2 19 -1 104 6 188 14 84 9 160 13 168 10 8 -3 14 -2 14 2 0 4
26 8 58 9 121 3 577 80 1090 183 550 110 646 131 653 143 4 5 16 7 28 4 12 -3
19 -2 17 2 -2 3 101 28 230 56 129 27 234 52 234 57 0 4 7 5 16 1 9 -3 19 -1
23 4 3 5 80 27 171 48 91 21 167 41 170 45 3 4 20 10 38 13 l33 7 -17 -29
c-17 -29 -138 -202 -196 -281 -38 -52 -195 -229 -247 -280 -20 -19 -61 -55
-91 -80 -30 -25 -58 -50 -62 -56 -4 -6 -40 -42 -79 -80 -40 -38 -88 -85 -108
-104 -71 -69 -223 -205 -237 -213 -8 -4 -14 -14 -14 -22 0 -8 -9 -20 -19 -27
-11 -8 -86 -77 -167 -153 -230 -218 -296 -280 -484 -455 -74 -69 -152 -143
-175 -164 -22 -22 -76 -71 -120 -110 -44 -39 -82 -73 -85 -77 -3 -3 -54 -48
-115 -99 -60 -51 -123 -107 -140 -125 -38 -40 -170 -155 -179 -155 -4 0 -76
-61 -160 -135 -85 -74 -157 -135 -161 -135 -3 0 -57 -44 -119 -97 -110 -96
-206 -173 -251 -203 -33 -22 -144 -110 -186 -147 -20 -18 -40 -33 -45 -33 -4
0 -17 -9 -28 -19 -12 -11 -35 -30 -53 -43 -18 -13 -77 -58 -133 -100 -55 -43
-113 -84 -128 -92 -15 -8 -40 -28 -56 -45 -17 -17 -36 -31 -43 -31 -7 0 -42
-25 -78 -55 -35 -30 -69 -55 -75 -55 -6 0 -30 -18 -54 -40 -24 -22 -48 -40
-53 -40 -5 0 -20 -12 -34 -26 -13 -14 -40 -34 -59 -44 -19 -10 -46 -30 -60
-45 -13 -14 -40 -36 -60 -48 -19 -11 -77 -59 -127 -105 -82 -75 -93 -88 -93
-118 0 -31 3 -34 30 -34 17 0 45 8 63 17 18 9 35 17 39 18 4 0 30 17 58 38 28
21 60 41 73 46 12 5 45 27 74 49 28 23 53 39 55 36 3 -2 13 5 23 16 10 11 23
20 30 20 7 0 20 9 30 20 10 11 23 20 28 20 5 0 28 15 51 34 23 18 57 41 76 51
19 10 55 34 80 54 25 20 58 43 73 51 15 8 45 29 67 47 21 18 42 33 48 33 5 0
17 10 28 21 17 19 58 50 113 84 9 6 37 27 62 48 26 20 51 37 56 37 6 0 18 9
28 20 10 11 22 20 27 20 5 0 38 24 73 53 34 28 89 70 120 92 32 22 86 63 119
90 34 28 69 55 78 60 9 6 65 49 125 98 257 208 390 314 423 337 58 42 272 222
329 277 29 29 57 53 61 53 9 0 124 91 148 117 9 11 46 44 82 73 36 30 79 68
96 85 37 37 193 178 205 186 11 6 206 190 319 299 42 41 160 153 261 249 176
166 599 588 761 758 152 160 362 449 448 616 19 37 41 67 48 67 22 0 266 62
277 70 6 4 62 20 124 34 63 15 120 31 125 35 6 5 72 24 146 42 74 18 137 36
140 40 3 3 64 21 135 39 72 19 132 37 135 40 3 4 55 19 115 35 61 16 112 32
115 35 3 3 64 21 135 40 72 18 132 36 135 40 3 4 61 22 130 40 69 17 127 36
130 40 3 4 61 23 130 41 69 18 127 35 130 39 4 6 70 26 205 62 22 6 42 15 45
18 3 4 68 25 145 45 77 21 142 41 145 45 3 4 41 17 85 29 119 32 219 64 225
71 3 4 82 28 175 55 94 26 181 54 195 61 14 7 129 43 255 80 127 37 232 70
235 74 3 4 43 19 90 33 47 13 310 96 585 182 275 87 538 169 585 182 47 14
177 54 290 89 113 35 212 64 220 64 9 0 75 20 147 44 72 24 133 42 136 40 2
-2 56 14 120 35 63 22 117 37 120 35 2 -2 44 10 93 26 49 17 99 32 111 35 12
2 60 15 105 29 46 13 126 37 178 52 52 15 124 36 160 47 36 11 72 21 81 22 9
1 50 11 90 24 41 13 104 31 142 42 127 36 255 73 412 120 33 10 94 27 135 40
41 12 95 29 120 37 24 8 53 16 65 18 19 2 53 13 160 49 28 10 66 21 85 25 19
4 53 14 75 22 22 8 74 25 115 38 41 13 97 32 124 43 28 10 59 20 70 22 43 5
142 48 169 73 21 20 27 35 27 68 0 37 -5 47 -33 68 -49 37 -115 35 -258 -9
-63 -19 -143 -43 -179 -54 -36 -10 -92 -27 -125 -37 -33 -11 -65 -19 -70 -19
-6 0 -38 -9 -70 -19 -113 -34 -180 -54 -245 -71 -67 -18 -140 -39 -245 -70
-33 -10 -67 -19 -75 -20 -14 -2 -59 -14 -181 -52 -25 -7 -55 -15 -67 -18 -11
-2 -47 -11 -79 -21 -115 -33 -179 -52 -258 -74 -111 -31 -198 -55 -280 -78
-38 -11 -106 -30 -150 -42 -44 -12 -116 -32 -160 -45 -44 -13 -123 -35 -175
-50 -207 -58 -309 -88 -405 -117 -55 -17 -109 -32 -120 -33 -23 -3 -194 -53
-435 -127 -91 -28 -183 -54 -205 -58 -22 -4 -157 -43 -300 -88 -340 -105 -964
-295 -1285 -390 -140 -41 -257 -78 -260 -82 -3 -3 -97 -32 -210 -64 -113 -32
-223 -66 -245 -76 -22 -9 -110 -37 -195 -61 -85 -24 -157 -47 -160 -50 -3 -4
-77 -26 -165 -50 -88 -23 -162 -46 -165 -50 -3 -3 -66 -23 -140 -44 -74 -21
-139 -41 -145 -45 -5 -5 -73 -25 -150 -45 -77 -21 -142 -41 -145 -45 -3 -4
-70 -25 -150 -46 -80 -20 -147 -41 -150 -45 -3 -4 -61 -21 -130 -38 -69 -17
-134 -36 -144 -42 -10 -6 -85 -28 -165 -49 -80 -21 -141 -39 -136 -40 8 -1
-226 -67 -246 -69 -3 -1 4 43 17 97 82 336 32 680 -130 905 -119 166 -298 287
-517 351 -135 39 -230 50 -429 48 -156 0 -212 -5 -360 -30 -211 -36 -313 -64
-502 -138 -78 -31 -152 -55 -163 -54 -73 5 -98 0 -143 -29 -27 -17 -63 -36
-80 -42 -18 -6 -30 -15 -27 -19 7 -12 -32 -23 -46 -14 -8 5 -9 3 -4 -6 6 -10
1 -12 -21 -7 -16 3 -22 3 -14 0 28 -12 -210 -63 -294 -64 -68 0 -87 3 -135 28
-47 24 -60 37 -85 86 -26 51 -29 66 -29 154 1 339 245 786 647 1189 217 216
425 371 629 469 344 165 559 136 628 -85 22 -71 30 -80 76 -80 51 0 67 24 59
93 -13 123 -96 242 -200 287 -81 34 -200 47 -311 33z"/>
<path d="M4897 13024 c-1 -1 -29 -5 -62 -9 -111 -11 -176 -22 -208 -34 -14 -5
-27 -8 -29 -5 -3 2 -24 -3 -48 -11 -24 -8 -45 -13 -48 -11 -2 3 -27 -4 -56
-16 -28 -11 -62 -21 -76 -23 -14 -2 -47 -13 -75 -25 -27 -12 -59 -24 -69 -26
-11 -2 -58 -22 -105 -45 -47 -22 -92 -42 -101 -44 -37 -8 -327 -177 -409 -239
-19 -14 -41 -26 -48 -26 -12 0 -94 -52 -121 -77 -7 -7 -17 -13 -21 -13 -5 0
-24 -15 -43 -32 -49 -45 -72 -64 -105 -84 -46 -30 -82 -59 -252 -210 -25 -23
-57 -50 -70 -60 -39 -30 -292 -283 -315 -314 -12 -16 -50 -65 -85 -110 -44
-57 -65 -93 -68 -119 -4 -32 -3 -37 18 -38 12 -1 35 9 51 22 15 13 37 26 48
30 11 3 20 12 20 18 0 7 16 23 35 37 19 14 35 30 35 36 0 7 12 20 28 30 15 9
44 33 66 53 21 20 55 52 76 71 124 115 261 231 348 295 30 22 80 61 111 86 31
25 92 69 136 97 44 29 87 57 95 62 8 6 47 30 85 55 39 24 75 48 80 53 26 21
203 111 208 106 3 -4 54 16 111 45 58 28 112 51 121 51 9 0 42 14 75 30 33 17
63 29 67 28 9 -2 44 8 88 27 32 13 106 34 142 40 12 2 38 9 58 15 20 7 39 10
42 7 3 -3 16 -1 30 4 14 5 42 12 62 15 20 3 47 8 61 10 104 17 283 21 410 11
71 -6 303 -52 335 -67 11 -5 31 -12 45 -15 14 -3 45 -16 70 -27 25 -11 56 -26
70 -32 14 -6 27 -13 30 -16 3 -3 21 -14 40 -24 47 -25 170 -118 170 -128 0 -4
6 -8 14 -8 7 0 21 -11 29 -23 9 -13 32 -39 51 -58 20 -18 36 -38 36 -45 0 -6
8 -18 19 -28 10 -9 26 -34 36 -56 10 -22 21 -40 26 -40 4 0 10 -15 14 -32 4
-18 13 -43 21 -55 8 -13 17 -44 21 -70 3 -27 10 -53 15 -60 11 -14 14 -231 4
-318 -3 -33 -11 -74 -16 -91 -6 -18 -10 -36 -9 -40 2 -5 -4 -29 -11 -54 -8
-25 -15 -52 -16 -60 -1 -14 -16 -58 -59 -179 -9 -24 -29 -71 -45 -104 -17 -32
-30 -68 -30 -80 0 -11 -11 -35 -25 -53 -14 -18 -25 -38 -25 -45 0 -7 -11 -27
-26 -46 -14 -18 -22 -33 -18 -33 3 0 -5 -15 -20 -34 -14 -19 -26 -40 -26 -46
0 -6 -11 -23 -25 -38 -14 -15 -25 -31 -25 -36 0 -5 -11 -24 -25 -42 -14 -18
-25 -35 -25 -39 0 -3 -13 -20 -30 -38 -16 -18 -30 -37 -30 -43 0 -5 -13 -23
-30 -39 -16 -16 -28 -30 -26 -32 2 -2 -14 -23 -35 -46 -22 -22 -39 -44 -39
-48 0 -4 -15 -22 -32 -40 -18 -18 -32 -36 -31 -40 1 -3 -15 -23 -35 -42 -20
-20 -42 -42 -48 -49 -6 -7 -30 -30 -53 -50 -22 -21 -41 -40 -41 -43 0 -3 -57
-64 -127 -134 -71 -71 -148 -151 -173 -177 -25 -27 -61 -63 -80 -80 -19 -17
-46 -44 -60 -60 -35 -40 -273 -249 -281 -247 -3 1 -32 -25 -65 -58 -32 -32
-62 -59 -67 -59 -5 0 -29 -18 -54 -40 -25 -22 -50 -40 -55 -40 -4 0 -63 -48
-131 -106 -67 -59 -133 -114 -147 -123 -14 -8 -59 -44 -101 -78 -42 -35 -82
-63 -88 -63 -6 0 -16 -10 -22 -22 -6 -13 -40 -45 -77 -73 -37 -27 -71 -55 -77
-61 -5 -6 -30 -26 -55 -44 -25 -19 -52 -40 -60 -47 -8 -8 -35 -28 -59 -46 -24
-18 -60 -45 -81 -62 -21 -16 -68 -52 -106 -80 -37 -27 -76 -58 -86 -67 -10
-10 -21 -18 -26 -18 -4 0 -21 -12 -39 -27 -31 -28 -107 -87 -218 -168 -33 -24
-67 -50 -76 -58 -9 -8 -38 -29 -65 -47 -27 -19 -51 -37 -54 -41 -3 -4 -24 -17
-47 -29 -23 -12 -47 -28 -54 -36 -6 -8 -17 -14 -23 -14 -6 0 -22 -12 -35 -26
-13 -14 -37 -32 -53 -40 -15 -8 -28 -19 -28 -24 0 -5 -10 -12 -22 -16 -23 -7
-40 -19 -66 -46 -9 -10 -22 -18 -29 -18 -7 0 -13 -3 -13 -8 0 -4 -17 -16 -37
-27 -20 -11 -41 -24 -48 -30 -17 -16 -105 -75 -111 -75 -3 0 -12 -6 -19 -12
-30 -27 -44 -38 -49 -38 -10 0 -101 -65 -109 -77 -4 -7 -13 -13 -20 -13 -7 -1
-24 -18 -38 -39 -24 -35 -36 -93 -30 -149 1 -12 36 -30 76 -38 31 -6 124 26
178 63 27 18 53 33 59 33 5 0 16 6 23 12 32 29 43 36 63 42 12 4 22 11 22 14
0 4 20 18 45 32 25 14 45 28 45 32 0 5 6 8 13 8 8 0 24 9 37 20 13 11 27 20
32 20 5 0 22 13 38 30 16 16 34 30 39 30 5 0 16 6 23 13 7 6 33 26 58 42 25
17 51 36 58 43 7 6 20 12 27 12 8 0 18 6 22 13 4 7 24 23 43 35 20 11 49 32
65 46 17 14 35 26 42 26 6 0 13 4 15 8 2 5 26 23 53 42 28 18 58 42 68 52 10
10 24 18 32 18 8 0 18 6 22 13 9 14 176 127 188 127 4 0 25 16 48 35 22 19 44
35 48 35 5 0 19 10 32 23 43 39 78 67 86 67 5 0 29 18 54 40 25 22 49 40 54
40 4 0 31 20 58 45 28 25 55 45 62 45 6 0 33 22 60 48 26 26 66 60 88 75 22
14 57 41 77 59 20 18 76 62 124 98 47 36 122 94 166 130 43 36 94 75 111 88
18 13 62 50 99 82 37 33 70 60 74 60 4 0 35 26 70 58 34 31 88 77 119 102 31
25 77 62 101 83 25 20 48 37 52 37 4 0 39 30 78 68 39 37 104 96 143 132 40
36 100 91 133 123 34 32 72 66 85 74 12 8 23 21 23 28 0 7 4 15 9 17 21 8 120
102 115 109 -3 5 -2 9 3 9 9 0 93 74 93 82 0 3 17 23 38 45 49 51 190 203 225
243 15 17 27 34 27 38 0 4 11 19 25 34 14 15 25 31 25 36 0 5 11 19 25 32 14
13 25 29 25 35 0 6 11 22 25 35 14 13 25 30 25 38 0 8 11 30 25 48 14 18 25
36 25 39 0 3 11 21 25 39 14 18 25 36 25 40 0 5 10 22 22 39 12 17 23 38 25
45 1 8 11 24 22 36 12 12 21 28 21 35 0 7 9 25 19 40 11 15 21 33 23 41 2 7
23 52 46 99 24 47 45 94 47 103 2 10 11 33 20 52 9 19 18 45 20 58 1 13 12 46
23 74 12 29 19 54 16 57 -3 3 3 31 12 63 10 33 17 69 16 82 -1 13 3 44 9 70
18 79 3 387 -21 417 -4 5 -11 28 -15 50 -4 22 -18 64 -31 93 -13 29 -24 58
-24 65 0 7 -11 28 -25 47 -14 19 -25 39 -25 46 0 15 -122 179 -176 236 -36 38
-92 89 -173 158 -13 11 -27 20 -31 20 -3 0 -15 8 -26 18 -10 10 -43 31 -71 47
-29 15 -53 32 -53 37 0 4 -9 8 -20 8 -11 0 -20 5 -20 10 0 6 -9 10 -20 10 -11
0 -20 5 -20 10 0 6 -6 10 -14 10 -8 0 -43 13 -78 29 -35 16 -81 33 -103 36
-22 4 -51 13 -65 20 -27 14 -129 36 -255 56 -67 10 -380 21 -388 13z"/>
<path d="M14270 12281 c-213 -71 -598 -206 -742 -260 -31 -12 -59 -28 -62 -37
-3 -8 -1 -49 5 -92 5 -42 21 -183 34 -312 14 -129 34 -284 45 -345 10 -60 22
-141 25 -180 7 -85 24 -214 31 -237 7 -24 92 -26 100 -3 4 8 11 15 18 15 44 0
953 295 979 317 17 16 22 48 11 77 -12 32 -93 19 -316 -50 -172 -52 -632 -201
-685 -221 -9 -4 -13 6 -13 28 0 19 -7 75 -15 124 -8 50 -18 133 -21 185 l-7
95 134 34 c191 47 410 117 420 133 5 7 9 25 9 40 0 30 -24 48 -63 48 -30 0
-273 -75 -410 -126 -54 -20 -99 -35 -101 -33 -8 10 -64 444 -58 450 4 3 104
34 222 68 563 165 786 237 794 257 11 29 6 72 -10 88 -28 28 -85 17 -324 -63z"/>
<path d="M13107 11903 c-15 -14 -5 -135 63 -811 16 -166 30 -323 30 -347 0
-56 25 -85 75 -85 43 0 75 29 75 68 0 15 -7 56 -15 92 -8 36 -30 173 -50 305
-62 416 -115 739 -125 763 -9 21 -39 30 -53 15z"/>
<path d="M4012 11858 c-5 -7 -13 -51 -16 -98 -9 -118 -34 -691 -35 -825 -2
-113 -17 -392 -26 -480 -14 -129 -35 -675 -35 -896 0 -242 0 -246 23 -266 46
-42 130 -34 159 15 12 20 20 71 27 188 12 185 18 2331 6 2357 -9 21 -87 24
-103 5z"/>
<path d="M7024 11603 c-5 -19 2 -45 29 -97 45 -89 57 -134 57 -216 0 -92 -15
-169 -46 -242 -32 -75 -41 -133 -24 -153 20 -25 84 -19 119 11 71 59 101 154
101 317 0 149 -38 259 -125 355 -36 40 -54 52 -76 52 -23 0 -30 -5 -35 -27z"/>
<path d="M12081 11621 c-12 -8 -13 -51 -7 -268 8 -309 35 -929 42 -961 6 -30
44 -46 86 -38 23 5 42 19 65 51 39 52 167 140 285 194 82 38 245 92 318 106
69 13 98 52 71 94 -43 68 -487 -46 -664 -171 -16 -11 -30 -19 -32 -17 -1 2
-12 117 -24 254 -53 638 -63 740 -73 752 -12 15 -46 17 -67 4z"/>
<path d="M11560 11565 c-14 -16 -13 -25 10 -505 5 -102 20 -309 34 -460 14
-151 26 -285 26 -298 0 -13 11 -34 25 -48 35 -34 89 -30 118 9 21 27 21 28 3
215 -33 353 -47 487 -61 577 -8 50 -26 182 -40 295 -27 216 -32 230 -81 230
-12 0 -27 -7 -34 -15z"/>
<path d="M16387 10969 c-44 -10 -119 -48 -166 -83 -23 -17 -38 -22 -46 -16
-21 17 -93 22 -144 10 -227 -54 -324 -377 -191 -641 57 -113 156 -191 284
-225 212 -57 454 55 631 290 85 114 121 224 112 342 -7 88 -32 148 -87 208
-96 103 -250 149 -393 115z m209 -136 c108 -53 174 -158 160 -255 -15 -100
-119 -258 -231 -351 -69 -58 -178 -113 -248 -126 -130 -24 -300 72 -361 203
-100 215 -22 453 167 507 46 13 50 1 12 -39 -65 -68 -97 -176 -63 -210 20 -20
27 -14 52 41 41 93 190 211 320 254 56 18 124 9 192 -24z"/>
<path d="M15488 10728 c-10 -17 -13 -94 -13 -308 1 -281 11 -430 41 -573 20
-100 27 -109 77 -105 l42 3 3 48 c2 26 -1 47 -6 47 -19 0 -21 30 -51 702 -5
120 -11 182 -20 192 -20 23 -58 20 -73 -6z"/>
<path d="M14801 10539 c-123 -11 -237 -41 -337 -88 -91 -43 -146 -92 -164
-145 -6 -20 -17 -36 -24 -36 -7 0 -52 -18 -99 -40 -145 -68 -682 -267 -1162
-430 -407 -138 -526 -192 -595 -266 -39 -43 -49 -75 -31 -103 11 -17 81 -6 81
13 0 20 108 73 238 117 64 21 117 39 118 39 0 0 4 -132 7 -292 6 -279 14 -381
38 -456 10 -29 15 -33 42 -30 31 3 32 5 31 48 -2 86 -24 576 -30 665 l-6 90
133 45 c178 59 269 94 619 239 403 168 548 239 592 290 l34 40 28 -35 c32 -40
47 -37 39 10 -25 154 489 285 762 194 85 -28 150 -86 161 -143 12 -66 -3 -136
-50 -230 -92 -183 -290 -368 -756 -703 -262 -188 -591 -435 -608 -455 -8 -9
-12 -26 -10 -39 5 -34 49 -35 106 -2 125 73 529 354 785 547 370 278 520 434
606 632 30 69 36 93 39 177 5 125 -12 180 -74 238 -99 91 -281 130 -513 109z"/>
<path d="M14480 10270 c-12 -7 -16 -38 -18 -147 -5 -188 29 -603 51 -631 6 -7
22 -12 36 -10 19 2 27 11 34 38 12 46 2 305 -18 445 -9 61 -18 150 -20 199 -5
107 -22 134 -65 106z"/>
<path d="M13977 9933 c-4 -3 -7 -67 -7 -142 0 -292 -68 -456 -236 -572 -69
-47 -113 -59 -158 -44 -103 36 -138 135 -136 384 1 75 1 144 1 154 -1 14 -8
18 -33 15 -28 -2 -35 -9 -45 -38 -18 -53 -17 -362 2 -434 34 -130 118 -196
251 -196 98 0 189 45 289 144 85 84 125 159 156 291 37 157 18 404 -34 437
-15 10 -41 10 -50 1z"/>
<path d="M11915 9617 c-167 -56 -367 -222 -437 -364 -63 -127 -62 -265 2 -298
67 -35 141 -19 365 80 276 121 502 147 580 65 l27 -28 -25 -38 c-54 -85 -212
-215 -394 -323 -126 -75 -220 -122 -529 -266 -274 -129 -324 -157 -324 -184 0
-65 42 -67 211 -7 171 60 228 85 429 187 349 176 639 398 708 540 29 60 29
126 -1 170 -52 78 -139 105 -307 96 -164 -9 -233 -29 -500 -144 -140 -61 -164
-67 -179 -49 -15 17 0 90 31 149 42 83 208 237 313 289 104 53 234 72 335 50
53 -12 70 -5 70 28 0 48 -43 64 -185 67 -104 3 -129 0 -190 -20z"/>
</g>
</svg>
