<svg width="44" height="28" viewBox="0 0 44 28" fill="none" xmlns="http://www.w3.org/2000/svg">
<path d="M18.043 12.775C19.1561 12.3437 20.1061 11.5745 20.7595 10.5754C21.413 9.57635 21.737 8.39768 21.686 7.20501C21.686 1.89101 17.727 0.596008 13.158 0.596008H0.580994V27.272H13.512C18.359 27.272 22.912 24.946 22.912 19.527C22.912 16.178 21.324 13.701 18.042 12.775H18.043ZM6.44399 5.15001H11.944C14.059 5.15001 15.963 5.74501 15.963 8.19801C15.963 10.464 14.48 11.374 12.388 11.374H6.44399V5.15001ZM12.714 22.74H6.44399V15.395H12.834C15.416 15.395 17.049 16.471 17.049 19.204C17.049 21.899 15.1 22.742 12.714 22.742V22.74ZM39.698 4.62301H28.881V1.99501H39.698V4.62301ZM43.936 17.895C43.936 12.182 40.594 7.41801 34.536 7.41801C28.65 7.41801 24.653 11.844 24.653 17.64C24.653 23.654 28.439 27.779 34.536 27.779C39.15 27.779 42.136 25.702 43.576 21.279H38.893C38.393 22.927 36.311 23.801 34.701 23.801C31.592 23.801 29.959 21.979 29.959 18.886H43.891C43.913 18.571 43.936 18.232 43.936 17.895ZM29.966 15.545C29.9678 14.9803 30.085 14.4218 30.3103 13.904C30.5356 13.3862 30.8644 12.9198 31.2764 12.5336C31.6884 12.1473 32.1749 11.8493 32.7062 11.6578C33.2375 11.4663 33.8023 11.3854 34.366 11.42C37.031 11.42 38.366 12.986 38.596 15.545H29.966Z" fill="#3C3F40"/>
</svg>
