<svg width="192" height="192" viewBox="0 0 192 192" fill="none" xmlns="http://www.w3.org/2000/svg">
<rect width="192" height="192" rx="16" fill="#E9E9E3"/>
<path d="M125.652 56.5092C111.055 45.3652 77.3698 71.4412 77.3698 71.4412C79.5698 57.0792 64.2478 58.3192 64.2478 58.3192C101.418 31.9072 120.055 51.2802 125.652 56.5092Z" stroke="#3C3F40" stroke-width="2" stroke-linecap="round" stroke-linejoin="round"/>
<path d="M125.652 56.5092C125.652 56.5092 98.7378 83.4242 94.0438 88.1162C94.0438 88.1162 93.6258 72.4472 77.4038 71.4412H77.3698C77.3698 71.4412 111.055 45.3652 125.652 56.5092Z" stroke="#3C3F40" stroke-width="2" stroke-linecap="round" stroke-linejoin="round"/>
<path d="M123.842 117.913C123.842 117.913 125.082 102.595 110.703 104.774C110.703 104.774 136.796 71.1063 125.652 56.5093C130.881 62.1063 150.254 80.7423 123.842 117.913Z" stroke="#3C3F40" stroke-width="2" stroke-linecap="round" stroke-linejoin="round"/>
<path d="M110.703 104.774V104.741C109.714 88.5353 94.0448 88.1163 94.0448 88.1163L125.652 56.5093C136.792 71.1063 110.703 104.774 110.703 104.774Z" stroke="#3C3F40" stroke-width="2" stroke-linecap="round" stroke-linejoin="round"/>
<path d="M130.079 52.0792L70.9498 111.206" stroke="#3C3F40" stroke-width="2" stroke-linecap="round" stroke-linejoin="round"/>
<path d="M91.7858 51.8342C86.6413 53.0329 81.7569 55.1549 77.3698 58.0972" stroke="#3C3F40" stroke-width="2" stroke-linecap="round" stroke-linejoin="round"/>
<path d="M67.1768 119.922C70.0144 119.922 72.3148 117.622 72.3148 114.784C72.3148 111.947 70.0144 109.646 67.1768 109.646C64.3391 109.646 62.0388 111.947 62.0388 114.784C62.0388 117.622 64.3391 119.922 67.1768 119.922Z" stroke="#3C3F40" stroke-width="2" stroke-linecap="round" stroke-linejoin="round"/>
<path d="M67.1768 119.922V147.247" stroke="#3C3F40" stroke-width="2" stroke-linecap="round" stroke-linejoin="round"/>
<path d="M66.2038 120.327L54.5918 147.247" stroke="#3C3F40" stroke-width="2" stroke-linecap="round" stroke-linejoin="round"/>
<path d="M68.1488 120.327L79.7618 147.247" stroke="#3C3F40" stroke-width="2" stroke-linecap="round" stroke-linejoin="round"/>
<path d="M67.1768 109.646V99.4862L73.0358 93.6262" stroke="#3C3F40" stroke-width="2" stroke-linecap="round" stroke-linejoin="round"/>
<path d="M64.1358 147.247H70.2168" stroke="#3C3F40" stroke-width="2" stroke-linecap="round" stroke-linejoin="round"/>
</svg>
