<svg width="192" height="192" viewBox="0 0 192 192" fill="none" xmlns="http://www.w3.org/2000/svg">
<rect width="192" height="192" rx="16" fill="#E9E9E3"/>
<g clip-path="url(#clip0_210_408)">
<path d="M92.9645 77.928V97.238H83.2365C84.8062 94.2668 85.6263 90.9573 85.6255 87.597C85.6307 84.2237 84.7999 80.9017 83.2075 77.928H92.9645Z" stroke="#3C3F40" stroke-width="2" stroke-linecap="round" stroke-linejoin="round"/>
<path d="M95.8695 69.8149H144.586C145.358 69.8149 146.099 70.1218 146.645 70.6681C147.192 71.2144 147.499 71.9554 147.499 72.7279V102.455C147.499 103.227 147.192 103.968 146.646 104.514C146.1 105.06 145.359 105.367 144.587 105.367H95.8695C95.0972 105.367 94.3565 105.06 93.8104 104.514C93.2643 103.968 92.9575 103.227 92.9575 102.455V72.7269C92.9575 71.9546 93.2643 71.214 93.8104 70.6678C94.3565 70.1217 95.0972 69.8149 95.8695 69.8149V69.8149Z" stroke="#3C3F40" stroke-width="2" stroke-linecap="round" stroke-linejoin="round"/>
<path d="M106.034 97.8709H100.453V93.7789" stroke="#3C3F40" stroke-width="2" stroke-linecap="round" stroke-linejoin="round"/>
<path d="M100.453 82.1199V77.3099H105.476" stroke="#3C3F40" stroke-width="2" stroke-linecap="round" stroke-linejoin="round"/>
<path d="M134.742 97.8709H140.323V93.7789" stroke="#3C3F40" stroke-width="2" stroke-linecap="round" stroke-linejoin="round"/>
<path d="M140.323 82.1199V77.3099H135.302" stroke="#3C3F40" stroke-width="2" stroke-linecap="round" stroke-linejoin="round"/>
<path d="M79.6015 70.0639V73.0379C77.6921 71.1234 75.4234 69.605 72.9256 68.5697C70.4277 67.5344 67.75 67.0027 65.0461 67.0051C62.3422 67.0075 59.6654 67.544 57.1694 68.5837C54.6735 69.6235 52.4074 71.146 50.5015 73.0639V70.0639C50.5073 66.5049 51.9237 63.0934 54.4403 60.5767C56.9569 58.0601 60.3685 56.6438 63.9275 56.6379H66.2015C69.7579 56.6443 73.1665 58.0617 75.6789 60.5789C78.1913 63.0962 79.602 66.5075 79.6015 70.0639Z" stroke="#3C3F40" stroke-width="2" stroke-linecap="round" stroke-linejoin="round"/>
<path d="M65.0635 108.16C67.7651 108.167 70.4412 107.637 72.9367 106.602C75.4322 105.567 77.6976 104.048 79.6015 102.131V121.938C79.6015 125.494 78.1905 128.905 75.6782 131.422C73.1659 133.938 69.7576 135.356 66.2015 135.362H63.9275C60.3688 135.356 56.9576 133.94 54.441 131.424C51.9245 128.908 50.5078 125.497 50.5015 121.938V102.102C52.4065 104.026 54.6748 105.552 57.1746 106.592C59.6744 107.632 62.356 108.165 65.0635 108.16V108.16Z" stroke="#3C3F40" stroke-width="2" stroke-linecap="round" stroke-linejoin="round"/>
<path d="M85.6255 87.598C85.6264 90.958 84.8063 94.2672 83.2365 97.238C82.2804 99.0455 81.0528 100.696 79.5965 102.131C76.7191 105.009 73.0526 106.97 69.0609 107.765C65.0691 108.559 60.9314 108.152 57.171 106.595C53.4106 105.038 50.1965 102.4 47.9351 99.0162C45.6737 95.6322 44.4667 91.6535 44.4667 87.5835C44.4667 83.5134 45.6737 79.5348 47.9351 76.1507C50.1965 72.7667 53.4106 70.1293 57.171 68.5721C60.9314 67.0149 65.0691 66.6078 69.0609 67.4024C73.0526 68.197 76.7191 70.1575 79.5965 73.036C81.0353 74.4796 82.2522 76.1286 83.2075 77.929C84.7999 80.9027 85.6307 84.2247 85.6255 87.598V87.598Z" stroke="#3C3F40" stroke-width="2" stroke-linecap="round" stroke-linejoin="round"/>
<path d="M65.0635 102.139C73.0981 102.139 79.6115 95.6256 79.6115 87.591C79.6115 79.5563 73.0981 73.043 65.0635 73.043C57.0289 73.043 50.5155 79.5563 50.5155 87.591C50.5155 95.6256 57.0289 102.139 65.0635 102.139Z" stroke="#3C3F40" stroke-width="2" stroke-linecap="round" stroke-linejoin="round"/>
<path d="M59.4005 84.404C60.4322 84.404 61.2685 83.5676 61.2685 82.536C61.2685 81.5043 60.4322 80.668 59.4005 80.668C58.3688 80.668 57.5325 81.5043 57.5325 82.536C57.5325 83.5676 58.3688 84.404 59.4005 84.404Z" stroke="#3C3F40" stroke-width="2" stroke-linecap="round" stroke-linejoin="round"/>
</g>
<defs>
<clipPath id="clip0_210_408">
<rect width="104.997" height="80.724" fill="white" transform="translate(43.5015 55.6379)"/>
</clipPath>
</defs>
</svg>
