<svg width="192" height="192" viewBox="0 0 192 192" fill="none" xmlns="http://www.w3.org/2000/svg">
<rect width="192" height="192" rx="16" fill="#E9E9E3"/>
<path d="M136.069 102.23C136.072 106.392 134.838 110.461 132.524 113.923C130.21 117.385 126.919 120.084 123.068 121.679C119.217 123.275 114.978 123.694 110.888 122.885C106.798 122.076 103.04 120.074 100.09 117.134C97.1395 114.193 95.129 110.445 94.3127 106.364C93.4965 102.283 93.911 98.0514 95.5039 94.2054C97.0969 90.3593 99.7967 87.0711 103.262 84.7565C106.727 82.442 110.802 81.205 114.972 81.202C117.741 81.1982 120.484 81.7394 123.043 82.7944C125.603 83.8495 127.929 85.3978 129.888 87.3509C131.848 89.3039 133.402 91.6233 134.463 94.1765C135.523 96.7296 136.069 99.4664 136.069 102.23V102.23Z" stroke="#3C3F40" stroke-width="2" stroke-linecap="round" stroke-linejoin="round"/>
<path d="M142.18 68.1899H68.1794V136.266H142.18C143.722 136.261 145.199 135.648 146.29 134.559C147.38 133.471 147.994 131.996 147.999 130.457V73.999C147.994 72.4599 147.38 70.9851 146.29 69.8967C145.199 68.8083 143.722 68.1947 142.18 68.1899ZM143.46 102.231C143.458 108.564 141.337 114.715 137.434 119.709C133.531 124.703 128.069 128.253 121.915 129.796C115.761 131.339 109.266 130.787 103.462 128.227C97.6581 125.667 92.8765 121.246 89.8759 115.666C86.8753 110.085 85.8275 103.664 86.8988 97.4218C87.9701 91.1792 91.0991 85.4724 95.7894 81.2066C100.48 76.9408 106.463 74.3603 112.79 73.8745C119.116 73.3886 125.425 75.0252 130.714 78.5246C134.635 81.1176 137.851 84.6398 140.075 88.7766C142.3 92.9133 143.462 97.5357 143.46 102.231V102.231Z" stroke="#3C3F40" stroke-width="2" stroke-linecap="round" stroke-linejoin="round"/>
<path d="M99.2282 125.93H68.1794V78.5245H72.8645C72.8841 79.9945 73.483 81.3975 74.5314 82.4301C75.5798 83.4626 76.9934 84.0415 78.4662 84.0415C79.9391 84.0415 81.3527 83.4626 82.4011 82.4301C83.4495 81.3975 84.0483 79.9945 84.068 78.5245H99.2282C95.317 81.1242 92.1097 84.6479 89.8914 88.7826C87.6731 92.9172 86.5123 97.5348 86.5123 102.225C86.5123 106.915 87.6731 111.533 89.8914 115.667C92.1097 119.802 95.317 123.326 99.2282 125.925V125.93Z" stroke="#3C3F40" stroke-width="2" stroke-linecap="round" stroke-linejoin="round"/>
<path d="M136.069 102.23C136.072 106.392 134.838 110.461 132.524 113.923C130.21 117.385 126.919 120.084 123.068 121.679C119.217 123.275 114.978 123.694 110.888 122.885C106.798 122.076 103.04 120.074 100.09 117.134C97.1395 114.193 95.129 110.445 94.3127 106.364C93.4965 102.283 93.911 98.0514 95.5039 94.2054C97.0969 90.3593 99.7967 87.0711 103.262 84.7565C106.727 82.442 110.802 81.205 114.972 81.202C117.741 81.1982 120.484 81.7394 123.043 82.7944C125.603 83.8495 127.929 85.3978 129.888 87.3509C131.848 89.3039 133.402 91.6233 134.463 94.1765C135.523 96.7296 136.069 99.4664 136.069 102.23V102.23Z" stroke="#3C3F40" stroke-width="2" stroke-linecap="round" stroke-linejoin="round"/>
<path d="M148 78.5245V125.93H130.715C134.634 123.337 137.849 119.815 140.073 115.68C142.297 111.544 143.461 106.924 143.461 102.23C143.461 97.5364 142.297 92.9158 140.073 88.7803C137.849 84.6449 134.634 81.1233 130.715 78.5295L148 78.5245Z" stroke="#3C3F40" stroke-width="2" stroke-linecap="round" stroke-linejoin="round"/>
<path d="M63.4166 63.4597H48.75C46.1266 63.4597 44 65.5823 44 68.2007V136.259C44 138.877 46.1266 141 48.75 141H63.4166C66.0399 141 68.1666 138.877 68.1666 136.259V68.2007C68.1666 65.5823 66.0399 63.4597 63.4166 63.4597Z" stroke="#3C3F40" stroke-width="2" stroke-linecap="round" stroke-linejoin="round"/>
<path d="M62.0379 58.4565H50.1279V63.4598H62.0379V58.4565Z" stroke="#3C3F40" stroke-width="2" stroke-linecap="round" stroke-linejoin="round"/>
<path d="M84.0661 78.5246C84.069 79.6306 83.7433 80.7126 83.1302 81.6338C82.517 82.555 81.6439 83.274 80.6213 83.6999C79.5987 84.1258 78.4726 84.2395 77.3852 84.0266C76.2979 83.8137 75.2982 83.2837 74.5127 82.5037C73.7272 81.7236 73.191 80.7287 72.972 79.6445C72.7531 78.5603 72.8612 77.4357 73.2826 76.4129C73.704 75.39 74.4199 74.5149 75.3397 73.8981C76.2594 73.2814 77.3418 72.9507 78.4498 72.9479C79.1857 72.9452 79.9149 73.0873 80.5956 73.3662C81.2764 73.6452 81.8953 74.0554 82.417 74.5734C82.9387 75.0914 83.3529 75.707 83.6359 76.3851C83.9188 77.0631 84.065 77.7901 84.0661 78.5246V78.5246Z" stroke="#3C3F40" stroke-width="2" stroke-linecap="round" stroke-linejoin="round"/>
<path d="M130.714 78.5245C125.424 75.0235 119.114 73.3859 112.785 73.8715C106.456 74.3572 100.471 76.9382 95.7798 81.2051C91.088 85.4721 87.9582 91.1806 86.8868 97.425C85.8155 103.669 86.864 110.092 89.8659 115.674C92.8678 121.256 97.6514 125.678 103.457 128.237C109.264 130.797 115.76 131.348 121.916 129.804C128.071 128.259 133.534 124.707 137.437 119.711C141.34 114.715 143.46 108.561 143.46 102.225C143.473 97.5294 142.315 92.9039 140.09 88.7662C137.864 84.6285 134.642 81.1088 130.714 78.5245V78.5245ZM114.971 123.259C110.805 123.253 106.734 122.015 103.273 119.701C99.8119 117.387 97.1158 114.101 95.5254 110.257C93.9351 106.414 93.5219 102.187 94.3381 98.1094C95.1543 94.032 97.1632 90.2875 100.111 87.3493C103.059 84.4112 106.813 82.4112 110.899 81.6021C114.986 80.7931 119.221 81.2113 123.069 82.8039C126.917 84.3966 130.206 87.0921 132.52 90.5499C134.833 94.0076 136.068 98.0724 136.068 102.23C136.069 104.995 135.524 107.732 134.463 110.285C133.403 112.839 131.848 115.159 129.889 117.112C127.929 119.065 125.603 120.613 123.043 121.668C120.483 122.723 117.74 123.263 114.971 123.259V123.259Z" stroke="#3C3F40" stroke-width="2" stroke-linecap="round" stroke-linejoin="round"/>
<path d="M136.069 102.23C136.072 106.392 134.838 110.461 132.524 113.923C130.21 117.385 126.919 120.084 123.068 121.679C119.217 123.275 114.978 123.694 110.888 122.885C106.798 122.076 103.04 120.074 100.09 117.134C97.1395 114.193 95.129 110.445 94.3127 106.364C93.4965 102.283 93.911 98.0514 95.5039 94.2054C97.0969 90.3593 99.7967 87.0711 103.262 84.7565C106.727 82.442 110.802 81.205 114.972 81.202C117.741 81.1982 120.484 81.7394 123.043 82.7944C125.603 83.8495 127.929 85.3978 129.888 87.3509C131.848 89.3039 133.402 91.6233 134.463 94.1765C135.523 96.7296 136.069 99.4664 136.069 102.23V102.23Z" stroke="#3C3F40" stroke-width="2" stroke-linecap="round" stroke-linejoin="round"/>
<path d="M136.069 102.23C136.072 106.392 134.838 110.461 132.524 113.923C130.21 117.385 126.919 120.084 123.068 121.679C119.217 123.275 114.978 123.694 110.888 122.885C106.798 122.076 103.04 120.074 100.09 117.134C97.1395 114.193 95.129 110.445 94.3127 106.364C93.4965 102.283 93.911 98.0514 95.5039 94.2054C97.0969 90.3593 99.7967 87.0711 103.262 84.7565C106.727 82.442 110.802 81.205 114.972 81.202C117.741 81.1982 120.484 81.7394 123.043 82.7944C125.603 83.8495 127.929 85.3978 129.888 87.3509C131.848 89.3039 133.402 91.6233 134.463 94.1765C135.523 96.7296 136.069 99.4664 136.069 102.23V102.23Z" stroke="#3C3F40" stroke-width="2" stroke-linecap="round" stroke-linejoin="round"/>
<path d="M102.333 102.23C102.333 100.572 102.66 98.9298 103.295 97.3976C103.931 95.8654 104.863 94.4732 106.038 93.3005C107.213 92.1278 108.608 91.1976 110.143 90.5631C111.678 89.9285 113.323 89.6019 114.985 89.6021" stroke="#3C3F40" stroke-width="2" stroke-linecap="round" stroke-linejoin="round"/>
<path d="M135.05 68.1998H94.9199L99.6709 55.7001C100.196 54.3181 101.129 53.1282 102.348 52.2887C103.567 51.4491 105.012 50.9996 106.493 51H123.479C124.959 50.9996 126.405 51.4489 127.624 52.2883C128.842 53.1276 129.776 54.3173 130.301 55.6991L135.05 68.1998Z" stroke="#3C3F40" stroke-width="2" stroke-linecap="round" stroke-linejoin="round"/>
<path d="M107.223 56.791H122.746" stroke="#3C3F40" stroke-width="2" stroke-linecap="round" stroke-linejoin="round"/>
</svg>
