<svg width="192" height="192" viewBox="0 0 192 192" fill="none" xmlns="http://www.w3.org/2000/svg">
<rect width="192" height="192" rx="16" fill="#F5F5F1"/>
<g clip-path="url(#clip0_210_482)">
<path d="M96 98.3765V146.631" stroke="#BF9D8A" stroke-width="2" stroke-linecap="round" stroke-linejoin="round"/>
<path d="M68.775 146.631V139.92H123.225V146.631" stroke="#BF9D8A" stroke-width="2" stroke-linecap="round" stroke-linejoin="round"/>
<path d="M96.072 110.615H103.843" stroke="#BF9D8A" stroke-width="2" stroke-linecap="round" stroke-linejoin="round"/>
<path d="M114.204 106.891H103.843V114.342H114.204V106.891Z" stroke="#BF9D8A" stroke-width="2" stroke-linecap="round" stroke-linejoin="round"/>
<path d="M112.775 45.3695L108.728 59.0005L103.689 60.4855V61.3595C101.456 59.7316 98.7636 58.8545 96 58.8545C93.2364 58.8545 90.5442 59.7316 88.311 61.3595V60.4855L83.275 59.0005L79.224 45.3695H112.775Z" stroke="#BF9D8A" stroke-width="2" stroke-linecap="round" stroke-linejoin="round"/>
<path d="M112.775 98.3765H79.224L83.275 84.7465L88.313 83.2605V82.4165C90.5464 84.0438 93.2386 84.9206 96.002 84.9206C98.7654 84.9206 101.458 84.0438 103.691 82.4165V83.2605L108.73 84.7465L112.775 98.3765Z" stroke="#BF9D8A" stroke-width="2" stroke-linecap="round" stroke-linejoin="round"/>
<path d="M86.01 63.5145C84.0215 65.8425 82.9361 68.8078 82.952 71.8695C82.9404 74.9403 84.0248 77.9146 86.01 80.2575C86.6898 81.0633 87.4617 81.7865 88.31 82.4125V83.2565L83.275 84.7465L70.166 88.6495V55.1265L83.275 59.0005L88.314 60.4855V61.3595C87.4571 61.9764 86.6828 62.7006 86.01 63.5145V63.5145Z" stroke="#BF9D8A" stroke-width="2" stroke-linecap="round" stroke-linejoin="round"/>
<path d="M121.834 55.1265V88.6485L108.728 84.7485L103.689 83.2635V82.4195C104.537 81.7935 105.309 81.0703 105.989 80.2645C107.976 77.9199 109.061 74.9429 109.048 71.8695C109.065 68.8064 107.979 65.8395 105.99 63.5105C105.318 62.6969 104.546 61.9727 103.69 61.3555V60.4815L108.729 58.9965L121.834 55.1265Z" stroke="#BF9D8A" stroke-width="2" stroke-linecap="round" stroke-linejoin="round"/>
<path d="M109.048 71.8695C109.06 74.9403 107.975 77.9146 105.99 80.2575C105.31 81.0633 104.538 81.7866 103.69 82.4125C101.457 84.0404 98.7646 84.9175 96.001 84.9175C93.2374 84.9175 90.5452 84.0404 88.312 82.4125C87.4639 81.7863 86.692 81.063 86.012 80.2575C84.026 77.9149 82.941 74.9406 82.952 71.8695C82.9353 68.8065 84.0207 65.8396 86.01 63.5105C86.6818 62.6971 87.4547 61.9729 88.31 61.3555C90.5432 59.7276 93.2354 58.8505 95.999 58.8505C98.7626 58.8505 101.455 59.7276 103.688 61.3555C104.544 61.9727 105.316 62.6969 105.988 63.5105C107.978 65.8393 109.064 68.8062 109.048 71.8695V71.8695Z" stroke="#BF9D8A" stroke-width="2" stroke-linecap="round" stroke-linejoin="round"/>
<path d="M88.122 71.8775C88.122 70.843 88.3258 69.8185 88.7217 68.8627C89.1176 67.9069 89.6979 67.0385 90.4294 66.3069C91.9068 64.8295 93.9106 63.9995 96 63.9995" stroke="#BF9D8A" stroke-width="2" stroke-linecap="round" stroke-linejoin="round"/>
</g>
<defs>
<clipPath id="clip0_210_482">
<rect width="56.45" height="103.261" fill="white" transform="translate(67.775 44.3695)"/>
</clipPath>
</defs>
</svg>
