<svg width="192" height="192" viewBox="0 0 192 192" fill="none" xmlns="http://www.w3.org/2000/svg">
<rect width="192" height="192" rx="16" fill="#E9E9E3"/>
<path d="M111.361 134.781L109.919 140.625C109.758 141.29 109.377 141.881 108.838 142.303C108.3 142.725 107.635 142.953 106.951 142.951H85.0455C84.3614 142.953 83.6965 142.725 83.1579 142.303C82.6194 141.881 82.2387 141.29 82.0773 140.625L80.6391 134.781C80.883 135.462 81.3316 136.051 81.9235 136.468C82.5154 136.884 83.2216 137.107 83.9453 137.106H108.056C108.779 137.107 109.485 136.884 110.077 136.467C110.669 136.051 111.117 135.462 111.361 134.781Z" stroke="#3C3F40" stroke-width="2" stroke-linecap="round" stroke-linejoin="round"/>
<path d="M115.879 49.0492H76.1224C75.554 49.0487 75.0002 49.2295 74.5416 49.5653C74.083 49.9011 73.7433 50.3743 73.572 50.9163L68.6247 66.5289C68.4584 67.0545 68.4584 67.6187 68.6247 68.1443L73.572 83.7569C73.7428 84.2995 74.0822 84.7735 74.5409 85.1099C74.9995 85.4464 75.5536 85.6278 76.1224 85.6277H115.879C116.447 85.6279 117 85.4474 117.458 85.1124C117.916 84.7774 118.256 84.3052 118.428 83.7643L123.375 68.1517C123.542 67.626 123.542 67.0619 123.375 66.5362L118.428 50.9236C118.258 50.3804 117.919 49.9057 117.46 49.5685C117.002 49.2314 116.448 49.0494 115.879 49.0492V49.0492Z" stroke="#3C3F40" stroke-width="2" stroke-linecap="round" stroke-linejoin="round"/>
<path d="M78.6443 79.5076L74.7871 67.3399L78.6443 55.1685H113.359L117.217 67.3399L113.359 79.5076H78.6443Z" stroke="#3C3F40" stroke-width="2" stroke-linecap="round" stroke-linejoin="round"/>
<path d="M76.7303 61.2112H115.27" stroke="#3C3F40" stroke-width="2" stroke-linecap="round" stroke-linejoin="round"/>
<path d="M75.2316 67.338H116.769" stroke="#3C3F40" stroke-width="2" stroke-linecap="round" stroke-linejoin="round"/>
<path d="M76.7303 73.4646H115.27" stroke="#3C3F40" stroke-width="2" stroke-linecap="round" stroke-linejoin="round"/>
<path d="M108.056 137.092H83.9444C83.1141 137.092 82.3107 136.798 81.6772 136.261C81.0437 135.724 80.6211 134.98 80.4848 134.161L73.7346 93.7025C73.6509 93.2 73.6776 92.6854 73.8128 92.1943C73.9481 91.7032 74.1888 91.2474 74.518 90.8587C74.8473 90.4701 75.2572 90.1578 75.7194 89.9436C76.1815 89.7294 76.6848 89.6184 77.1942 89.6184H114.805C115.314 89.6184 115.818 89.7293 116.28 89.9435C116.742 90.1578 117.152 90.4701 117.481 90.8588C117.81 91.2475 118.051 91.7032 118.186 92.1943C118.321 92.6854 118.348 93.2001 118.264 93.7025L111.515 134.161C111.379 134.98 110.956 135.724 110.323 136.261C109.689 136.798 108.886 137.092 108.056 137.092V137.092Z" stroke="#3C3F40" stroke-width="2" stroke-linecap="round" stroke-linejoin="round"/>
<path d="M101.534 103.106H116.722" stroke="#3C3F40" stroke-width="2" stroke-linecap="round" stroke-linejoin="round"/>
<path d="M75.2784 103.106H91.2465" stroke="#3C3F40" stroke-width="2" stroke-linecap="round" stroke-linejoin="round"/>
<path d="M98.859 98.7773H93.9217C92.4447 98.7773 91.2474 99.9747 91.2474 101.452V114.332C91.2474 115.809 92.4447 117.006 93.9217 117.006H98.859C100.336 117.006 101.533 115.809 101.533 114.332V101.452C101.533 99.9747 100.336 98.7773 98.859 98.7773Z" stroke="#3C3F40" stroke-width="2" stroke-linecap="round" stroke-linejoin="round"/>
</svg>
