<svg width="192" height="192" viewBox="0 0 192 192" fill="none" xmlns="http://www.w3.org/2000/svg">
<rect width="192" height="192" rx="16" fill="#F5F5F1"/>
<path d="M138.522 95.9999C138.532 102.963 136.814 109.82 133.522 115.955L121.958 96.0279V95.9999L108.977 73.5439H132.102C136.312 80.2762 138.537 88.0597 138.522 95.9999V95.9999Z" stroke="#BF9D8A" stroke-width="2" stroke-linecap="round" stroke-linejoin="round"/>
<path d="M132.077 73.4879L83.024 73.5439L94.583 53.5049C95.055 53.4779 95.528 53.4779 96 53.4779C103.218 53.4732 110.319 55.3079 116.631 58.809C122.943 62.3101 128.259 67.362 132.077 73.4879V73.4879Z" stroke="#BF9D8A" stroke-width="2" stroke-linecap="round" stroke-linejoin="round"/>
<path d="M94.527 53.506L83.021 73.544L77.796 82.604L70.07 96.004H70.042V95.977L58.477 75.99C61.9833 69.4074 67.1609 63.864 73.4891 59.9172C79.8173 55.9703 87.0732 53.7591 94.527 53.506Z" stroke="#BF9D8A" stroke-width="2" stroke-linecap="round" stroke-linejoin="round"/>
<path d="M83.021 118.456H59.898C55.956 112.135 53.7491 104.887 53.4996 97.4415C53.2502 89.9962 54.9669 82.6166 58.477 76.0459L70.042 95.9769V96.0049L83.021 118.456Z" stroke="#BF9D8A" stroke-width="2" stroke-linecap="round" stroke-linejoin="round"/>
<path d="M108.977 118.456L97.418 138.494C96.945 138.522 96.473 138.522 96 138.522C88.7823 138.526 81.6826 136.691 75.3708 133.19C69.0591 129.689 63.7436 124.637 59.926 118.512L108.977 118.456Z" stroke="#BF9D8A" stroke-width="2" stroke-linecap="round" stroke-linejoin="round"/>
<path d="M133.519 116.01C130.013 122.591 124.837 128.134 118.51 132.081C112.184 136.027 104.929 138.239 97.477 138.494L108.977 118.455L114.202 109.395L121.928 96L121.956 96.027L133.519 116.01Z" stroke="#BF9D8A" stroke-width="2" stroke-linecap="round" stroke-linejoin="round"/>
<path d="M96 147.123C124.234 147.123 147.123 124.234 147.123 96C147.123 67.7655 124.234 44.877 96 44.877C67.7656 44.877 44.877 67.7655 44.877 96C44.877 124.234 67.7656 147.123 96 147.123Z" stroke="#BF9D8A" stroke-width="2" stroke-linecap="round" stroke-linejoin="round"/>
<path d="M101.74 96C101.74 97.1353 101.404 98.2452 100.773 99.1892C100.143 100.133 99.2461 100.869 98.1973 101.304C97.1485 101.738 95.9943 101.852 94.8808 101.631C93.7673 101.409 92.7444 100.863 91.9416 100.06C91.1387 99.2574 90.5919 98.2347 90.3704 97.1212C90.1488 96.0077 90.2624 94.8535 90.6968 93.8046C91.1313 92.7557 91.867 91.8592 92.8109 91.2284C93.7549 90.5977 94.8647 90.261 96 90.261C96.7538 90.2609 97.5001 90.4092 98.1965 90.6976C98.8929 90.9859 99.5257 91.4086 100.059 91.9415C100.592 92.4745 101.015 93.1072 101.303 93.8035C101.592 94.4999 101.74 95.2462 101.74 96V96Z" stroke="#BF9D8A" stroke-width="2" stroke-linecap="round" stroke-linejoin="round"/>
<path d="M84.939 81.9189L76.79 95.9769L81.834 104.732" stroke="#BF9D8A" stroke-width="2" stroke-linecap="round" stroke-linejoin="round"/>
</svg>
