<svg width="192" height="192" viewBox="0 0 192 192" fill="none" xmlns="http://www.w3.org/2000/svg">
<rect width="192" height="192" rx="16" fill="#E9E9E3"/>
<path d="M58.8365 85.73V120.213C58.8405 121.059 59.0832 121.887 59.5365 122.602H47.5655C46.809 122.601 46.0838 122.3 45.5489 121.765C45.0139 121.23 44.7128 120.505 44.7115 119.748V90.361C44.7181 88.0458 45.6407 85.8272 47.2777 84.19C48.9148 82.5528 51.1332 81.6299 53.4485 81.623H59.8565C59.1924 82.8906 58.8425 84.2991 58.8365 85.73Z" stroke="#3C3F40" stroke-width="2" stroke-linecap="round" stroke-linejoin="round"/>
<path d="M147.289 90.36V119.747C147.287 120.504 146.986 121.229 146.451 121.764C145.916 122.299 145.191 122.6 144.435 122.601H132.465C132.918 121.887 133.16 121.059 133.165 120.213V85.729C133.159 84.2984 132.809 82.8902 132.145 81.623H138.551C140.867 81.6299 143.085 82.5526 144.722 84.1896C146.359 85.8267 147.282 88.045 147.289 90.36V90.36Z" stroke="#3C3F40" stroke-width="2" stroke-linecap="round" stroke-linejoin="round"/>
<path d="M48.9405 116.199H54.5705" stroke="#3C3F40" stroke-width="2" stroke-linecap="round" stroke-linejoin="round"/>
<path d="M137.43 99.472H143.06" stroke="#3C3F40" stroke-width="2" stroke-linecap="round" stroke-linejoin="round"/>
<path d="M137.43 104.74H143.06" stroke="#3C3F40" stroke-width="2" stroke-linecap="round" stroke-linejoin="round"/>
<path d="M133.164 85.73V120.213C133.159 121.059 132.917 121.887 132.464 122.602C132.06 123.24 131.501 123.765 130.839 124.127C130.177 124.489 129.433 124.676 128.679 124.671H116.243L114.349 112.871H77.6515C77.5935 113.221 76.6905 118.929 75.7585 124.671H63.3225C62.5677 124.676 61.824 124.489 61.1615 124.128C60.4991 123.766 59.9398 123.241 59.5365 122.603C59.0832 121.888 58.8405 121.06 58.8365 120.214V85.73C58.8425 84.2991 59.1924 82.8905 59.8565 81.623C60.6085 80.2294 61.7219 79.064 63.0798 78.2493C64.4377 77.4346 65.99 77.0007 67.5735 76.993H124.426C126.01 77.0006 127.563 77.4345 128.921 78.2492C130.279 79.0639 131.392 80.2293 132.145 81.623C132.808 82.8908 133.157 84.2992 133.164 85.73V85.73Z" stroke="#3C3F40" stroke-width="2" stroke-linecap="round" stroke-linejoin="round"/>
<path d="M118.423 53.671H73.5765V76.987H118.423V53.671Z" stroke="#3C3F40" stroke-width="2" stroke-linecap="round" stroke-linejoin="round"/>
<path d="M78.5255 66.812V59.748H85.8995" stroke="#3C3F40" stroke-width="2" stroke-linecap="round" stroke-linejoin="round"/>
<path d="M121.194 105.243V124.671H116.243L114.349 112.871H77.6515C77.5935 113.22 76.6905 118.929 75.7585 124.671H70.8115V105.243H121.194Z" stroke="#3C3F40" stroke-width="2" stroke-linecap="round" stroke-linejoin="round"/>
<path d="M118.426 138.329H73.5735L73.8075 136.814C73.8935 136.436 74.8265 130.524 75.7585 124.67C76.6905 118.932 77.5935 113.224 77.6505 112.87H114.351L116.242 124.671L118.426 138.329Z" stroke="#3C3F40" stroke-width="2" stroke-linecap="round" stroke-linejoin="round"/>
<path d="M74.4525 132.878C74.8117 132.092 75.3308 131.388 75.9768 130.814C76.6228 130.239 77.3815 129.805 78.2045 129.54C83.0125 127.819 84.9415 133.5 87.5765 132.821C90.5985 132.044 88.9425 125.548 93.0975 123.946C97.1915 122.367 98.9315 127.833 101.804 126.738C104.776 125.605 103.262 119.39 107.08 117.953C109.225 117.145 112.252 117.023 115.736 121.741" stroke="#3C3F40" stroke-width="2" stroke-linecap="round" stroke-linejoin="round"/>
</svg>
