<svg width="192" height="192" viewBox="0 0 192 192" fill="none" xmlns="http://www.w3.org/2000/svg">
<rect width="192" height="192" rx="16" fill="#F5F5F1"/>
<g clip-path="url(#clip0_210_515)">
<path d="M113.928 108.095C113.928 111.732 112.85 115.288 110.829 118.312C108.809 121.336 105.937 123.693 102.577 125.085C99.2164 126.477 95.5189 126.841 91.9517 126.132C88.3845 125.422 85.1078 123.671 82.536 121.099C79.9642 118.527 78.2128 115.251 77.5033 111.683C76.7938 108.116 77.158 104.419 78.55 101.058C79.9419 97.6982 82.299 94.8263 85.3232 92.8057C88.3475 90.7852 91.9029 89.7068 95.54 89.707C100.417 89.707 105.094 91.6443 108.542 95.0928C111.991 98.5412 113.928 103.218 113.928 108.095Z" stroke="#BF9D8A" stroke-width="2" stroke-linecap="round" stroke-linejoin="round"/>
<path d="M84.504 108.095C84.504 105.168 85.6667 102.361 87.7364 100.291C89.806 98.2217 92.6131 97.059 95.54 97.059" stroke="#BF9D8A" stroke-width="2" stroke-linecap="round" stroke-linejoin="round"/>
<path d="M89.438 79.353H101.642" stroke="#BF9D8A" stroke-width="2" stroke-linecap="round" stroke-linejoin="round"/>
<path d="M119.871 83.99H109.726L106.367 75.136C105.996 74.1573 105.336 73.3146 104.474 72.72C103.613 72.1254 102.591 71.807 101.544 71.807H89.537C88.4901 71.8071 87.4681 72.1255 86.6064 72.7201C85.7448 73.3147 85.0845 74.1573 84.713 75.136L81.354 83.99H77.567V80.98H71.798V83.99H71.209C70.296 83.99 69.3919 84.1699 68.5483 84.5193C67.7048 84.8687 66.9384 85.3809 66.2928 86.0266C65.6473 86.6722 65.1352 87.4387 64.7859 88.2823C64.4366 89.1259 64.2569 90.03 64.257 90.943V125.248C64.257 127.092 64.9894 128.86 66.2932 130.164C67.5969 131.468 69.3652 132.2 71.209 132.2H119.871C121.715 132.2 123.483 131.468 124.787 130.164C126.091 128.86 126.824 127.092 126.824 125.248V90.943C126.824 89.099 126.091 87.3304 124.788 86.0265C123.484 84.7226 121.715 83.99 119.871 83.99V83.99Z" stroke="#BF9D8A" stroke-width="2" stroke-linecap="round" stroke-linejoin="round"/>
<path d="M62.219 44.97C70.559 44.97 70.559 50.313 78.9 50.313C87.241 50.313 87.248 44.97 95.59 44.97C103.932 44.97 103.944 50.313 112.297 50.313C120.65 50.313 120.656 44.97 129.009 44.97" stroke="#BF9D8A" stroke-width="2" stroke-linecap="round" stroke-linejoin="round"/>
<path d="M62.219 57.213C70.559 57.213 70.559 62.556 78.9 62.556C87.241 62.556 87.248 57.213 95.595 57.213C103.942 57.213 103.949 62.556 112.302 62.556C120.655 62.556 120.656 57.213 129.009 57.213" stroke="#BF9D8A" stroke-width="2" stroke-linecap="round" stroke-linejoin="round"/>
<path d="M145.318 139.118H46.797V147.03H145.318V139.118Z" stroke="#BF9D8A" stroke-width="2" stroke-linecap="round" stroke-linejoin="round"/>
<path d="M55.451 138.87H46.797L45.49 95.51C45.4675 94.7563 45.5966 94.0058 45.8695 93.3029C46.1424 92.6001 46.5536 91.9591 47.0788 91.4181C47.6039 90.877 48.2323 90.4469 48.9267 90.1532C49.6212 89.8595 50.3675 89.7081 51.1215 89.7081C51.8755 89.7081 52.6218 89.8595 53.3162 90.1532C54.0107 90.4469 54.6391 90.877 55.1642 91.4181C55.6894 91.9591 56.1006 92.6001 56.3735 93.3029C56.6464 94.0058 56.7754 94.7563 56.753 95.51L55.451 138.87Z" stroke="#BF9D8A" stroke-width="2" stroke-linecap="round" stroke-linejoin="round"/>
<path d="M145.203 138.87H136.549L135.249 95.507C135.227 94.7534 135.356 94.0029 135.628 93.3C135.901 92.5971 136.313 91.9562 136.838 91.4151C137.363 90.8741 137.991 90.444 138.686 90.1503C139.38 89.8565 140.126 89.7052 140.88 89.7052C141.634 89.7052 142.381 89.8565 143.075 90.1503C143.77 90.444 144.398 90.8741 144.923 91.4151C145.448 91.9562 145.86 92.5971 146.132 93.3C146.405 94.0029 146.534 94.7534 146.512 95.507L145.203 138.87Z" stroke="#BF9D8A" stroke-width="2" stroke-linecap="round" stroke-linejoin="round"/>
</g>
<defs>
<clipPath id="clip0_210_515">
<rect width="103.02" height="104.06" fill="white" transform="translate(44.49 43.97)"/>
</clipPath>
</defs>
</svg>
