<svg width="192" height="69" viewBox="0 0 192 69" fill="none" xmlns="http://www.w3.org/2000/svg">
<path d="M34.187 0C27.4255 0 20.8158 2.00503 15.1937 5.76155C9.57171 9.51806 5.18988 14.8573 2.60235 21.1042C0.0148127 27.3511 -0.662204 34.2249 0.656909 40.8566C1.97602 47.4882 5.23202 53.5797 10.0132 58.3609C14.7943 63.142 20.8858 66.398 27.5175 67.7171C34.1491 69.0362 41.023 68.3592 47.2698 65.7717C53.5167 63.1841 58.856 58.8023 62.6125 53.1803C66.369 47.5583 68.374 40.9486 68.374 34.187C68.3637 25.1232 64.7585 16.4336 58.3495 10.0245C51.9404 3.61547 43.2508 0.0103222 34.187 0M34.187 65.321C28.0293 65.321 22.0098 63.495 16.8899 60.074C11.7699 56.6529 7.77941 51.7905 5.42295 46.1015C3.06649 40.4125 2.44993 34.1525 3.65125 28.1131C4.85256 22.0737 7.81779 16.5261 12.172 12.1719C16.5261 7.81777 22.0737 4.85254 28.1131 3.65123C34.1525 2.44992 40.4125 3.06648 46.1015 5.42293C51.7905 7.77939 56.6529 11.7699 60.074 16.8899C63.495 22.0098 65.321 28.0293 65.321 34.187C65.3118 42.4414 62.0286 50.3551 56.1918 56.1918C50.3551 62.0286 42.4414 65.3117 34.187 65.321Z" fill="#3C3F40"/>
<path d="M34.187 6.15991C28.6438 6.16011 23.2252 7.80403 18.6163 10.8838C14.0074 13.9636 10.4153 18.3409 8.29417 23.4621C6.17302 28.5834 5.61814 34.2187 6.69968 39.6553C7.78122 45.092 10.4506 50.0858 14.3703 54.0053C18.29 57.9249 23.2839 60.5941 28.7206 61.6755C34.1573 62.7568 39.7925 62.2017 44.9137 60.0804C50.0349 57.9591 54.4121 54.3668 57.4917 49.7578C60.5713 45.1488 62.215 39.7301 62.215 34.1869C62.2066 26.7561 59.2509 19.6321 53.9964 14.3778C48.7419 9.12356 41.6178 6.16812 34.187 6.15991ZM59.057 31.9689L46.399 38.4869L47.673 13.1869C50.8757 15.2438 53.5662 18.0051 55.5391 21.2602C57.5121 24.5152 58.7153 28.178 59.057 31.9689ZM24.527 39.0009L25.027 28.3719L34.707 23.4219L43.801 29.3219L43.259 40.0999L33.75 44.9999L24.527 39.0009ZM44.703 11.5409L43.985 25.7999L22.727 12.0069C26.1088 10.2537 29.8479 9.29991 33.6563 9.21912C37.4647 9.13833 41.2409 9.93265 44.694 11.5409M19.835 13.7679L31.754 21.5039L9.24302 33.0159C9.42343 29.2122 10.4717 25.5002 12.3076 22.164C14.1435 18.8278 16.7183 15.9558 19.835 13.7679ZM9.31702 36.4069L21.896 29.9749L20.696 55.1859C17.4946 53.1289 14.8053 50.3678 12.8332 47.1133C10.8612 43.8588 9.65855 40.1969 9.31702 36.4069ZM23.672 56.8279L24.354 42.5279L45.643 56.3679C42.2603 58.121 38.5202 59.0742 34.711 59.1539C30.9018 59.2337 27.1252 58.4379 23.672 56.8279ZM48.538 54.6079L36.701 46.9159L59.127 35.3649C58.946 39.1675 57.8977 42.8782 56.0624 46.2135C54.2271 49.5487 51.6534 52.4201 48.538 54.6079Z" fill="#3C3F40"/>
<path d="M85.395 38.3899C84.1723 38.0343 83.0311 37.4425 82.036 36.6479L83.253 34.0479C84.1587 34.7394 85.1723 35.2767 86.253 35.6379C87.3566 35.9888 88.509 36.1617 89.667 36.1499C90.77 36.214 91.8687 35.9648 92.836 35.4309C93.1862 35.2252 93.4748 34.9294 93.6717 34.5743C93.8687 34.2192 93.9669 33.8178 93.956 33.4119C93.9617 33.0596 93.8673 32.7129 93.684 32.412C93.5006 32.1111 93.2357 31.8684 92.92 31.7119C91.8389 31.1825 90.6896 30.8056 89.505 30.5919C87.5847 30.2784 85.7496 29.5728 84.114 28.5189C83.5529 28.086 83.106 27.5227 82.812 26.8779C82.518 26.2332 82.3859 25.5264 82.427 24.8189C82.4091 23.7128 82.7378 22.6288 83.367 21.7189C84.0425 20.7763 84.966 20.0393 86.035 19.5899C87.297 19.0523 88.6586 18.7885 90.03 18.8159C91.368 18.8091 92.6982 19.0192 93.969 19.4379C95.0996 19.7878 96.1416 20.3772 97.024 21.1659L95.836 23.7639C94.2054 22.4072 92.1512 21.6642 90.03 21.6639C88.9681 21.6064 87.9148 21.8819 87.017 22.4519C86.6666 22.6864 86.3814 23.0058 86.188 23.3804C85.9946 23.755 85.8993 24.1725 85.911 24.5939C85.8978 24.9503 85.9822 25.3035 86.1551 25.6155C86.328 25.9274 86.5828 26.1862 86.892 26.3639C87.9472 26.911 89.08 27.2931 90.251 27.4969C91.6216 27.7981 92.9631 28.2191 94.26 28.7549C95.1858 29.1276 96.0035 29.7266 96.638 30.4969C97.2098 31.266 97.5023 32.2071 97.467 33.1649C97.4913 34.2666 97.1618 35.3471 96.527 36.2479C95.8378 37.1713 94.8974 37.8767 93.818 38.2799C92.4857 38.7863 91.068 39.0304 89.643 38.9989C88.2059 39.0096 86.7753 38.8046 85.399 38.3909" fill="#3C3F40"/>
<path d="M113.886 24.7859V38.7479H110.486V36.5089C110.067 37.2776 109.433 37.9071 108.661 38.3199C107.827 38.7629 106.895 38.9866 105.951 38.9699C104.81 38.9911 103.687 38.6839 102.716 38.0849C101.759 37.4761 101 36.6018 100.532 35.5689C99.9946 34.3802 99.7301 33.0862 99.758 31.7819C99.7332 30.4629 100.002 29.1549 100.546 27.9529C101.021 26.8971 101.783 25.9962 102.746 25.3529C103.699 24.7317 104.816 24.4092 105.953 24.4269C106.897 24.4102 107.829 24.6338 108.663 25.0769C109.435 25.4898 110.069 26.1193 110.488 26.8879V24.7879L113.886 24.7859ZM109.545 35.0719C110.227 34.0947 110.558 32.9154 110.485 31.7259C110.563 30.5191 110.232 29.3213 109.545 28.3259C109.224 27.9295 108.813 27.615 108.347 27.4083C107.881 27.2016 107.372 27.1086 106.863 27.1369C106.352 27.1126 105.843 27.2118 105.378 27.4261C104.914 27.6404 104.508 27.9635 104.195 28.3679C103.505 29.3681 103.17 30.5701 103.241 31.7829C103.164 32.9658 103.501 34.1387 104.195 35.0999C104.524 35.4894 104.94 35.7971 105.408 35.9985C105.877 36.2 106.386 36.2898 106.895 36.2609C107.4 36.2872 107.904 36.1932 108.365 35.9864C108.827 35.7797 109.232 35.4662 109.549 35.0719" fill="#3C3F40"/>
<path d="M130.638 30.1779V38.7489H127.182V30.3489C127.254 29.4935 127.029 28.6395 126.546 27.9299C126.297 27.6631 125.992 27.456 125.652 27.3242C125.312 27.1924 124.946 27.1393 124.583 27.1689C124.112 27.1493 123.642 27.2291 123.204 27.4029C122.766 27.5768 122.369 27.8408 122.04 28.1779C121.711 28.5367 121.455 28.9572 121.289 29.4151C121.123 29.873 121.049 30.3593 121.072 30.8459V38.7529H117.644V28.7399C117.653 27.4186 117.579 26.098 117.423 24.7859H120.658L120.907 27.0859C121.361 26.263 122.036 25.5832 122.856 25.1229C123.707 24.6513 124.666 24.4104 125.638 24.4239C128.971 24.4239 130.638 26.3409 130.638 30.1749" fill="#3C3F40"/>
<path d="M138.713 27.3819V33.6309C138.713 35.2716 139.478 36.0919 141.008 36.0919C141.477 36.0851 141.942 36.0107 142.39 35.8709V38.6079C141.677 38.8456 140.929 38.9579 140.178 38.9399C139.511 38.9839 138.842 38.8886 138.214 38.6599C137.586 38.4313 137.012 38.0744 136.529 37.6119C135.62 36.5568 135.163 35.1863 135.257 33.7969V27.3819H132.576V24.7819H135.258V21.3819L138.714 20.2209V24.7819H142.414V27.3819H138.713Z" fill="#3C3F40"/>
<path d="M158.149 24.7861V38.7481H154.749V36.5091C154.331 37.2778 153.697 37.9073 152.925 38.3201C152.092 38.763 151.159 38.9866 150.216 38.9701C149.075 38.9914 147.952 38.6842 146.981 38.0851C146.024 37.4763 145.265 36.6021 144.797 35.5691C144.26 34.3804 143.995 33.0864 144.023 31.7821C143.998 30.4631 144.267 29.1552 144.811 27.9531C145.286 26.8973 146.048 25.9964 147.011 25.3531C147.964 24.7318 149.081 24.4093 150.219 24.4271C151.162 24.4106 152.095 24.6343 152.928 25.0771C153.7 25.49 154.334 26.1195 154.752 26.8881V24.7881L158.149 24.7861ZM153.808 35.0711C154.491 34.0941 154.822 32.9146 154.748 31.7251C154.826 30.5183 154.495 29.3204 153.808 28.3251C153.487 27.9288 153.077 27.6143 152.611 27.4076C152.145 27.2008 151.636 27.1078 151.127 27.1361C150.616 27.1119 150.107 27.2111 149.642 27.4253C149.178 27.6396 148.772 27.9627 148.459 28.3671C147.769 29.3673 147.434 30.5693 147.505 31.7821C147.428 32.9651 147.765 34.1379 148.459 35.0991C148.788 35.4886 149.204 35.7962 149.672 35.9977C150.141 36.1991 150.65 36.289 151.159 36.2601C151.664 36.2866 152.168 36.1926 152.629 35.9859C153.091 35.7791 153.497 35.4656 153.813 35.0711" fill="#3C3F40"/>
<path d="M174.903 30.1781V38.7491H171.447V30.3491C171.519 29.4937 171.294 28.6396 170.811 27.9301C170.563 27.6632 170.257 27.4561 169.917 27.3243C169.577 27.1925 169.211 27.1394 168.848 27.1691C168.377 27.1496 167.907 27.2293 167.469 27.4031C167.031 27.577 166.634 27.841 166.305 28.1781C165.976 28.5369 165.72 28.9574 165.554 29.4153C165.388 29.8732 165.314 30.3595 165.337 30.8461V38.7531H161.909V28.7401C161.918 27.4188 161.844 26.0982 161.688 24.7861H164.923L165.172 27.0861C165.627 26.2633 166.302 25.5836 167.122 25.1231C167.972 24.6549 168.93 24.4168 169.9 24.4321C173.233 24.4321 174.9 26.3491 174.9 30.1831" fill="#3C3F40"/>
<path d="M191.934 24.7859V38.7479H188.534V36.5089C188.115 37.2777 187.481 37.9072 186.709 38.3199C185.876 38.7628 184.943 38.9864 184 38.9699C182.859 38.9911 181.736 38.6839 180.765 38.0849C179.808 37.476 179.049 36.6018 178.581 35.5689C178.044 34.3801 177.779 33.0862 177.807 31.7819C177.782 30.4629 178.051 29.1549 178.595 27.9529C179.07 26.897 179.832 25.996 180.795 25.3529C181.748 24.7316 182.865 24.4092 184.002 24.4269C184.946 24.4103 185.878 24.634 186.711 25.0769C187.483 25.4897 188.117 26.1192 188.536 26.8879V24.7879L191.934 24.7859ZM187.593 35.0709C188.275 34.0938 188.607 32.9144 188.533 31.7249C188.611 30.5181 188.28 29.3202 187.593 28.3249C187.272 27.9284 186.862 27.6139 186.395 27.4072C185.929 27.2005 185.42 27.1075 184.911 27.1359C184.4 27.1116 183.891 27.2108 183.426 27.4251C182.962 27.6394 182.556 27.9624 182.243 28.3669C181.553 29.3671 181.218 30.569 181.289 31.7819C181.212 32.9648 181.549 34.1377 182.243 35.0989C182.572 35.4883 182.988 35.7959 183.456 35.9974C183.925 36.1989 184.434 36.2888 184.943 36.2599C185.448 36.2863 185.952 36.1923 186.413 35.9855C186.875 35.7788 187.281 35.4653 187.597 35.0709" fill="#3C3F40"/>
<path d="M84.088 43.2331H86.522C87.0509 43.2008 87.5734 43.3622 87.992 43.6871C88.1595 43.85 88.2926 44.0449 88.3835 44.2602C88.4745 44.4755 88.5213 44.7069 88.5213 44.9406C88.5213 45.1743 88.4745 45.4056 88.3835 45.6209C88.2926 45.8362 88.1595 46.0311 87.992 46.194C87.5754 46.5202 87.0542 46.683 86.526 46.6521H84.795V49.334H84.095L84.088 43.2331ZM86.462 46.07C86.8258 46.0969 87.1872 45.9938 87.482 45.779C87.5989 45.674 87.6904 45.5439 87.7498 45.3984C87.8093 45.2529 87.8349 45.0959 87.825 44.9391C87.8351 44.7828 87.8095 44.6263 87.7501 44.4814C87.6907 44.3366 87.599 44.2072 87.482 44.1031C87.186 43.8912 86.8251 43.7896 86.462 43.8161H84.791V46.069L86.462 46.07Z" fill="#3C3F40"/>
<path d="M97.449 43.2329H98.149V49.3329H97.449V46.5329H93.79V49.3329H93.096V43.2329H93.79V45.9409H97.449V43.2329Z" fill="#3C3F40"/>
<path d="M104.168 49.021C103.746 48.7639 103.41 48.3864 103.204 47.937C102.982 47.4115 102.868 46.8469 102.868 46.2765C102.868 45.706 102.982 45.1414 103.204 44.616C103.409 44.168 103.743 43.7918 104.164 43.536C104.619 43.2887 105.129 43.1592 105.647 43.1592C106.164 43.1592 106.674 43.2887 107.129 43.536C107.55 43.7917 107.884 44.1679 108.089 44.616C108.311 45.1406 108.425 45.7044 108.425 46.274C108.425 46.8435 108.311 47.4073 108.089 47.932C107.881 48.3805 107.546 48.7579 107.125 49.017C106.674 49.2658 106.166 49.3964 105.651 49.3964C105.136 49.3964 104.628 49.2658 104.177 49.017M107.159 48.134C107.51 47.5757 107.697 46.9295 107.697 46.27C107.697 45.6104 107.51 44.9642 107.159 44.406C106.964 44.1995 106.73 44.035 106.469 43.9225C106.209 43.8101 105.928 43.7521 105.644 43.7521C105.36 43.7521 105.079 43.8101 104.819 43.9225C104.558 44.035 104.324 44.1995 104.129 44.406C103.738 44.9426 103.547 45.5992 103.589 46.262C103.547 46.9284 103.738 47.5889 104.129 48.13C104.322 48.3381 104.556 48.5042 104.816 48.6178C105.077 48.7314 105.358 48.79 105.642 48.79C105.925 48.79 106.206 48.7314 106.467 48.6178C106.727 48.5042 106.961 48.3381 107.154 48.13" fill="#3C3F40"/>
<path d="M114.229 49.3339V43.8339H112.103V43.2339H117.062V43.8339H114.937V49.3339H114.229Z" fill="#3C3F40"/>
<path d="M122.053 49.021C121.631 48.7639 121.295 48.3864 121.089 47.937C120.867 47.4115 120.753 46.8469 120.753 46.2765C120.753 45.706 120.867 45.1414 121.089 44.616C121.294 44.168 121.628 43.7918 122.049 43.536C122.504 43.2887 123.014 43.1592 123.531 43.1592C124.049 43.1592 124.559 43.2887 125.014 43.536C125.435 43.7917 125.769 44.168 125.974 44.616C126.196 45.1406 126.31 45.7044 126.31 46.274C126.31 46.8435 126.196 47.4073 125.974 47.932C125.766 48.3805 125.431 48.7579 125.01 49.017C124.559 49.2658 124.051 49.3964 123.536 49.3964C123.02 49.3964 122.513 49.2658 122.062 49.017M125.044 48.134C125.395 47.5757 125.582 46.9295 125.582 46.27C125.582 45.6104 125.395 44.9642 125.044 44.406C124.849 44.1996 124.614 44.0352 124.354 43.9228C124.093 43.8105 123.813 43.7525 123.529 43.7525C123.245 43.7525 122.965 43.8105 122.704 43.9228C122.444 44.0352 122.209 44.1996 122.014 44.406C121.623 44.9426 121.432 45.5992 121.474 46.262C121.432 46.9284 121.623 47.5889 122.014 48.13C122.207 48.3381 122.441 48.5042 122.701 48.6178C122.962 48.7314 123.243 48.79 123.526 48.79C123.81 48.79 124.091 48.7314 124.352 48.6178C124.612 48.5042 124.846 48.3381 125.039 48.13" fill="#3C3F40"/>
<path d="M135.842 46.1559V48.9839C135.543 49.1273 135.226 49.2282 134.899 49.2839C134.509 49.3613 134.113 49.4001 133.716 49.3999C133.17 49.4141 132.629 49.2856 132.148 49.0269C131.71 48.7803 131.358 48.4046 131.141 47.9509C130.897 47.4255 130.779 46.8509 130.794 46.2719C130.779 45.6969 130.898 45.1262 131.141 44.6049C131.357 44.1561 131.703 43.7828 132.135 43.5339C132.603 43.2764 133.131 43.148 133.665 43.1619C134.066 43.1574 134.464 43.2223 134.843 43.3539C135.189 43.4757 135.504 43.6735 135.764 43.9329L135.49 44.4729C135.232 44.2454 134.938 44.0616 134.62 43.9289C134.315 43.8137 133.991 43.757 133.665 43.7619C133.368 43.7432 133.071 43.7916 132.796 43.9036C132.521 44.0157 132.274 44.1884 132.075 44.4089C131.712 44.9682 131.52 45.621 131.522 46.2877C131.524 46.9544 131.72 47.606 132.087 48.1629C132.297 48.3855 132.553 48.5589 132.837 48.6706C133.122 48.7823 133.428 48.8295 133.733 48.8089C134.232 48.8109 134.727 48.7301 135.199 48.5699V46.7099H133.682V46.1529L135.842 46.1559Z" fill="#3C3F40"/>
<path d="M145.499 49.335H144.753L143.999 47.304C143.939 47.0938 143.803 46.9136 143.617 46.799C143.401 46.7024 143.165 46.6582 142.928 46.67H141.402V49.335H140.708V43.235H143.133C143.673 43.1994 144.208 43.3541 144.646 43.672C144.824 43.8276 144.965 44.0222 145.056 44.2406C145.148 44.4591 145.188 44.6956 145.173 44.932C145.185 45.2934 145.075 45.6483 144.86 45.939C144.631 46.2241 144.315 46.4269 143.96 46.517C144.131 46.5431 144.29 46.6225 144.414 46.744C144.557 46.8945 144.665 47.0743 144.731 47.271L145.499 49.335ZM143.074 46.087C144.011 46.087 144.48 45.7043 144.48 44.939C144.492 44.7814 144.467 44.6232 144.408 44.4767C144.348 44.3303 144.255 44.1997 144.137 44.095C143.824 43.8851 143.45 43.7871 143.074 43.817H141.403V46.088L143.074 46.087Z" fill="#3C3F40"/>
<path d="M154.684 49.3351L154.015 47.7671H150.828L150.151 49.3351H149.423L152.105 43.2351H152.722L155.404 49.3351H154.684ZM151.076 47.1841H153.767L152.422 44.0481L151.076 47.1841Z" fill="#3C3F40"/>
<path d="M159.743 43.2331H162.177C162.706 43.2007 163.228 43.3621 163.647 43.6871C163.814 43.8501 163.948 44.0449 164.039 44.2602C164.129 44.4755 164.176 44.7069 164.176 44.9406C164.176 45.1743 164.129 45.4056 164.039 45.6209C163.948 45.8362 163.814 46.0311 163.647 46.1941C163.23 46.5202 162.709 46.683 162.181 46.6521H160.45V49.3341H159.75L159.743 43.2331ZM162.118 46.0701C162.482 46.0971 162.843 45.994 163.138 45.7791C163.255 45.6741 163.347 45.5439 163.406 45.3985C163.465 45.253 163.491 45.0959 163.481 44.9391C163.491 44.7828 163.466 44.6263 163.406 44.4814C163.347 44.3365 163.255 44.2071 163.138 44.1031C162.841 43.8924 162.481 43.7923 162.118 43.8201H160.447V46.0731L162.118 46.0701Z" fill="#3C3F40"/>
<path d="M173.105 43.2329H173.805V49.3329H173.105V46.5329H169.446V49.3329H168.751V43.2329H169.446V45.9409H173.105V43.2329Z" fill="#3C3F40"/>
<path d="M178.742 49.3339V43.2339H182.599V43.8169H179.437V45.9419H182.425V46.5329H179.434V48.7529H182.596V49.3359L178.742 49.3339Z" fill="#3C3F40"/>
<path d="M192 49.335H191.255L190.5 47.304C190.44 47.0938 190.304 46.9136 190.118 46.799C189.902 46.7024 189.666 46.6582 189.429 46.67H187.904V49.335H187.209V43.235H189.634C190.174 43.1993 190.709 43.3539 191.147 43.672C191.326 43.8276 191.466 44.0222 191.557 44.2406C191.649 44.4591 191.689 44.6957 191.674 44.932C191.686 45.2934 191.576 45.6484 191.361 45.939C191.132 46.2241 190.816 46.427 190.461 46.517C190.632 46.5432 190.791 46.6226 190.915 46.744C191.058 46.8945 191.166 47.0744 191.232 47.271L192 49.335ZM189.575 46.087C190.512 46.087 190.98 45.7044 190.981 44.939C190.993 44.7814 190.968 44.6232 190.909 44.4768C190.849 44.3304 190.756 44.1997 190.638 44.095C190.325 43.8852 189.951 43.7872 189.575 43.817H187.904V46.088L189.575 46.087Z" fill="#3C3F40"/>
</svg>
