<svg width="28" height="16" viewBox="0 0 28 16" fill="none" xmlns="http://www.w3.org/2000/svg">
<path d="M27.993 0.500977H0V15.25H27.993V0.500977Z" fill="white"/>
<path d="M12.305 0.501953V6.40195H0.0119629V9.35095H12.305V15.251H15.669V9.35095H27.995V6.40195H15.669V0.501953H12.305Z" fill="#CE1124"/>
<path d="M0 5.42999H6.106L0 2.21899V5.42999Z" fill="#00247D"/>
<path d="M3.36903 0.5H3.28003L11.197 4.686V0.5H3.36903Z" fill="#00247D"/>
<path d="M0 1.65797L7.157 5.40897H9.396L0 0.495972V1.65797Z" fill="#CE1124"/>
<path d="M18.604 10.34L28.004 15.248V14.091L20.847 10.34H18.604Z" fill="#CE1124"/>
<path d="M0 10.3439V13.5549L6.106 10.3439H0Z" fill="#00247D"/>
<path d="M3.27905 15.27H3.36804H11.1951V11.08L3.27905 15.27Z" fill="#00247D"/>
<path d="M9.3511 10.34L0.00610352 15.246H2.1911L11.2051 10.537V10.337L9.3511 10.34Z" fill="#CE1124"/>
<path d="M21.894 5.42899H28V2.21399L21.894 5.42899Z" fill="#00247D"/>
<path d="M16.802 0.5V4.69L24.7209 0.5H24.631H16.802Z" fill="#00247D"/>
<path d="M16.812 5.24896V5.41496H18.7319L27.99 0.506958H25.89L16.812 5.24896Z" fill="#CE1124"/>
<path d="M21.894 10.343L28 13.554V10.343H21.894Z" fill="#00247D"/>
<path d="M16.802 15.2729H24.6289H24.719L16.802 11.087V15.2729Z" fill="#00247D"/>
</svg>
