<svg width="34" height="34" viewBox="0 0 34 34" fill="none" xmlns="http://www.w3.org/2000/svg">
<path d="M33.968 17.2865C33.9675 14.1303 33.0626 11.0402 31.3605 8.38229C29.6584 5.72434 27.2303 3.60976 24.3637 2.28891C21.4971 0.968056 18.3121 0.496246 15.1857 0.929334C12.0593 1.36242 9.12248 2.68227 6.7229 4.73263C4.32333 6.78298 2.5615 9.47797 1.64601 12.4985C0.730515 15.5191 0.699697 18.7387 1.5572 21.7763C2.41471 24.8138 4.12463 27.542 6.48452 29.6379C8.84441 31.7338 11.7554 33.1097 14.873 33.6025V22.0605H10.673V17.2865H14.873V13.6475C14.873 9.50851 17.337 7.22251 21.111 7.22251C22.3505 7.23948 23.5871 7.3471 24.811 7.54451V11.6075H22.723C22.3682 11.5605 22.0073 11.5939 21.6672 11.7052C21.327 11.8165 21.0163 12.0028 20.7579 12.2505C20.4995 12.4981 20.3001 12.8007 20.1744 13.1358C20.0488 13.4709 20.0001 13.83 20.032 14.1865V17.2865H24.613L23.88 22.0605H20.032V33.6025C23.9168 32.9869 27.4545 31.0055 30.0091 28.0147C32.5636 25.0239 33.9674 21.2198 33.968 17.2865Z" fill="#3C3F40"/>
</svg>
