<svg width="34" height="34" viewBox="0 0 34 34" fill="none" xmlns="http://www.w3.org/2000/svg">
<g clip-path="url(#clip0_210_47)">
<path d="M17.194 3.63102C21.604 3.63102 22.126 3.64802 23.868 3.73102C24.9154 3.74351 25.9528 3.93598 26.935 4.30002C27.6526 4.56455 28.3019 4.98656 28.835 5.53502C29.3835 6.0681 29.8055 6.71735 30.07 7.43502C30.434 8.4172 30.6265 9.45464 30.639 10.502C30.718 12.244 30.739 12.766 30.739 17.176C30.739 21.586 30.722 22.108 30.639 23.85C30.6265 24.8974 30.434 25.9349 30.07 26.917C29.7952 27.6294 29.3743 28.2764 28.8343 28.8164C28.2944 29.3563 27.6474 29.7772 26.935 30.052C25.9528 30.4161 24.9154 30.6085 23.868 30.621C22.127 30.7 21.604 30.721 17.194 30.721C12.784 30.721 12.261 30.704 10.52 30.621C9.4726 30.6085 8.43515 30.4161 7.45299 30.052C6.73534 29.7875 6.0861 29.3655 5.55299 28.817C5.00452 28.2839 4.58251 27.6347 4.31799 26.917C3.95398 25.9348 3.76151 24.8974 3.74899 23.85C3.66999 22.108 3.64899 21.586 3.64899 17.176C3.64899 12.766 3.66599 12.244 3.74899 10.502C3.76126 9.4529 3.95407 8.41372 4.31899 7.43002C4.58351 6.71237 5.00552 6.06312 5.55399 5.53002C6.0871 4.98158 6.73634 4.55958 7.45399 4.29502C8.43615 3.93098 9.4736 3.73851 10.521 3.72602C12.263 3.64702 12.785 3.62602 17.195 3.62602M17.195 0.650024C12.709 0.650024 12.147 0.669024 10.385 0.750024C9.01563 0.779229 7.66113 1.04026 6.37899 1.52202C5.27569 1.93638 4.27611 2.5865 3.44999 3.42702C2.60959 4.25285 1.95947 5.25209 1.54499 6.35502C1.06514 7.63783 0.806137 8.99268 0.778986 10.362C0.698986 12.124 0.678986 12.686 0.678986 17.172C0.678986 21.658 0.697986 22.22 0.778986 23.982C0.806552 25.3522 1.06623 26.7077 1.54699 27.991C1.9614 29.0923 2.61079 30.0902 3.44999 30.915C4.27611 31.7555 5.27569 32.4057 6.37899 32.82C7.66231 33.3008 9.01785 33.5604 10.388 33.588C12.149 33.668 12.712 33.688 17.198 33.688C21.684 33.688 22.246 33.669 24.007 33.588C25.3771 33.5604 26.7327 33.3008 28.016 32.82C29.113 32.3957 30.1094 31.7469 30.9411 30.9151C31.7729 30.0834 32.4217 29.0871 32.846 27.99C33.3267 26.7067 33.5864 25.3512 33.614 23.981C33.694 22.219 33.714 21.657 33.714 17.171C33.714 12.685 33.695 12.123 33.614 10.361C33.5851 8.99173 33.3244 7.63722 32.843 6.35502C32.4281 5.25316 31.778 4.25499 30.938 3.43002C30.1133 2.58891 29.1151 1.93777 28.013 1.52202C26.7296 1.04163 25.3741 0.78229 24.004 0.755024C22.242 0.674024 21.679 0.655024 17.194 0.655024" fill="#3C3F40"/>
<path d="M17.194 8.68903C15.5166 8.68903 13.8769 9.18643 12.4822 10.1183C11.0875 11.0502 10.0005 12.3748 9.35857 13.9245C8.71666 15.4742 8.5487 17.1794 8.87595 18.8246C9.20319 20.4697 10.0109 21.9809 11.197 23.167C12.3831 24.3531 13.8943 25.1608 15.5394 25.4881C17.1846 25.8153 18.8898 25.6474 20.4395 25.0054C21.9892 24.3635 23.3138 23.2765 24.2457 21.8818C25.1776 20.4871 25.675 18.8474 25.675 17.17C25.675 14.9207 24.7815 12.7635 23.191 11.173C21.6005 9.58255 19.4433 8.68903 17.194 8.68903ZM17.194 22.676C16.1052 22.676 15.0409 22.3532 14.1356 21.7483C13.2303 21.1434 12.5247 20.2836 12.108 19.2777C11.6914 18.2718 11.5824 17.1649 11.7948 16.0971C12.0072 15.0292 12.5315 14.0483 13.3014 13.2784C14.0713 12.5085 15.0521 11.9842 16.12 11.7718C17.1879 11.5594 18.2948 11.6684 19.3007 12.0851C20.3066 12.5017 21.1663 13.2073 21.7712 14.1126C22.3761 15.0179 22.699 16.0822 22.699 17.171C22.699 18.631 22.119 20.0313 21.0866 21.0636C20.0542 22.096 18.654 22.676 17.194 22.676Z" fill="#3C3F40"/>
<path d="M27.992 8.35703C27.992 8.74903 27.8757 9.13223 27.6579 9.45817C27.4401 9.78411 27.1306 10.0381 26.7684 10.1882C26.4063 10.3382 26.0078 10.3774 25.6233 10.3009C25.2388 10.2245 24.8857 10.0357 24.6085 9.75851C24.3313 9.48133 24.1425 9.12817 24.066 8.7437C23.9896 8.35923 24.0288 7.96071 24.1788 7.59855C24.3288 7.23639 24.5829 6.92684 24.9088 6.70905C25.2348 6.49127 25.618 6.37503 26.01 6.37503C26.5356 6.37503 27.0398 6.58385 27.4115 6.95554C27.7832 7.32724 27.992 7.83137 27.992 8.35703Z" fill="#3C3F40"/>
</g>
<defs>
<clipPath id="clip0_210_47">
<rect width="33" height="33" fill="white" transform="translate(0.580994 0.687012)"/>
</clipPath>
</defs>
</svg>
