<svg width="58" height="104" viewBox="0 0 58 104" fill="none" xmlns="http://www.w3.org/2000/svg">
<g clip-path="url(#clip0_210_484)">
<path d="M29 54.3765V102.631" stroke="#BF9D8A" stroke-width="2" stroke-linecap="round" stroke-linejoin="round"/>
<path d="M1.77499 102.631V95.9196H56.225V102.631" stroke="#BF9D8A" stroke-width="2" stroke-linecap="round" stroke-linejoin="round"/>
<path d="M29.072 66.6155H36.843" stroke="#BF9D8A" stroke-width="2" stroke-linecap="round" stroke-linejoin="round"/>
<path d="M47.204 62.8905H36.843V70.3415H47.204V62.8905Z" stroke="#BF9D8A" stroke-width="2" stroke-linecap="round" stroke-linejoin="round"/>
<path d="M45.775 1.36951L41.728 15.0005L36.689 16.4855V17.3595C34.4558 15.7316 31.7636 14.8545 29 14.8545C26.2364 14.8545 23.5442 15.7316 21.311 17.3595V16.4855L16.275 15.0005L12.224 1.36951H45.775Z" stroke="#BF9D8A" stroke-width="2" stroke-linecap="round" stroke-linejoin="round"/>
<path d="M45.775 54.3765H12.224L16.275 40.7465L21.313 39.2605V38.4165C23.5464 40.0438 26.2386 40.9206 29.002 40.9206C31.7654 40.9206 34.4576 40.0438 36.691 38.4165V39.2605L41.73 40.7465L45.775 54.3765Z" stroke="#BF9D8A" stroke-width="2" stroke-linecap="round" stroke-linejoin="round"/>
<path d="M19.01 19.5145C17.0215 21.8425 15.9361 24.8078 15.952 27.8695C15.9404 30.9403 17.0248 33.9146 19.01 36.2575C19.6898 37.0633 20.4617 37.7865 21.31 38.4125V39.2565L16.275 40.7465L3.166 44.6495V11.1265L16.275 15.0005L21.314 16.4855V17.3595C20.4571 17.9764 19.6828 18.7006 19.01 19.5145V19.5145Z" stroke="#BF9D8A" stroke-width="2" stroke-linecap="round" stroke-linejoin="round"/>
<path d="M54.834 11.1265V44.6485L41.728 40.7485L36.689 39.2635V38.4195C37.5373 37.7935 38.3092 37.0703 38.989 36.2645C40.9762 33.9199 42.0609 30.9429 42.048 27.8695C42.0648 24.8064 40.9794 21.8395 38.99 19.5105C38.3185 18.6969 37.5455 17.9727 36.69 17.3555V16.4815L41.729 14.9965L54.834 11.1265Z" stroke="#BF9D8A" stroke-width="2" stroke-linecap="round" stroke-linejoin="round"/>
<path d="M42.048 27.8695C42.0596 30.9403 40.9752 33.9146 38.99 36.2575C38.3102 37.0633 37.5383 37.7866 36.69 38.4125C34.4568 40.0404 31.7646 40.9175 29.001 40.9175C26.2374 40.9175 23.5452 40.0404 21.312 38.4125C20.4639 37.7863 19.692 37.063 19.012 36.2575C17.026 33.9149 15.941 30.9406 15.952 27.8695C15.9353 24.8065 17.0207 21.8396 19.01 19.5105C19.6818 18.6971 20.4547 17.9729 21.31 17.3555C23.5432 15.7276 26.2354 14.8505 28.999 14.8505C31.7626 14.8505 34.4548 15.7276 36.688 17.3555C37.5435 17.9727 38.3165 18.6969 38.988 19.5105C40.978 21.8393 42.0641 24.8062 42.048 27.8695V27.8695Z" stroke="#BF9D8A" stroke-width="2" stroke-linecap="round" stroke-linejoin="round"/>
<path d="M21.122 27.8775C21.122 26.843 21.3258 25.8185 21.7217 24.8627C22.1176 23.9069 22.6979 23.0385 23.4294 22.3069C24.9068 20.8295 26.9106 19.9995 29 19.9995" stroke="#BF9D8A" stroke-width="2" stroke-linecap="round" stroke-linejoin="round"/>
</g>
<defs>
<clipPath id="clip0_210_484">
<rect width="56.45" height="103.261" fill="white" transform="translate(0.774994 0.369507)"/>
</clipPath>
</defs>
</svg>
