<svg width="106" height="106" viewBox="0 0 106 106" fill="none" xmlns="http://www.w3.org/2000/svg">
<path d="M95.522 52.9999C95.5323 59.9629 93.8143 66.8195 90.522 72.9549L78.958 53.0279V52.9999L65.977 30.5439H89.102C93.312 37.2762 95.5373 45.0597 95.522 52.9999V52.9999Z" stroke="#BF9D8A" stroke-width="2" stroke-linecap="round" stroke-linejoin="round"/>
<path d="M89.077 30.4879L40.024 30.5439L51.583 10.5049C52.055 10.4779 52.528 10.4779 53 10.4779C60.2182 10.4732 67.3186 12.3079 73.6309 15.809C79.9432 19.3101 85.2591 24.362 89.077 30.4879V30.4879Z" stroke="#BF9D8A" stroke-width="2" stroke-linecap="round" stroke-linejoin="round"/>
<path d="M51.527 10.506L40.021 30.544L34.796 39.604L27.07 53.004H27.042V52.977L15.477 32.99C18.9833 26.4074 24.1609 20.864 30.4891 16.9172C36.8173 12.9703 44.0732 10.7591 51.527 10.506Z" stroke="#BF9D8A" stroke-width="2" stroke-linecap="round" stroke-linejoin="round"/>
<path d="M40.021 75.4559H16.898C12.956 69.1349 10.7491 61.8868 10.4996 54.4415C10.2502 46.9962 11.9669 39.6166 15.477 33.0459L27.042 52.9769V53.0049L40.021 75.4559Z" stroke="#BF9D8A" stroke-width="2" stroke-linecap="round" stroke-linejoin="round"/>
<path d="M65.977 75.4559L54.418 95.4939C53.945 95.5219 53.473 95.5219 53 95.5219C45.7823 95.5262 38.6826 93.6912 32.3708 90.1901C26.0591 86.689 20.7436 81.6374 16.926 75.5119L65.977 75.4559Z" stroke="#BF9D8A" stroke-width="2" stroke-linecap="round" stroke-linejoin="round"/>
<path d="M90.519 73.01C87.0133 79.5913 81.8369 85.1338 75.5102 89.0806C69.1836 93.0273 61.9295 95.2392 54.477 95.494L65.977 75.455L71.202 66.395L78.928 53L78.956 53.027L90.519 73.01Z" stroke="#BF9D8A" stroke-width="2" stroke-linecap="round" stroke-linejoin="round"/>
<path d="M53 104.123C81.2345 104.123 104.123 81.2344 104.123 53C104.123 24.7655 81.2345 1.87695 53 1.87695C24.7656 1.87695 1.87701 24.7655 1.87701 53C1.87701 81.2344 24.7656 104.123 53 104.123Z" stroke="#BF9D8A" stroke-width="2" stroke-linecap="round" stroke-linejoin="round"/>
<path d="M58.74 53C58.7402 54.1353 58.4037 55.2452 57.7731 56.1892C57.1425 57.1333 56.2461 57.8692 55.1973 58.3038C54.1485 58.7384 52.9943 58.8522 51.8808 58.6308C50.7673 58.4095 49.7444 57.8628 48.9416 57.0601C48.1387 56.2574 47.5919 55.2347 47.3704 54.1212C47.1488 53.0077 47.2624 51.8535 47.6968 50.8046C48.1313 49.7557 48.867 48.8592 49.8109 48.2284C50.7549 47.5977 51.8647 47.261 53 47.261C53.7538 47.2609 54.5001 47.4092 55.1965 47.6976C55.8929 47.9859 56.5257 48.4086 57.0587 48.9415C57.5918 49.4745 58.0146 50.1072 58.3031 50.8035C58.5915 51.4999 58.74 52.2462 58.74 53V53Z" stroke="#BF9D8A" stroke-width="2" stroke-linecap="round" stroke-linejoin="round"/>
<path d="M41.939 38.9189L33.79 52.9769L38.834 61.7319" stroke="#BF9D8A" stroke-width="2" stroke-linecap="round" stroke-linejoin="round"/>
</svg>
