<svg width="58" height="96" viewBox="0 0 58 96" fill="none" xmlns="http://www.w3.org/2000/svg">
<path d="M44.361 86.7808L42.9192 92.6254C42.7576 93.2901 42.3769 93.881 41.8384 94.3029C41.2999 94.7248 40.635 94.953 39.9509 94.9508H18.0455C17.3614 94.9531 16.6965 94.725 16.1579 94.3031C15.6194 93.8812 15.2387 93.2902 15.0773 92.6254L13.6391 86.7808C13.883 87.4621 14.3316 88.0513 14.9235 88.4676C15.5154 88.8839 16.2216 89.107 16.9453 89.1061H41.0558C41.7792 89.1068 42.4852 88.8836 43.077 88.4673C43.6687 88.0511 44.1172 87.4619 44.361 86.7808Z" stroke="#3C3F40" stroke-width="2" stroke-linecap="round" stroke-linejoin="round"/>
<path d="M48.8785 1.0492H9.12239C8.55399 1.04875 8.00025 1.22953 7.54161 1.5653C7.08297 1.90106 6.74333 2.3743 6.57203 2.91628L1.62467 18.5289C1.45844 19.0545 1.45844 19.6187 1.62467 20.1443L6.57203 35.7569C6.74281 36.2995 7.08221 36.7735 7.54088 37.1099C7.99954 37.4464 8.55356 37.6278 9.12239 37.6277H48.8794C49.447 37.6279 50 37.4474 50.4581 37.1124C50.9163 36.7774 51.256 36.3052 51.428 35.7643L56.3753 20.1517C56.5416 19.626 56.5416 19.0619 56.3753 18.5362L51.428 2.92363C51.258 2.38043 50.9191 1.90568 50.4605 1.56853C50.0019 1.23138 49.4477 1.04943 48.8785 1.0492V1.0492Z" stroke="#3C3F40" stroke-width="2" stroke-linecap="round" stroke-linejoin="round"/>
<path d="M11.6443 31.5076L7.78706 19.3399L11.6443 7.16846H46.3594L50.2166 19.3399L46.3594 31.5076H11.6443Z" stroke="#3C3F40" stroke-width="2" stroke-linecap="round" stroke-linejoin="round"/>
<path d="M9.7303 13.2112H48.2696" stroke="#3C3F40" stroke-width="2" stroke-linecap="round" stroke-linejoin="round"/>
<path d="M8.23161 19.338H49.7685" stroke="#3C3F40" stroke-width="2" stroke-linecap="round" stroke-linejoin="round"/>
<path d="M9.7303 25.4646H48.2696" stroke="#3C3F40" stroke-width="2" stroke-linecap="round" stroke-linejoin="round"/>
<path d="M41.0557 89.0918H16.9444C16.1141 89.0919 15.3107 88.7975 14.6772 88.2609C14.0437 87.7242 13.6211 86.9802 13.4848 86.1612L6.73464 45.7025C6.65087 45.2 6.67756 44.6854 6.81284 44.1943C6.94812 43.7032 7.18876 43.2474 7.518 42.8587C7.84725 42.4701 8.25721 42.1578 8.71938 41.9436C9.18154 41.7294 9.68482 41.6184 10.1942 41.6184H47.805C48.3143 41.6184 48.8176 41.7293 49.2797 41.9435C49.7419 42.1578 50.1518 42.4701 50.481 42.8588C50.8101 43.2475 51.0507 43.7032 51.1858 44.1943C51.321 44.6854 51.3476 45.2001 51.2636 45.7025L44.5153 86.1612C44.379 86.9802 43.9564 87.7242 43.3229 88.2609C42.6894 88.7975 41.886 89.0919 41.0557 89.0918V89.0918Z" stroke="#3C3F40" stroke-width="2" stroke-linecap="round" stroke-linejoin="round"/>
<path d="M34.5341 55.1063H49.7215" stroke="#3C3F40" stroke-width="2" stroke-linecap="round" stroke-linejoin="round"/>
<path d="M8.27843 55.1063H24.2465" stroke="#3C3F40" stroke-width="2" stroke-linecap="round" stroke-linejoin="round"/>
<path d="M31.859 50.7773H26.9217C25.4447 50.7773 24.2474 51.9747 24.2474 53.4517V66.3321C24.2474 67.8091 25.4447 69.0064 26.9217 69.0064H31.859C33.336 69.0064 34.5333 67.8091 34.5333 66.3321V53.4517C34.5333 51.9747 33.336 50.7773 31.859 50.7773Z" stroke="#3C3F40" stroke-width="2" stroke-linecap="round" stroke-linejoin="round"/>
</svg>
