<svg width="106" height="82" viewBox="0 0 106 82" fill="none" xmlns="http://www.w3.org/2000/svg">
<path d="M49.9645 22.928V42.238H40.2365C41.8062 39.2668 42.6263 35.9573 42.6255 32.597C42.6307 29.2237 41.7999 25.9017 40.2075 22.928H49.9645Z" stroke="#3C3F40" stroke-width="2" stroke-linecap="round" stroke-linejoin="round"/>
<path d="M52.8695 14.8149H101.586C102.358 14.8149 103.099 15.1218 103.645 15.6681C104.192 16.2144 104.499 16.9554 104.499 17.7279V47.4549C104.499 48.2273 104.192 48.9679 103.646 49.514C103.1 50.0601 102.359 50.3669 101.587 50.3669H52.8695C52.0972 50.3669 51.3565 50.0601 50.8104 49.514C50.2643 48.9679 49.9575 48.2273 49.9575 47.4549V17.7269C49.9575 16.9546 50.2643 16.214 50.8104 15.6678C51.3565 15.1217 52.0972 14.8149 52.8695 14.8149V14.8149Z" stroke="#3C3F40" stroke-width="2" stroke-linecap="round" stroke-linejoin="round"/>
<path d="M63.0345 42.8709H57.4535V38.7789" stroke="#3C3F40" stroke-width="2" stroke-linecap="round" stroke-linejoin="round"/>
<path d="M57.4535 27.1199V22.3099H62.4765" stroke="#3C3F40" stroke-width="2" stroke-linecap="round" stroke-linejoin="round"/>
<path d="M91.7415 42.8709H97.3225V38.7789" stroke="#3C3F40" stroke-width="2" stroke-linecap="round" stroke-linejoin="round"/>
<path d="M97.3225 27.1199V22.3099H92.3015" stroke="#3C3F40" stroke-width="2" stroke-linecap="round" stroke-linejoin="round"/>
<path d="M36.6015 15.0639V18.0379C34.6921 16.1234 32.4234 14.605 29.9256 13.5697C27.4277 12.5344 24.75 12.0027 22.0461 12.0051C19.3422 12.0075 16.6654 12.544 14.1694 13.5837C11.6735 14.6235 9.40744 16.146 7.5015 18.0639V15.0639C7.50731 11.5049 8.9237 8.09335 11.4403 5.57675C13.9569 3.06015 17.3685 1.64376 20.9275 1.63794H23.2015C26.7579 1.6443 30.1665 3.06169 32.6789 5.57892C35.1913 8.09615 36.602 11.5075 36.6015 15.0639Z" stroke="#3C3F40" stroke-width="2" stroke-linecap="round" stroke-linejoin="round"/>
<path d="M22.0635 53.1599C24.7651 53.1667 27.4412 52.6373 29.9367 51.6024C32.4322 50.5675 34.6976 49.0476 36.6015 47.1309V66.9379C36.6015 70.494 35.1905 73.9049 32.6782 76.4217C30.1659 78.9385 26.7576 80.3556 23.2015 80.3619H20.9275C17.3688 80.3561 13.9576 78.94 11.441 76.4238C8.92446 73.9077 7.50784 70.4966 7.5015 66.9379V47.1019C9.40651 49.0259 11.6748 50.5521 14.1746 51.5921C16.6744 52.6321 19.356 53.165 22.0635 53.1599V53.1599Z" stroke="#3C3F40" stroke-width="2" stroke-linecap="round" stroke-linejoin="round"/>
<path d="M42.6255 32.598C42.6264 35.958 41.8063 39.2672 40.2365 42.238C39.2804 44.0455 38.0528 45.6956 36.5965 47.131C33.7191 50.0095 30.0526 51.97 26.0609 52.7645C22.0691 53.5591 17.9314 53.1521 14.171 51.5949C10.4106 50.0377 7.19646 47.4003 4.9351 44.0162C2.67374 40.6322 1.46674 36.6535 1.46674 32.5835C1.46674 28.5134 2.67374 24.5348 4.9351 21.1507C7.19646 17.7667 10.4106 15.1293 14.171 13.5721C17.9314 12.0149 22.0691 11.6078 26.0609 12.4024C30.0526 13.197 33.7191 15.1575 36.5965 18.036C38.0353 19.4796 39.2522 21.1286 40.2075 22.929C41.7999 25.9027 42.6307 29.2247 42.6255 32.598V32.598Z" stroke="#3C3F40" stroke-width="2" stroke-linecap="round" stroke-linejoin="round"/>
<path d="M22.0635 47.139C30.0981 47.139 36.6115 40.6256 36.6115 32.591C36.6115 24.5563 30.0981 18.043 22.0635 18.043C14.0289 18.043 7.5155 24.5563 7.5155 32.591C7.5155 40.6256 14.0289 47.139 22.0635 47.139Z" stroke="#3C3F40" stroke-width="2" stroke-linecap="round" stroke-linejoin="round"/>
<path d="M16.4005 29.404C17.4322 29.404 18.2685 28.5676 18.2685 27.536C18.2685 26.5043 17.4322 25.668 16.4005 25.668C15.3688 25.668 14.5325 26.5043 14.5325 27.536C14.5325 28.5676 15.3688 29.404 16.4005 29.404Z" stroke="#3C3F40" stroke-width="2" stroke-linecap="round" stroke-linejoin="round"/>
</svg>
