<svg width="106" height="92" viewBox="0 0 106 92" fill="none" xmlns="http://www.w3.org/2000/svg">
<path d="M93.0691 52.2303C93.0719 56.3921 91.8382 60.4611 89.524 63.923C87.2098 67.3849 83.919 70.0841 80.0679 71.6794C76.2168 73.2746 71.9782 73.6941 67.8881 72.885C63.7981 72.0759 60.0403 70.0744 57.0899 67.1336C54.1395 64.1929 52.129 60.4449 51.3127 56.3637C50.4965 52.2825 50.911 48.0514 52.5039 44.2054C54.0969 40.3593 56.7967 37.0711 60.262 34.7565C63.7273 32.442 67.8023 31.205 71.972 31.202C74.7411 31.1982 77.4839 31.7394 80.0433 32.7944C82.6028 33.8495 84.9287 35.3978 86.8882 37.3509C88.8476 39.3039 90.402 41.6233 91.4626 44.1765C92.5232 46.7296 93.0691 49.4664 93.0691 52.2303V52.2303Z" stroke="#3C3F40" stroke-width="2" stroke-linecap="round" stroke-linejoin="round"/>
<path d="M99.1798 18.1899H25.1794V86.2661H99.1798C100.722 86.2614 102.199 85.6478 103.29 84.5594C104.38 83.471 104.994 81.9962 104.999 80.4571V23.999C104.994 22.4599 104.38 20.9851 103.29 19.8967C102.199 18.8083 100.722 18.1947 99.1798 18.1899ZM100.46 52.2305C100.458 58.564 98.3371 64.7155 94.434 69.7092C90.531 74.7028 85.0692 78.2528 78.9149 79.7959C72.7606 81.339 66.2663 80.7868 60.4622 78.227C54.6581 75.6673 49.8765 71.2464 46.8759 65.6658C43.8753 60.0852 42.8275 53.6643 43.8988 47.4218C44.9701 41.1792 48.0991 35.4724 52.7894 31.2066C57.4797 26.9408 63.4628 24.3603 69.7896 23.8745C76.1164 23.3886 82.4246 25.0252 87.7135 28.5246C91.6348 31.1176 94.8512 34.6398 97.0755 38.7766C99.2997 42.9133 100.462 47.5357 100.46 52.2305V52.2305Z" stroke="#3C3F40" stroke-width="2" stroke-linecap="round" stroke-linejoin="round"/>
<path d="M56.2282 75.9304H25.1794V28.5245H29.8645C29.8841 29.9945 30.483 31.3975 31.5314 32.4301C32.5798 33.4626 33.9934 34.0415 35.4662 34.0415C36.9391 34.0415 38.3527 33.4626 39.4011 32.4301C40.4495 31.3975 41.0483 29.9945 41.068 28.5245H56.2282C52.317 31.1242 49.1097 34.6479 46.8914 38.7826C44.6731 42.9172 43.5123 47.5348 43.5123 52.225C43.5123 56.9152 44.6731 61.5327 46.8914 65.6674C49.1097 69.8021 52.317 73.3258 56.2282 75.9254V75.9304Z" stroke="#3C3F40" stroke-width="2" stroke-linecap="round" stroke-linejoin="round"/>
<path d="M93.0691 52.2303C93.0719 56.3921 91.8382 60.4611 89.524 63.923C87.2098 67.3849 83.919 70.0841 80.0679 71.6794C76.2168 73.2746 71.9782 73.6941 67.8881 72.885C63.7981 72.0759 60.0403 70.0744 57.0899 67.1336C54.1395 64.1929 52.129 60.4449 51.3127 56.3637C50.4965 52.2825 50.911 48.0514 52.5039 44.2054C54.0969 40.3593 56.7967 37.0711 60.262 34.7565C63.7273 32.442 67.8023 31.205 71.972 31.202C74.7411 31.1982 77.4839 31.7394 80.0433 32.7944C82.6028 33.8495 84.9287 35.3978 86.8882 37.3509C88.8476 39.3039 90.402 41.6233 91.4626 44.1765C92.5232 46.7296 93.0691 49.4664 93.0691 52.2303V52.2303Z" stroke="#3C3F40" stroke-width="2" stroke-linecap="round" stroke-linejoin="round"/>
<path d="M105 28.5245V75.9304H87.7146C91.6338 73.3367 94.8489 69.815 97.073 65.6796C99.2971 61.5442 100.461 56.9236 100.461 52.23C100.461 47.5364 99.2971 42.9158 97.073 38.7803C94.8489 34.6449 91.6338 31.1233 87.7146 28.5295L105 28.5245Z" stroke="#3C3F40" stroke-width="2" stroke-linecap="round" stroke-linejoin="round"/>
<path d="M20.4166 13.4597H5.74998C3.12664 13.4597 1 15.5823 1 18.2007V86.2589C1 88.8773 3.12664 90.9999 5.74998 90.9999H20.4166C23.0399 90.9999 25.1666 88.8773 25.1666 86.2589V18.2007C25.1666 15.5823 23.0399 13.4597 20.4166 13.4597Z" stroke="#3C3F40" stroke-width="2" stroke-linecap="round" stroke-linejoin="round"/>
<path d="M19.0379 8.45654H7.12793V13.4598H19.0379V8.45654Z" stroke="#3C3F40" stroke-width="2" stroke-linecap="round" stroke-linejoin="round"/>
<path d="M41.0661 28.5246C41.069 29.6306 40.7433 30.7126 40.1302 31.6338C39.517 32.555 38.6439 33.274 37.6213 33.6999C36.5987 34.1258 35.4726 34.2395 34.3852 34.0266C33.2979 33.8137 32.2982 33.2837 31.5127 32.5037C30.7272 31.7236 30.191 30.7287 29.972 29.6445C29.7531 28.5603 29.8612 27.4357 30.2826 26.4129C30.704 25.39 31.4199 24.5149 32.3397 23.8981C33.2594 23.2814 34.3418 22.9507 35.4498 22.9479C36.1857 22.9452 36.9149 23.0873 37.5956 23.3662C38.2764 23.6452 38.8953 24.0554 39.417 24.5734C39.9387 25.0914 40.3529 25.707 40.6359 26.3851C40.9188 27.0631 41.065 27.7901 41.0661 28.5246V28.5246Z" stroke="#3C3F40" stroke-width="2" stroke-linecap="round" stroke-linejoin="round"/>
<path d="M87.7136 28.5245C82.4236 25.0235 76.1137 23.3859 69.7851 23.8715C63.4564 24.3572 57.4715 26.9382 52.7798 31.2051C48.088 35.4721 44.9582 41.1806 43.8868 47.425C42.8155 53.6694 43.864 60.092 46.8659 65.674C49.8678 71.256 54.6514 75.6776 60.4575 78.2373C66.2636 80.797 72.7599 81.3482 78.9157 79.8036C85.0714 78.2589 90.5341 74.7067 94.437 69.7107C98.34 64.7146 100.46 58.5608 100.46 52.2255C100.473 47.5294 99.3148 42.9039 97.0896 38.7662C94.8644 34.6285 91.6422 31.1088 87.7136 28.5245V28.5245ZM71.971 73.2588C67.805 73.2533 63.7342 72.0152 60.2731 69.7011C56.8119 67.3869 54.1158 64.1006 52.5254 60.2575C50.9351 56.4143 50.5219 52.1869 51.3381 48.1094C52.1543 44.032 54.1632 40.2875 57.111 37.3493C60.0588 34.4112 63.8131 32.4112 67.8994 31.6021C71.9858 30.7931 76.2207 31.2113 80.0689 32.8039C83.9171 34.3966 87.206 37.0921 89.5197 40.5499C91.8335 44.0076 93.0683 48.0724 93.0681 52.2305C93.0689 54.9946 92.5235 57.7318 91.4632 60.2853C90.4029 62.8388 88.8485 65.1585 86.8889 67.1117C84.9293 69.0649 82.603 70.6132 80.0432 71.668C77.4834 72.7228 74.7403 73.2634 71.971 73.2588V73.2588Z" stroke="#3C3F40" stroke-width="2" stroke-linecap="round" stroke-linejoin="round"/>
<path d="M93.0691 52.2303C93.0719 56.3921 91.8382 60.4611 89.524 63.923C87.2098 67.3849 83.919 70.0841 80.0679 71.6794C76.2168 73.2746 71.9782 73.6941 67.8881 72.885C63.7981 72.0759 60.0403 70.0744 57.0899 67.1336C54.1395 64.1929 52.129 60.4449 51.3127 56.3637C50.4965 52.2825 50.911 48.0514 52.5039 44.2054C54.0969 40.3593 56.7967 37.0711 60.262 34.7565C63.7273 32.442 67.8023 31.205 71.972 31.202C74.7411 31.1982 77.4839 31.7394 80.0433 32.7944C82.6028 33.8495 84.9287 35.3978 86.8882 37.3509C88.8476 39.3039 90.402 41.6233 91.4626 44.1765C92.5232 46.7296 93.0691 49.4664 93.0691 52.2303V52.2303Z" stroke="#3C3F40" stroke-width="2" stroke-linecap="round" stroke-linejoin="round"/>
<path d="M93.0691 52.2303C93.0719 56.3921 91.8382 60.4611 89.524 63.923C87.2098 67.3849 83.919 70.0841 80.0679 71.6794C76.2168 73.2746 71.9782 73.6941 67.8881 72.885C63.7981 72.0759 60.0403 70.0744 57.0899 67.1336C54.1395 64.1929 52.129 60.4449 51.3127 56.3637C50.4965 52.2825 50.911 48.0514 52.5039 44.2054C54.0969 40.3593 56.7967 37.0711 60.262 34.7565C63.7273 32.442 67.8023 31.205 71.972 31.202C74.7411 31.1982 77.4839 31.7394 80.0433 32.7944C82.6028 33.8495 84.9287 35.3978 86.8882 37.3509C88.8476 39.3039 90.402 41.6233 91.4626 44.1765C92.5232 46.7296 93.0691 49.4664 93.0691 52.2303V52.2303Z" stroke="#3C3F40" stroke-width="2" stroke-linecap="round" stroke-linejoin="round"/>
<path d="M59.3326 52.2304C59.3325 50.572 59.6597 48.9298 60.2955 47.3976C60.9313 45.8654 61.8632 44.4732 63.0381 43.3005C64.213 42.1278 65.6078 41.1976 67.143 40.5631C68.6781 39.9285 70.3234 39.6019 71.9849 39.6021" stroke="#3C3F40" stroke-width="2" stroke-linecap="round" stroke-linejoin="round"/>
<path d="M92.05 18.1998H51.9199L56.6709 5.7001C57.1956 4.31809 58.1294 3.12822 59.348 2.28867C60.5666 1.44912 62.0124 0.999642 63.4931 1H80.4788C81.9594 0.999566 83.405 1.44889 84.6237 2.28826C85.8423 3.12763 86.7761 4.31728 87.301 5.6991L92.05 18.1998Z" stroke="#3C3F40" stroke-width="2" stroke-linecap="round" stroke-linejoin="round"/>
<path d="M64.2225 6.79102H79.7464" stroke="#3C3F40" stroke-width="2" stroke-linecap="round" stroke-linejoin="round"/>
</svg>
