<svg width="120" height="70" viewBox="0 0 120 70" fill="none" xmlns="http://www.w3.org/2000/svg">
<path d="M77.306 32.7322C84.1062 35.9119 89.8585 40.9652 93.8881 47.2989C97.9176 53.6327 100.057 60.9844 100.056 68.4913" stroke="#BF9D8A" stroke-width="2" stroke-linecap="round" stroke-linejoin="round"/>
<path d="M21.1334 68.4898C21.132 60.953 23.2888 53.5733 27.3486 47.2234C31.4085 40.8734 37.2016 35.8188 44.0432 32.657" stroke="#BF9D8A" stroke-width="2" stroke-linecap="round" stroke-linejoin="round"/>
<path d="M12.5435 1.5083V14.7227" stroke="#BF9D8A" stroke-width="2" stroke-linecap="round" stroke-linejoin="round"/>
<path d="M24.0878 5.62024H1" stroke="#BF9D8A" stroke-width="2" stroke-linecap="round" stroke-linejoin="round"/>
<path d="M25.8551 68.4905H16.4136" stroke="#BF9D8A" stroke-width="2" stroke-linecap="round" stroke-linejoin="round"/>
<path d="M104.778 68.4905H95.335" stroke="#BF9D8A" stroke-width="2" stroke-linecap="round" stroke-linejoin="round"/>
<path d="M32.958 22.0282H16.0081" stroke="#BF9D8A" stroke-width="2" stroke-linecap="round" stroke-linejoin="round"/>
<path d="M12.1274 14.7238H12.9606C13.7689 14.7238 14.544 15.0448 15.1155 15.6163C15.687 16.1878 16.008 16.9629 16.008 17.7711V26.2875C16.008 27.096 15.6868 27.8714 15.1151 28.4431C14.5434 29.0148 13.768 29.336 12.9595 29.336H12.1285C11.32 29.336 10.5446 29.0148 9.97288 28.4431C9.40117 27.8714 9.07999 27.096 9.07999 26.2875V17.7711C9.07999 16.9629 9.40105 16.1878 9.97254 15.6163C10.544 15.0448 11.3192 14.7238 12.1274 14.7238V14.7238Z" stroke="#BF9D8A" stroke-width="2" stroke-linecap="round" stroke-linejoin="round"/>
<path d="M107.456 1.5083V14.7227" stroke="#BF9D8A" stroke-width="2" stroke-linecap="round" stroke-linejoin="round"/>
<path d="M95.9122 5.62024H119" stroke="#BF9D8A" stroke-width="2" stroke-linecap="round" stroke-linejoin="round"/>
<path d="M87.0421 22.0282H103.992" stroke="#BF9D8A" stroke-width="2" stroke-linecap="round" stroke-linejoin="round"/>
<path d="M107.039 14.7238H107.873C108.681 14.7238 109.456 15.0448 110.027 15.6163C110.599 16.1878 110.92 16.9629 110.92 17.7711V26.2875C110.92 27.096 110.599 27.8714 110.027 28.4431C109.455 29.0148 108.68 29.336 107.871 29.336H107.039C106.639 29.336 106.243 29.2571 105.873 29.1039C105.503 28.9507 105.167 28.7261 104.884 28.443C104.601 28.1599 104.377 27.8239 104.224 27.454C104.07 27.0842 103.992 26.6878 103.992 26.2875V17.7711C103.992 16.9629 104.313 16.1878 104.884 15.6163C105.456 15.0448 106.231 14.7238 107.039 14.7238V14.7238Z" stroke="#BF9D8A" stroke-width="2" stroke-linecap="round" stroke-linejoin="round"/>
<path d="M81.7274 18.0779H81.1731C81.1731 17.273 80.8533 16.501 80.2841 15.9319C79.715 15.3627 78.9431 15.043 78.1381 15.043H41.8598C41.0549 15.043 40.2829 15.3627 39.7138 15.9319C39.1446 16.501 38.8249 17.273 38.8249 18.0779H39.4881C38.3248 18.0783 37.1938 18.4604 36.2686 19.1656C35.3434 19.8707 34.675 20.8599 34.3661 21.9814C34.0573 23.1029 34.1249 24.2948 34.5586 25.3742C34.9923 26.4536 35.7682 27.3609 36.7672 27.9569L48.9046 35.1956C49.7272 35.6867 50.6674 35.946 51.6255 35.9461H69.725C70.6907 35.9463 71.6381 35.6828 72.4651 35.1843L84.4687 27.9603C85.2537 27.4876 85.9032 26.82 86.3541 26.0222C86.805 25.2245 87.042 24.3237 87.0422 23.4074V23.3893C87.0413 21.9803 86.481 20.6293 85.4844 19.6333C84.4877 18.6374 83.1364 18.0779 81.7274 18.0779Z" stroke="#BF9D8A" stroke-width="2" stroke-linecap="round" stroke-linejoin="round"/>
<path d="M63.8037 35.9442H57.5751V45.2281H63.8037V35.9442Z" stroke="#BF9D8A" stroke-width="2" stroke-linecap="round" stroke-linejoin="round"/>
<path d="M78.1549 45.2306H43.0363V68.4918H78.1549V45.2306Z" stroke="#BF9D8A" stroke-width="2" stroke-linecap="round" stroke-linejoin="round"/>
<path d="M60.6746 63.5407C64.365 63.5407 67.3567 60.549 67.3567 56.8587C67.3567 53.1683 64.365 50.1766 60.6746 50.1766C56.9843 50.1766 53.9926 53.1683 53.9926 56.8587C53.9926 60.549 56.9843 63.5407 60.6746 63.5407Z" stroke="#BF9D8A" stroke-width="2" stroke-linecap="round" stroke-linejoin="round"/>
<path d="M48.9204 49.3187H47.1292V51.11H48.9204V49.3187Z" stroke="#BF9D8A" stroke-width="2" stroke-linecap="round" stroke-linejoin="round"/>
<path d="M43.0363 22.0282H77.3069" stroke="#BF9D8A" stroke-width="2" stroke-linecap="round" stroke-linejoin="round"/>
</svg>
