<svg width="104" height="106" viewBox="0 0 104 106" fill="none" xmlns="http://www.w3.org/2000/svg">
<path d="M69.928 65.095C69.9282 68.7321 68.8498 72.2876 66.8293 75.3118C64.8088 78.336 61.9368 80.6931 58.5766 82.0851C55.2164 83.477 51.5189 83.8413 47.9517 83.1317C44.3845 82.4222 41.1078 80.6708 38.536 78.099C35.9642 75.5272 34.2128 72.2505 33.5033 68.6833C32.7938 65.1161 33.158 61.4186 34.55 58.0584C35.9419 54.6982 38.299 51.8263 41.3232 49.8057C44.3475 47.7852 47.9029 46.7068 51.54 46.707C56.4168 46.707 61.0939 48.6443 64.5423 52.0928C67.9907 55.5412 69.928 60.2182 69.928 65.095Z" stroke="#BF9D8A" stroke-width="2" stroke-linecap="round" stroke-linejoin="round"/>
<path d="M40.504 65.095C40.504 62.168 41.6667 59.361 43.7364 57.2913C45.806 55.2217 48.6131 54.059 51.54 54.059" stroke="#BF9D8A" stroke-width="2" stroke-linecap="round" stroke-linejoin="round"/>
<path d="M45.438 36.353H57.642" stroke="#BF9D8A" stroke-width="2" stroke-linecap="round" stroke-linejoin="round"/>
<path d="M75.871 40.99H65.726L62.367 32.136C61.9958 31.1573 61.3357 30.3146 60.4742 29.72C59.6127 29.1254 58.5907 28.807 57.544 28.807H45.537C44.4901 28.8071 43.4681 29.1255 42.6064 29.7201C41.7448 30.3147 41.0845 31.1573 40.713 32.136L37.354 40.99H33.567V37.98H27.798V40.99H27.209C26.296 40.99 25.3919 41.1699 24.5483 41.5193C23.7048 41.8687 22.9384 42.3809 22.2928 43.0266C21.6473 43.6722 21.1352 44.4387 20.7859 45.2823C20.4366 46.1259 20.2569 47.03 20.257 47.943V82.248C20.257 84.0918 20.9894 85.8601 22.2932 87.1638C23.5969 88.4676 25.3652 89.2 27.209 89.2H75.871C77.7149 89.2 79.4832 88.4676 80.7871 87.1639C82.0911 85.8602 82.8237 84.0919 82.824 82.248V47.943C82.824 46.099 82.0914 44.3304 80.7875 43.0265C79.4836 41.7226 77.715 40.99 75.871 40.99V40.99Z" stroke="#BF9D8A" stroke-width="2" stroke-linecap="round" stroke-linejoin="round"/>
<path d="M18.219 1.96997C26.559 1.96997 26.559 7.31297 34.9 7.31297C43.241 7.31297 43.248 1.96997 51.59 1.96997C59.932 1.96997 59.944 7.31297 68.297 7.31297C76.65 7.31297 76.656 1.96997 85.009 1.96997" stroke="#BF9D8A" stroke-width="2" stroke-linecap="round" stroke-linejoin="round"/>
<path d="M18.219 14.213C26.559 14.213 26.559 19.556 34.9 19.556C43.241 19.556 43.248 14.213 51.595 14.213C59.942 14.213 59.949 19.556 68.302 19.556C76.655 19.556 76.656 14.213 85.009 14.213" stroke="#BF9D8A" stroke-width="2" stroke-linecap="round" stroke-linejoin="round"/>
<path d="M101.318 96.118H2.797V104.03H101.318V96.118Z" stroke="#BF9D8A" stroke-width="2" stroke-linecap="round" stroke-linejoin="round"/>
<path d="M11.451 95.87H2.79699L1.48999 52.51C1.46753 51.7563 1.59657 51.0058 1.86948 50.3029C2.14239 49.6001 2.5536 48.9591 3.07875 48.4181C3.6039 47.877 4.23231 47.4469 4.92674 47.1532C5.62117 46.8595 6.36749 46.7081 7.12149 46.7081C7.87548 46.7081 8.6218 46.8595 9.31623 47.1532C10.0107 47.4469 10.6391 47.877 11.1642 48.4181C11.6894 48.9591 12.1006 49.6001 12.3735 50.3029C12.6464 51.0058 12.7754 51.7563 12.753 52.51L11.451 95.87Z" stroke="#BF9D8A" stroke-width="2" stroke-linecap="round" stroke-linejoin="round"/>
<path d="M101.203 95.87H92.549L91.249 52.507C91.2265 51.7534 91.3556 51.0029 91.6285 50.3C91.9014 49.5971 92.3126 48.9562 92.8378 48.4151C93.3629 47.8741 93.9913 47.444 94.6857 47.1503C95.3802 46.8565 96.1265 46.7052 96.8805 46.7052C97.6345 46.7052 98.3808 46.8565 99.0752 47.1503C99.7697 47.444 100.398 47.8741 100.923 48.4151C101.448 48.9562 101.86 49.5971 102.132 50.3C102.405 51.0029 102.534 51.7534 102.512 52.507L101.203 95.87Z" stroke="#BF9D8A" stroke-width="2" stroke-linecap="round" stroke-linejoin="round"/>
</svg>
