<svg width="86" height="106" viewBox="0 0 86 106" fill="none" xmlns="http://www.w3.org/2000/svg">
<path d="M72.6518 13.5092C58.0548 2.36522 24.3698 28.4412 24.3698 28.4412C26.5698 14.0792 11.2478 15.3192 11.2478 15.3192C48.4178 -11.0928 67.0548 8.28022 72.6518 13.5092Z" stroke="#3C3F40" stroke-width="2" stroke-linecap="round" stroke-linejoin="round"/>
<path d="M72.6518 13.5092C72.6518 13.5092 45.7378 40.4242 41.0438 45.1162C41.0438 45.1162 40.6258 29.4472 24.4038 28.4412H24.3698C24.3698 28.4412 58.0548 2.36522 72.6518 13.5092Z" stroke="#3C3F40" stroke-width="2" stroke-linecap="round" stroke-linejoin="round"/>
<path d="M70.8418 74.9133C70.8418 74.9133 72.0818 59.5953 57.7028 61.7743C57.7028 61.7743 83.7958 28.1063 72.6518 13.5093C77.8808 19.1063 97.2538 37.7423 70.8418 74.9133Z" stroke="#3C3F40" stroke-width="2" stroke-linecap="round" stroke-linejoin="round"/>
<path d="M57.7028 61.7743V61.7413C56.7138 45.5353 41.0448 45.1163 41.0448 45.1163L72.6518 13.5093C83.7918 28.1063 57.7028 61.7743 57.7028 61.7743Z" stroke="#3C3F40" stroke-width="2" stroke-linecap="round" stroke-linejoin="round"/>
<path d="M77.0788 9.07922L17.9498 68.2062" stroke="#3C3F40" stroke-width="2" stroke-linecap="round" stroke-linejoin="round"/>
<path d="M38.7858 8.83423C33.6413 10.0329 28.7569 12.1549 24.3698 15.0972" stroke="#3C3F40" stroke-width="2" stroke-linecap="round" stroke-linejoin="round"/>
<path d="M14.1768 76.9222C17.0144 76.9222 19.3148 74.6219 19.3148 71.7842C19.3148 68.9466 17.0144 66.6462 14.1768 66.6462C11.3391 66.6462 9.03879 68.9466 9.03879 71.7842C9.03879 74.6219 11.3391 76.9222 14.1768 76.9222Z" stroke="#3C3F40" stroke-width="2" stroke-linecap="round" stroke-linejoin="round"/>
<path d="M14.1768 76.9222V104.247" stroke="#3C3F40" stroke-width="2" stroke-linecap="round" stroke-linejoin="round"/>
<path d="M13.2038 77.3272L1.5918 104.247" stroke="#3C3F40" stroke-width="2" stroke-linecap="round" stroke-linejoin="round"/>
<path d="M15.1488 77.3272L26.7618 104.247" stroke="#3C3F40" stroke-width="2" stroke-linecap="round" stroke-linejoin="round"/>
<path d="M14.1768 66.6462V56.4862L20.0358 50.6262" stroke="#3C3F40" stroke-width="2" stroke-linecap="round" stroke-linejoin="round"/>
<path d="M11.1358 104.247H17.2168" stroke="#3C3F40" stroke-width="2" stroke-linecap="round" stroke-linejoin="round"/>
</svg>
