<svg width="106" height="88" viewBox="0 0 106 88" fill="none" xmlns="http://www.w3.org/2000/svg">
<path d="M15.8365 33.73V68.213C15.8405 69.0594 16.0832 69.8874 16.5365 70.602H4.5655C3.80898 70.6007 3.08382 70.2996 2.54888 69.7647C2.01393 69.2297 1.71282 68.5046 1.7115 67.7481V38.361C1.71809 36.0458 2.64068 33.8272 4.27773 32.19C5.91478 30.5528 8.13324 29.6299 10.4485 29.623H16.8565C16.1924 30.8906 15.8425 32.2991 15.8365 33.73Z" stroke="#3C3F40" stroke-width="2" stroke-linecap="round" stroke-linejoin="round"/>
<path d="M104.289 38.36V67.747C104.287 68.5036 103.986 69.229 103.451 69.764C102.916 70.299 102.191 70.6 101.435 70.601H89.4645C89.9177 69.8867 90.1603 69.059 90.1645 68.213V33.729C90.1586 32.2984 89.8087 30.8902 89.1445 29.623H95.5515C97.8666 29.6299 100.085 30.5526 101.722 32.1896C103.359 33.8267 104.282 36.045 104.289 38.36V38.36Z" stroke="#3C3F40" stroke-width="2" stroke-linecap="round" stroke-linejoin="round"/>
<path d="M5.9405 64.199H11.5705" stroke="#3C3F40" stroke-width="2" stroke-linecap="round" stroke-linejoin="round"/>
<path d="M94.4305 47.472H100.06" stroke="#3C3F40" stroke-width="2" stroke-linecap="round" stroke-linejoin="round"/>
<path d="M94.4305 52.74H100.06" stroke="#3C3F40" stroke-width="2" stroke-linecap="round" stroke-linejoin="round"/>
<path d="M90.1635 33.73V68.213C90.1595 69.0594 89.9168 69.8874 89.4635 70.602C89.0604 71.2401 88.5013 71.7649 87.8391 72.127C87.1768 72.489 86.4332 72.6762 85.6785 72.671H73.2425L71.3485 60.871H34.6515C34.5935 61.221 33.6905 66.929 32.7585 72.671H20.3225C19.5677 72.6765 18.824 72.4895 18.1615 72.1276C17.4991 71.7658 16.9398 71.2411 16.5365 70.603C16.0832 69.8884 15.8405 69.0604 15.8365 68.214V33.73C15.8425 32.2991 16.1924 30.8905 16.8565 29.623C17.6085 28.2294 18.7219 27.064 20.0798 26.2493C21.4377 25.4346 22.99 25.0007 24.5735 24.993H81.4265C83.0102 25.0006 84.5626 25.4345 85.9207 26.2492C87.2788 27.0639 88.3924 28.2293 89.1445 29.623C89.8079 30.8908 90.1574 32.2992 90.1635 33.73V33.73Z" stroke="#3C3F40" stroke-width="2" stroke-linecap="round" stroke-linejoin="round"/>
<path d="M75.4225 1.67102H30.5765V24.987H75.4225V1.67102Z" stroke="#3C3F40" stroke-width="2" stroke-linecap="round" stroke-linejoin="round"/>
<path d="M35.5255 14.812V7.74805H42.8995" stroke="#3C3F40" stroke-width="2" stroke-linecap="round" stroke-linejoin="round"/>
<path d="M78.1935 53.243V72.671H73.2425L71.3485 60.871H34.6515C34.5935 61.22 33.6905 66.929 32.7585 72.671H27.8115V53.243H78.1935Z" stroke="#3C3F40" stroke-width="2" stroke-linecap="round" stroke-linejoin="round"/>
<path d="M75.4265 86.329H30.5735L30.8075 84.814C30.8935 84.436 31.8265 78.524 32.7585 72.67C33.6905 66.932 34.5935 61.224 34.6505 60.87H71.3505L73.2415 72.671L75.4265 86.329Z" stroke="#3C3F40" stroke-width="2" stroke-linecap="round" stroke-linejoin="round"/>
<path d="M31.4525 80.878C31.8117 80.0915 32.3308 79.3885 32.9768 78.8137C33.6228 78.239 34.3815 77.8052 35.2045 77.54C40.0125 75.819 41.9415 81.5 44.5765 80.821C47.5985 80.044 45.9425 73.548 50.0975 71.946C54.1915 70.367 55.9315 75.833 58.8045 74.738C61.7765 73.605 60.2625 67.39 64.0805 65.953C66.2255 65.145 69.2515 65.023 72.7355 69.741" stroke="#3C3F40" stroke-width="2" stroke-linecap="round" stroke-linejoin="round"/>
</svg>
