<svg width="100" height="106" viewBox="0 0 100 106" fill="none" xmlns="http://www.w3.org/2000/svg">
<path d="M90.2265 24.4076H1.25351V32.9276H90.2265V24.4076Z" stroke="#3C3F40" stroke-width="2" stroke-linecap="round" stroke-linejoin="round"/>
<path d="M98.7455 96.3425H9.77252V104.862H98.7455V96.3425Z" stroke="#3C3F40" stroke-width="2" stroke-linecap="round" stroke-linejoin="round"/>
<path d="M9.77251 32.9275H1.25351V104.861H9.77251V32.9275Z" stroke="#3C3F40" stroke-width="2" stroke-linecap="round" stroke-linejoin="round"/>
<path d="M98.7465 24.4076H90.2265V96.3426H98.7465V24.4076Z" stroke="#3C3F40" stroke-width="2" stroke-linecap="round" stroke-linejoin="round"/>
<path d="M21.5155 24.4086C21.5155 24.4086 39.7475 10.2245 46.9995 4.48755" stroke="#3C3F40" stroke-width="2" stroke-linecap="round" stroke-linejoin="round"/>
<path d="M52.8535 4.48755C60.1055 10.2255 78.3085 24.4086 78.3085 24.4086" stroke="#3C3F40" stroke-width="2" stroke-linecap="round" stroke-linejoin="round"/>
<path d="M45.0205 45.6505C45.0203 46.9835 44.6249 48.2865 43.8842 49.3947C43.1435 50.5029 42.0909 51.3667 40.8594 51.8767C39.6278 52.3867 38.2727 52.5201 36.9654 52.26C35.658 51.9999 34.4572 51.358 33.5146 50.4154C32.5721 49.4729 31.9302 48.272 31.6701 46.9647C31.41 45.6574 31.5434 44.3023 32.0534 43.0707C32.5634 41.8392 33.4271 40.7865 34.5354 40.0459C35.6436 39.3052 36.9466 38.9097 38.2795 38.9095C40.0674 38.9095 41.782 39.6198 43.0461 40.8839C44.3103 42.1481 45.0205 43.8627 45.0205 45.6505V45.6505Z" stroke="#3C3F40" stroke-width="2" stroke-linecap="round" stroke-linejoin="round"/>
<path d="M40.6795 81.4635L31.8535 96.2295H10.7395L30.5735 67.3385L40.6795 81.4635Z" stroke="#3C3F40" stroke-width="2" stroke-linecap="round" stroke-linejoin="round"/>
<path d="M89.6965 96.2305H73.0085L67.6535 87.1145L75.2255 76.0765L89.6965 96.2305Z" stroke="#3C3F40" stroke-width="2" stroke-linecap="round" stroke-linejoin="round"/>
<path d="M73.0085 96.2305H31.8535L40.6775 81.4645L52.5625 61.5725L67.6535 87.1145L73.0085 96.2305Z" stroke="#3C3F40" stroke-width="2" stroke-linecap="round" stroke-linejoin="round"/>
<path d="M52.8835 4.07954C52.8883 4.21618 52.8786 4.35294 52.8545 4.48753C52.7598 5.19669 52.4108 5.84734 51.8725 6.31857C51.3341 6.78979 50.643 7.04954 49.9275 7.04954C49.2121 7.04954 48.5209 6.78979 47.9826 6.31857C47.4442 5.84734 47.0953 5.19669 47.0005 4.48753C46.9765 4.35294 46.9667 4.21618 46.9715 4.07954C46.9715 3.29556 47.283 2.54368 47.8373 1.98933C48.3917 1.43497 49.1435 1.12354 49.9275 1.12354C50.7115 1.12354 51.4634 1.43497 52.0177 1.98933C52.5721 2.54368 52.8835 3.29556 52.8835 4.07954V4.07954Z" stroke="#3C3F40" stroke-width="2" stroke-linecap="round" stroke-linejoin="round"/>
<path d="M24.4005 76.3245L27.4555 78.7945L30.5055 77.7035L34.3875 79.5575L36.4875 76.2965" stroke="#3C3F40" stroke-width="2" stroke-linecap="round" stroke-linejoin="round"/>
<path d="M47.1535 70.8785L49.8165 73.0315L52.4745 72.0806L55.8575 73.6965L57.6925 70.8546" stroke="#3C3F40" stroke-width="2" stroke-linecap="round" stroke-linejoin="round"/>
<path d="M71.8255 81.7765L73.6955 83.2875L75.5615 82.6205L77.9365 83.7545L79.2245 81.7595" stroke="#3C3F40" stroke-width="2" stroke-linecap="round" stroke-linejoin="round"/>
</svg>
