<svg width="90" height="96" viewBox="0 0 90 96" fill="none" xmlns="http://www.w3.org/2000/svg">
<g clip-path="url(#clip0_210_450)">
<path d="M48.2995 25.7268H41.517V84.7292H48.2995V25.7268Z" stroke="#BF9D8A" stroke-width="2" stroke-linecap="round" stroke-linejoin="round"/>
<path d="M48.3031 84.741H41.508V89.0534H48.3031V84.741Z" stroke="#BF9D8A" stroke-width="2" stroke-linecap="round" stroke-linejoin="round"/>
<path d="M86.4563 87.06L81.1925 90.0975L48.2996 26.984V25.7251H54.5039L86.4563 87.06Z" stroke="#BF9D8A" stroke-width="2" stroke-linecap="round" stroke-linejoin="round"/>
<path d="M40.8732 25.726V27.3238L8.16729 90.0965L2.90259 87.0591L34.8532 25.726H40.8732Z" stroke="#BF9D8A" stroke-width="2" stroke-linecap="round" stroke-linejoin="round"/>
<path d="M6.66297 94.1527L1.39917 91.1207L3.54461 87.0627L8.80842 90.0947L6.66297 94.1527Z" stroke="#BF9D8A" stroke-width="2" stroke-linecap="round" stroke-linejoin="round"/>
<path d="M83.3379 94.1527L88.6008 91.1207L86.4554 87.0627L81.1924 90.0947L83.3379 94.1527Z" stroke="#BF9D8A" stroke-width="2" stroke-linecap="round" stroke-linejoin="round"/>
<path d="M58.7031 17.6055H31.1081L34.4477 25.7215H55.3626L58.7031 17.6055Z" stroke="#BF9D8A" stroke-width="2" stroke-linecap="round" stroke-linejoin="round"/>
<path d="M55.546 9.72595H34.2633V17.6055H55.546V9.72595Z" stroke="#BF9D8A" stroke-width="2" stroke-linecap="round" stroke-linejoin="round"/>
<path d="M79.7772 11.5756H68.4871V15.7559H79.7772V11.5756Z" stroke="#BF9D8A" stroke-width="2" stroke-linecap="round" stroke-linejoin="round"/>
<path d="M51.8486 1.84644H37.9608V9.72596H51.8486V1.84644Z" stroke="#BF9D8A" stroke-width="2" stroke-linecap="round" stroke-linejoin="round"/>
<path d="M55.546 13.6661H68.487" stroke="#BF9D8A" stroke-width="2" stroke-linecap="round" stroke-linejoin="round"/>
</g>
<defs>
<clipPath id="clip0_210_450">
<rect width="89" height="94.1038" fill="white" transform="translate(0.5 0.94812)"/>
</clipPath>
</defs>
</svg>
