<svg width="106" height="70" viewBox="0 0 106 70" fill="none" xmlns="http://www.w3.org/2000/svg">
<path d="M104.114 28.2725V42.3975C104.114 56.6975 81.221 68.2605 53 68.2605C24.779 68.2605 1.886 56.6985 1.886 42.3975V28.2725H1.916C2.586 42.2815 25.186 53.5235 53 53.5235C80.814 53.5235 103.414 42.2815 104.086 28.2725H104.114Z" stroke="#BF9D8A" stroke-width="2" stroke-linecap="round" stroke-linejoin="round"/>
<path d="M53 53.5165C81.2289 53.5165 104.113 41.9283 104.113 27.6335C104.113 13.3387 81.2289 1.75049 53 1.75049C24.7711 1.75049 1.887 13.3387 1.887 27.6335C1.887 41.9283 24.7711 53.5165 53 53.5165Z" stroke="#BF9D8A" stroke-width="2" stroke-linecap="round" stroke-linejoin="round"/>
<path d="M104.114 27.6315C104.119 27.8456 104.109 28.0598 104.084 28.2725C103.414 42.2815 80.813 53.5235 53 53.5235C25.187 53.5235 2.586 42.2815 1.916 28.2725C1.89105 28.0598 1.88102 27.8456 1.886 27.6315C1.886 13.3315 24.778 1.7395 53 1.7395C81.222 1.7395 104.114 13.3315 104.114 27.6315Z" stroke="#BF9D8A" stroke-width="2" stroke-linecap="round" stroke-linejoin="round"/>
<path d="M53 44.5375C75.2112 44.5375 93.217 36.9693 93.217 27.6335C93.217 18.2977 75.2112 10.7295 53 10.7295C30.7888 10.7295 12.783 18.2977 12.783 27.6335C12.783 36.9693 30.7888 44.5375 53 44.5375Z" stroke="#BF9D8A" stroke-width="2" stroke-linecap="round" stroke-linejoin="round"/>
<path d="M37.586 34.5595C30.717 33.0265 26.231 30.4955 26.231 27.6335C26.231 24.8245 30.553 22.3335 37.208 20.7935" stroke="#BF9D8A" stroke-width="2" stroke-linecap="round" stroke-linejoin="round"/>
<path d="M91.884 49.0575V54.3065" stroke="#BF9D8A" stroke-width="2" stroke-linecap="round" stroke-linejoin="round"/>
<path d="M79.568 54.3065V59.5555" stroke="#BF9D8A" stroke-width="2" stroke-linecap="round" stroke-linejoin="round"/>
<path d="M67.252 56.9305V62.1795" stroke="#BF9D8A" stroke-width="2" stroke-linecap="round" stroke-linejoin="round"/>
<path d="M54.936 58.7655V64.0145" stroke="#BF9D8A" stroke-width="2" stroke-linecap="round" stroke-linejoin="round"/>
<path d="M42.62 57.8315V63.0805" stroke="#BF9D8A" stroke-width="2" stroke-linecap="round" stroke-linejoin="round"/>
<path d="M30.304 55.7655V61.0145" stroke="#BF9D8A" stroke-width="2" stroke-linecap="round" stroke-linejoin="round"/>
<path d="M17.988 50.8915V56.1405" stroke="#BF9D8A" stroke-width="2" stroke-linecap="round" stroke-linejoin="round"/>
</svg>
