<svg width="34" height="34" viewBox="0 0 34 34" fill="none" xmlns="http://www.w3.org/2000/svg">
<g clip-path="url(#clip0_210_57)">
<path d="M17.484 0.671021C14.2175 0.671021 11.0243 1.63967 8.30823 3.45447C5.59218 5.26927 3.47529 7.84872 2.22523 10.8666C0.975174 13.8845 0.648102 17.2053 1.28538 20.4091C1.92265 23.6129 3.49565 26.5558 5.80545 28.8656C8.11525 31.1754 11.0581 32.7484 14.2619 33.3857C17.4657 34.0229 20.7865 33.6959 23.8044 32.4458C26.8223 31.1958 29.4018 29.0789 31.2166 26.3628C33.0314 23.6468 34 20.4536 34 17.187C34 12.8067 32.26 8.6058 29.1626 5.50844C26.0653 2.41109 21.8643 0.671021 17.484 0.671021M25.784 14.056C25.792 14.2267 25.7957 14.3984 25.795 14.571C25.7958 16.6035 25.2496 18.5987 24.2137 20.3473C23.1778 22.0959 21.6903 23.5335 19.9074 24.5092C18.1245 25.485 16.1119 25.9629 14.0806 25.8928C12.0494 25.8227 10.0745 25.2073 8.36303 24.111C8.67834 24.1479 8.99556 24.1663 9.31303 24.166C11.1054 24.1701 12.8471 23.5714 14.258 22.466C13.4271 22.4505 12.6218 22.1756 11.9548 21.6798C11.2878 21.184 10.7925 20.4922 10.538 19.701C11.1353 19.8164 11.7511 19.7932 12.338 19.633C11.4375 19.451 10.6276 18.9634 10.0455 18.2526C9.46346 17.5418 9.14496 16.6517 9.14402 15.733C9.14402 15.716 9.14402 15.699 9.14402 15.682C9.69544 15.9901 10.3127 16.1616 10.944 16.182C10.1011 15.6191 9.50433 14.7561 9.27527 13.7686C9.0462 12.7812 9.20202 11.7436 9.71103 10.867C10.7107 12.0973 11.958 13.1035 13.3719 13.8202C14.7859 14.5369 16.3348 14.9481 17.918 15.027C17.7189 14.1732 17.807 13.2776 18.1687 12.479C18.5303 11.6804 19.1452 11.0233 19.9182 10.6097C20.6911 10.196 21.5789 10.0489 22.444 10.1911C23.3091 10.3332 24.1031 10.7568 24.703 11.396C25.5945 11.2203 26.4495 10.8936 27.231 10.43C26.9328 11.3511 26.3107 12.1328 25.48 12.63C26.2691 12.5365 27.0397 12.3251 27.766 12.003C27.2317 12.8028 26.5592 13.5011 25.78 14.065" fill="#3C3F40"/>
</g>
<defs>
<clipPath id="clip0_210_57">
<rect width="33.032" height="33.032" fill="white" transform="translate(0.968018 0.671021)"/>
</clipPath>
</defs>
</svg>
