<svg xmlns="http://www.w3.org/2000/svg" width="105.688" height="99.628" viewBox="0 0 105.688 99.628">
  <path id="Path_2" data-name="Path 2" d="M107.3,97.161a5.441,5.441,0,0,0,.894-2.657c.447-2.771.158-3.63-1.833-5.393-1.648-1.464-2.613-1.552-5.656-.517-1.122.377-1.99.842-1.964,1.026s-.245.281-.649.21c-.964-.184-6.34,2.28-5.91,2.718.289.281,2.543-.412,2.937-.9a.716.716,0,0,1,.456-.237c.175-.026.649-.14,1.087-.263.745-.211.754-.2.149.263a2.331,2.331,0,0,1-.956.491,16.628,16.628,0,0,0-4.121,1.947.338.338,0,0,1-.666-.088c0-.167.324-.438.693-.579.658-.245.666-.281.14-.482-.623-.246-.623-.246-4.972,1.833a11.915,11.915,0,0,0-3.016,1.745c0,.438.184.4,1.491-.272a36.811,36.811,0,0,1,3.92-1.727c1.307-.526,1.868-.482.719.053-4.323,1.99-5.138,2.42-5.007,2.63.088.14-.035.175-.281.079-.438-.167-5.2,2.78-5.2,3.218,0,.482,1.35.342,1.78-.184.228-.281.333-.324.21-.1-.158.324-.079.386.333.237a2.858,2.858,0,0,1,.868-.2c.184,0,.246-.088.14-.193-.377-.377.561-.991,1.087-.71.342.175.6.167.719-.035a.328.328,0,0,1,.465-.14c.158.1.544-.088.886-.43s.71-.517.842-.4.158-.018.07-.272c-.114-.36.1-.465.965-.465.842,0,1.1-.114,1.026-.465s.009-.368.281-.1c.482.474,1.535.158,1.315-.4-.175-.465.386-.6.658-.149.219.351,2.973-.658,2.973-1.1,0-.491,1.175-.737,1.35-.281a1.036,1.036,0,0,1-.132.815c-.693,1.087-.167,1.184.868.149,1.087-1.087,2.043-1.42,2.4-.833.1.158-.061.219-.368.14-.377-.105-1.561.886-3.884,3.244-1.841,1.868-3.341,3.464-3.341,3.542a22.136,22.136,0,0,1-2.026,2.227,13.143,13.143,0,0,0-2.026,2.376c0,.544.693.316.842-.281a1.741,1.741,0,0,1,.982-.929l.824-.342-.7.588a2.2,2.2,0,0,0-.7.877,6.581,6.581,0,0,1-2.017,2.289c-.526.395-.561.395-.324-.018a7.553,7.553,0,0,1,.693-.982c.351-.4.359-.561.07-.745-.219-.14-.289-.1-.158.105s-.061.491-.438.693c-1.236.658-10.619,12.837-15.485,20.115-4.393,6.559-6.033,9.417-5.647,9.882.237.3.193.395-.184.359-.3-.026-.807.517-1.245,1.324a9.375,9.375,0,0,1-1.1,1.71c-.631.579,2.289-4.761,4.928-8.988a220.706,220.706,0,0,1,13.451-18.817c2.3-2.92,4.332-5.55,4.5-5.84a3.119,3.119,0,0,1,.614-.745c.175-.132.228-.281.14-.377-.263-.263-1.1.588-3.6,3.7a208.776,208.776,0,0,0-19.808,28.857l-.851,1.491-.684-.868c-2.473-3.174-3.8-3.92-7.278-4.042-2.052-.079-2.622,0-2.771.359a.5.5,0,0,1-.666.263c-.342-.132-.412-.07-.237.219s.114.351-.263.211c-.281-.1-.509-.026-.509.158a1.218,1.218,0,0,1-.517.719c-.342.246-.395.447-.167.588.193.123.6-.044.947-.386s.658-.552.728-.482c.272.272,2.113-.561,1.92-.868-.132-.228-.053-.246.228-.079.649.4,1.464.473,1.675.14.114-.184.482-.123.921.167.5.333.789.386.921.175.351-.561.772-.377.982.43.105.438.316.8.474.816l.666.07c.219.026.438.333.5.675.149.833.649,1.429,1.008,1.21.184-.105.088-.438-.21-.78-.281-.307-.43-.693-.316-.807.228-.228.167-.307,1.254,1.771l.894,1.71-.868-.772-.877-.78.517.78c.728,1.078.658,1.456-.772,4.533-1.061,2.306-3.692,8.935-3.692,9.33,0,.079.114.123.281.123.149,0,.377-.4.491-.868.263-1.087,3.884-9.751,4.235-10.136.588-.64.254.5-.8,2.771a17.324,17.324,0,0,0-1.1,2.744,1.167,1.167,0,0,1-.3.7,97.526,97.526,0,0,0-3.551,10.54,34.692,34.692,0,0,0-1.149,8.707c.026,2.806.07,3.227.465,3.893.167.281.018.228-.395-.131-.491-.438-.666-.474-.658-.149,0,.491.605,1.561.605,1.087.009-.175.21-.035.474.342.447.614.6.64,2.867.438.772-.07,1.982-1.473,1.762-2.061-.158-.4-.079-.509.254-.386s.7-.359,1.35-1.815c1.035-2.332,1.228-3.122.64-2.639-.307.254-.368.149-.263-.438.079-.438.272-.78.43-.78.184,0,.228.123.114.307s-.079.316.1.316c.43,0,1.394-3.849.991-3.981s-.4-.9,0-1.149c.184-.114.228.026.105.342-.132.342-.088.456.114.333.333-.2.623-1.359.886-3.569.105-.842.053-1.026-.175-.684-.245.368-.307.307-.307-.281,0-1.385-.359-.4-.929,2.552-.307,1.6-1,4.305-1.526,5.98a26,26,0,0,0-.965,3.639c0,.316-.149.491-.316.395-.175-.114-.307-.053-.307.14a4.9,4.9,0,0,1-.026.544c-.026.281-.912.807-1.5.9a1.408,1.408,0,0,0-.763.552c-.324.456-.43.43-1.175-.263-.474-.43-.912-.675-1.017-.57s-.184-.035-.184-.316c0-.307.175-.43.465-.316.658.254.561-.281-.158-.9-.772-.666-.877-2.517-.123-2.227.342.132.368.3.105.614-.412.5-.14,1.5.333,1.21a.552.552,0,0,0,.184-.649c-.088-.246-.044-.43.1-.43.3,0,.245-.965-.079-1.5a.41.41,0,0,0-.526-.2c-.158.1-.3-.351-.3-.973,0-1.245.228-1.315.412-.132.061.412.272.807.456.868.351.114.289-.868-.088-1.482-.114-.184.009-.316.289-.316.368,0,.438-.184.3-.78-.123-.526-.053-.772.237-.772.333,0,.324-.061-.053-.316-.342-.228-.36-.307-.061-.307.237,0,.377-.237.324-.544a2.286,2.286,0,0,1,.272-1.166,3.385,3.385,0,0,0,.342-.78,13.043,13.043,0,0,1,.307-1.324,6.708,6.708,0,0,0,.2-2.113c-.061-.526.026-.859.184-.763.175.114.219-.009.114-.289s-.307-.412-.465-.316-.281.018-.281-.167c0-.438.4-.4.868.061.377.377.517.026.395-.964-.035-.246.088-.316.316-.175.272.175.316.079.158-.324-.114-.307-.079-.649.1-.763A2.966,2.966,0,0,0,59.2,152.4c.246-1.491.395-1.78.824-1.526.184.114.158-.105-.061-.509-.36-.684-.386-.675-.947.509-.307.658-.579,1.052-.588.868a3.924,3.924,0,0,1,.4-1.236c.228-.5.561-1.254.745-1.684l.324-.78-.044.9c-.026.5.123.965.342,1.043.246.088.386-.158.386-.684s.132-.745.36-.605.272.079.105-.175a.458.458,0,0,1,.175-.649.464.464,0,0,1,.666.105c.2.3.254.3.254-.009a.354.354,0,0,1,.307-.395c.175,0,.316.263.316.605a1.009,1.009,0,0,0,.272.78c.158.1.237-.4.175-1.149-.088-1.061-.061-1.14.123-.386.421,1.745.587.307.21-1.868-.351-1.99-.333-2.227.193-2.736.316-.307.5-.7.4-.859s-.026-.289.158-.289.324-.211.324-.456a2.935,2.935,0,0,1,.8-1.307c.43-.465.719-1.035.631-1.254s-.035-.412.1-.412a9.931,9.931,0,0,0,2.043-3.227,3.458,3.458,0,0,1,.868-1.245c.833-.877,1-1.254.859-1.9-.044-.184.026-.219.167-.088.123.114,1.333-1.4,2.674-3.358,2.9-4.244,6-8.365,10.68-14.24,1.885-2.368,3.437-4.419,3.464-4.577s.061-.395.079-.57a7.98,7.98,0,0,1,1.359-1.7c2.192-2.3,2.359-2.543,1.9-2.867-.237-.175-.281-.482-.105-.894.254-.587.263-.587.281.061s.947,1.052.947.412c0-.5,1.3-1.561,1.648-1.35.193.123.237.009.123-.3-.123-.324.035-.57.438-.7.491-.167.544-.289.245-.658-.2-.246-.245-.412-.088-.368.465.14,1.7-.666,1.508-.982-.1-.158.123-.228.491-.158.658.123.658.114.105-.491-.6-.666-.395-.763.535-.254.4.21.587.21.587-.009,0-.175.219-.333.465-.333s.456-.114.43-.246c-.1-.684.14-1,.754-1,.561,0,.605-.053.219-.307-.4-.263-.386-.307.079-.307.307,0,.544-.175.544-.412,0-.623,3.323-3.236,3.665-2.885.219.21.149.465-2.1,8.085-1.473,5.007-1.859,7.243-1.342,7.769a1.079,1.079,0,0,1,.237.605c0,.193.377.324.807.281a1.691,1.691,0,0,1,1.368.544c.535.6.6.6,1.157.1s2.771-7.216,3.157-9.575a9.859,9.859,0,0,1,.474-1.561c.631-1.578.64-1.648.254-1.806C106.878,97.626,106.922,97.459,107.3,97.161ZM63.044,159.4c.158,0,.21.281.132.623s-.219.623-.281.623-.123-.281-.123-.623S62.9,159.4,63.044,159.4Zm-.4,1.648a.629.629,0,0,1,.035.587c-.1.254-.167.184-.193-.184C62.474,161.136,62.545,160.952,62.641,161.049Zm-.623,3.1c.07.07-.009.473-.167.877s-.307.57-.316.368C61.51,164.907,61.861,163.995,62.018,164.153Zm-1.429,4.577a.292.292,0,0,1,.316.307.311.311,0,1,1-.623,0A.29.29,0,0,1,60.589,168.73Zm-5.533-4.121c-.088.465-.219.666-.3.447-.14-.4.088-1.306.333-1.306C55.153,163.749,55.144,164.144,55.056,164.609Zm.78-4.218c-.1.254-.167.193-.193-.184-.018-.307.061-.5.158-.4A.629.629,0,0,1,55.837,160.391Zm.745-2.639c-.281.509-.316.5-.324-.1-.018-.71.368-1.271.535-.772A1.424,1.424,0,0,1,56.582,157.752Zm3.744-10.093c-.3.307-.342.263-.184-.167.114-.316.281-.491.386-.395S60.545,147.44,60.326,147.659Zm.605-1.008c-.149,0-.21-.281-.123-.623s.21-.623.281-.623.123.281.123.623S61.089,146.651,60.931,146.651Zm.745-3.718c-.377.324-.43.3-.263-.14s.737-.728.737-.368A1.748,1.748,0,0,1,61.676,142.933Zm.8,4.34a.306.306,0,0,1-.324-.316c0-.184.053-.307.132-.307s.219.123.333.307S62.658,147.273,62.474,147.273Zm.649-5.208c-.3.3-.342.263-.184-.175.114-.307.281-.482.386-.386S63.342,141.846,63.123,142.065Zm28.7-39.493c-.509.561-.947,1.07-.991,1.14s-.079,0-.079-.193a4.786,4.786,0,0,1,1.771-1.955C92.647,101.563,92.331,102.01,91.823,102.571Zm2.534-2.639c-.517.509-.535.491-.184-.193.21-.4.456-.64.561-.544S94.672,99.625,94.357,99.932Z" transform="matrix(0.588, 0.809, -0.809, 0.588, 113.101, -90.968)" fill="#ff7d44"/>
</svg>
