<svg xmlns="http://www.w3.org/2000/svg" width="139.141" height="33.352" viewBox="0 0 139.141 33.352">
  <path id="arrow" d="M32.989,55.33c-.217,0-.217.269.021.714a.892.892,0,0,1-.176,1.284c-.373.362-.424.569-.155.569.238,0,.331.238.228.528a.671.671,0,0,0,.2.787c.279.176.321,1.139.135,3.054-.155,1.542-.28,3.24-.28,3.8s-.124,1-.279,1-.2.476-.1,1.066a3.632,3.632,0,0,1-.311,1.925,3.575,3.575,0,0,0-.393,1.843,1.571,1.571,0,0,1-.735,1.553c-.663.476-.694.59-.2.59s.58.207.4,1.015a2.9,2.9,0,0,1-.694,1.377,1.977,1.977,0,0,0-.466,1.429,2.015,2.015,0,0,1-.528,1.47.855.855,0,0,0-.383.859c.083.259-.021.455-.238.455-.642,0-.487-1.014.217-1.418.362-.207.5-.383.29-.383-1.066-.021-1.925,1.6-1.025,1.946.5.2.507.321.052.87A10.166,10.166,0,0,0,27.544,83.3a20.165,20.165,0,0,1-2.826,3.3c-2.06,2.039-2.308,2.443-2.153,3.416.1.6.248,2.66.331,4.534a17.61,17.61,0,0,0,.373,3.634c.114.1.021.435-.186.694s-.248.5-.072.5.279.932.217,2.112c-.062,1.149-.176,3.354-.248,4.865a53.171,53.171,0,0,1-5.569,22.06A12.5,12.5,0,0,1,15.888,131a4.12,4.12,0,0,0-.921,1.232c-.352.621-.8,1.056-1.025,1s-.3.093-.166.311-.4,1.066-1.18,1.874c-2.754,2.867-6.159,4.234-8.82,3.54a3.071,3.071,0,0,1-1.408-.673c-.321-.528.849-.88,1.408-.424,1.325,1.108,4.762-.528,7.215-3.426.87-1.035,1.988-2.329,2.526-2.94a4.324,4.324,0,0,0,.921-1.284c-.031-.114.072-.145.259-.093s.228-.135.124-.424a5.2,5.2,0,0,1,.7-2.277c2.857-5.652,4.327-12.588,5.435-25.662.041-.4.186.259.321,1.47.186,1.584.259.807.238-2.754-.01-4.068-.052-4.462-.238-2.195-.28,3.344-.3,3.261-.725-2.867a44.344,44.344,0,0,0-.507-5.083,4.876,4.876,0,0,0-1.853.259,12.943,12.943,0,0,1-7.267-.549c-3.4-1.646-5.7-4.689-7.474-9.865C1.685,74.968,1.913,70.019,4.035,68c3.012-2.888,9.089-.228,13.012,5.683,1.781,2.681,3.261,5.973,2.867,6.387-.1.114-.01.217.207.217.238,0,.435.29.455.663.041,1.315,1.335,4.658,1.812,4.658.455,0,3.623-3.747,3.654-4.327a24.011,24.011,0,0,1,1.077-2.557,25.481,25.481,0,0,0,1.522-4.42c.311-1.429.621-2.07.942-1.946.476.186,1.149-2.557.735-2.971-.124-.124-.228.176-.228.663a3.127,3.127,0,0,1-.352,1.429c-.455.714-.445.518.031-2.609a44.234,44.234,0,0,0,.642-6.273c.041-1.035.176-1.315.559-1.159.414.155.538-.352.642-2.474.114-2.464-.217-7.878-.362-5.911-.031.435-.207.807-.383.807s-.445-1.47-.59-3.23A78.615,78.615,0,0,0,27.4,36.013a8.982,8.982,0,0,1-.7-2.857c.1-.114,0-.228-.217-.228s-.424-.331-.424-.735-.135-.725-.29-.725c-.455,0-1.211-2.433-.963-3.085.124-.331.041-.59-.2-.59a.219.219,0,0,0-.2.362c.124.228.135.373.01.373a5.524,5.524,0,0,1-.983-1.563,22.5,22.5,0,0,0-1.687-2.733c-.507-.663-.807-1.325-.683-1.522s-.041-.445-.331-.549a.923.923,0,0,1-.549-.756,1.291,1.291,0,0,0-.714-.942,1.093,1.093,0,0,1-.59-1.077c.083-.476-.062-.683-.476-.642a.555.555,0,0,1-.611-.59,5,5,0,0,0-1.429-2.019c-1.4-1.346-2.226-2.826-1.884-3.364.083-.135-.28-.248-.828-.238-.994.01-1.346.694-.776,1.491a7.768,7.768,0,0,1,.538,2.226c.124.983.311,2.319.393,2.919.383,2.567.435,4.213.135,4.4-.373.228-.041,1.367.518,1.739.228.166-.072.3-.7.321l-1.1.031.994.362c.963.342,1.149,1.035.549,2.029-.166.259-.135.476.052.476.207,0,.248.4.093.994-.269,1.025-1.47,1.48-1.957.725-.217-.331-.28-.321-.28.041,0,.259-.135.393-.3.3-.507-.321-.476-6.4.041-6.532.3-.083.373-.7.217-1.956l-.217-1.832-.093,1.646c-.083,1.4-.135,1.511-.373.735-.58-1.9-.776-3.665-.414-3.665.207,0,.435.269.528.642.1.4.176.269.207-.352.021-.735-.1-.942-.5-.787-.352.135-.6-.093-.714-.642-.455-2.2-1.687-8.3-1.8-8.954A61.5,61.5,0,0,0,6.4,1.21C6.178.662,6.251.569,6.727.734c.4.155.611.031.611-.342,0-.393.2-.487.642-.3A8.681,8.681,0,0,0,9.625.538c.559.093,1.014.279,1.014.424s.342.279.756.311a5.484,5.484,0,0,1,1.925.787c.642.4,2.36,1.429,3.83,2.3a11.218,11.218,0,0,1,2.66,1.853c0,.155.238.29.538.29a1.125,1.125,0,0,1,.828.456,15.292,15.292,0,0,0,2.453,1.936,10.113,10.113,0,0,1,2.329,1.925.761.761,0,0,0,.642.456,3.1,3.1,0,0,1,1.418,1.1,3.682,3.682,0,0,0,1.232,1.108,4.315,4.315,0,0,1,1.335,1.1,4.013,4.013,0,0,0,1.377,1.108.393.393,0,0,1,.331.414,2.4,2.4,0,0,0,.611,1.108c.559.631.549.673-.186.673-.445,0-.787.207-.787.466q0,.45-.373-.093c-.29-.445-.424-.455-.673-.052-.228.362-.383.238-.559-.466-.124-.507-.435-.952-.673-.952-.414,0-2.391-1.522-6.687-5.166a87.885,87.885,0,0,0-7.153-5.321c-.631-.373-1.139-.807-1.139-.963a.315.315,0,0,0-.352-.3,6.888,6.888,0,0,1-1.739-.818c-1.4-.828-3.458-1.4-2.319-.642.3.186.414.362.238.362s-.1.259.135.549.321.549.186.549.321.807,1.056,1.843a11.286,11.286,0,0,1,1.325,2.1c0,.145.331.487.694.725a17.02,17.02,0,0,1,2.484,2.93c.963,1.366,2.07,2.816,2.412,3.2a1.97,1.97,0,0,1,.694,1.76c-.021.166.124.259.342.207s.663.383,1.014,1a6.191,6.191,0,0,0,.952,1.346.746.746,0,0,1,.114.818c-.166.424-.021.59.487.59a.654.654,0,0,1,.725.569.836.836,0,0,0,.549.766c.29.114.549.383.549.569a4.684,4.684,0,0,0,.807,1.511c.725,1.025.745,1.108.124.88-.58-.228-.611-.186-.2.29.248.3.559.466.663.373.559-.559,5.466,11.594,4.99,12.371-.114.176-.041.29.166.29s.311.476.269,1.108.031,1.1.166,1.1.259.2.28.455.383,2.019.807,3.892a13.686,13.686,0,0,1,.507,4.058c-.352.849-.414,1.863-.1,1.667.145-.093.342.166.445.569s.01.735-.186.735c-.228,0-.228.186-.01.476C33.424,53.86,33.455,55.33,32.989,55.33ZM20.184,113.787c0,.662.072.714.362.269a2.217,2.217,0,0,0,.373-.818c0-.166-.145-.279-.373-.279C20.35,112.959,20.184,113.342,20.184,113.787Zm.362-2.66c0,.4.072.735.145.735s.238-.331.331-.735.041-.735-.145-.735S20.546,110.723,20.546,111.127Zm.683-5.311c-.114-.1-.238.756-.29,1.894-.093,2.495.228,2.526.383.041A5.221,5.221,0,0,0,21.23,105.816ZM3.756,71.5c-.259-.01-.476-.3-.5-.662s-.207-.062-.4.642c-.342,1.17-.1,5.87.29,5.87a8.472,8.472,0,0,0-.052-2.526c-.207-2.246-.155-2.578.445-2.919C3.9,71.7,4,71.51,3.756,71.5Zm.124,7.671c-.269-.88-.528-1.366-.549-1.045-.041.694.714,3.023.921,2.816A5.386,5.386,0,0,0,3.88,79.171Zm.538,2.288c-.021.445.839,2.153,1,1.988.083-.083-.1-.611-.414-1.191S4.429,81.313,4.418,81.458ZM7.959,68.4c-.807-.186-1.211-.021-2.164.89C4.708,70.33,4.6,70.62,4.47,73.146A14.006,14.006,0,0,0,5.329,79.1,38.55,38.55,0,0,0,7.006,83.56a2.6,2.6,0,0,1,.435,1.615c-.124.207-.052.259.166.124s.714.28,1.108.9a8.807,8.807,0,0,0,2.505,2.195,7.461,7.461,0,0,0,7.019.352c.88-.393,1.573-.921,1.573-1.19s-.414-2.091-.921-4.079C16.944,75.848,12.265,69.409,7.959,68.4ZM19.066,81.137c-.414-.652-.424-.652-.207.01a6.3,6.3,0,0,1,.259,1.108c.031.311.083.311.207-.021A1.565,1.565,0,0,0,19.066,81.137Zm.642,2.019c-.124-.311-.2-.228-.228.217-.01.362.072.59.186.476A.75.75,0,0,0,19.708,83.156Zm.642,2.495c-.135-.735-.362-1.325-.518-1.325s-.1.662.114,1.47C20.422,87.587,20.691,87.483,20.35,85.651Zm.569,4.9-.4-.9.2.921a18.787,18.787,0,0,1,.28,2.567l.072,1.656.124-1.677A6.682,6.682,0,0,0,20.919,90.547Zm8.9-16.532c-.207-.8-.559-.7-.683.176a9.809,9.809,0,0,1-.311,1.284c-.135.445-.072.776.145.776s.383-.331.383-.735.155-.735.331-.735C29.884,74.781,29.936,74.45,29.822,74.015Zm.9-8.592c-.124,2.236-.083,2.826.124,1.832a20.831,20.831,0,0,0,.331-3.447C31.2,60.786,30.94,61.717,30.722,65.423ZM13.373,23.384a.382.382,0,0,0-.166-.549c-.2-.114-.362.041-.362.331C12.845,23.829,13.052,23.912,13.373,23.384ZM8.269,3.716c-.29-.776-.538-1.253-.559-1.035-.031.549.776,2.785.942,2.609A3.879,3.879,0,0,0,8.269,3.716Zm2.2,8.571a27.987,27.987,0,0,0-.952-3.623l-.393-.88.207.921c.114.507.487,2.381.849,4.224s.683,3.033.745,2.692A16.636,16.636,0,0,0,10.474,12.287Zm.787,4.4c-.1-.259-.186-.052-.186.455s.083.725.186.466A1.406,1.406,0,0,0,11.261,16.686Zm1.18,8.789c-.041-1.1-.062-1.108-.321-.248A2.343,2.343,0,0,0,12,26.4C12.317,26.966,12.482,26.614,12.441,25.475Zm14.907,6.718a.849.849,0,0,0-.663-.362c-.269,0-.228.145.1.362C27.482,32.639,27.617,32.649,27.348,32.194Zm.538,3.126c-.207-.124-.362-.052-.362.166a.365.365,0,0,0,.362.383c.228,0,.373-.062.373-.166S28.114,35.454,27.886,35.32Zm2.1,6.7c-.1-.259-.186-.052-.186.456s.083.725.186.466A1.406,1.406,0,0,0,29.987,42.018Zm.362,2.588c-.114-.3-.2-.217-.217.217-.021.373.062.6.186.476A.747.747,0,0,0,30.35,44.606Zm1.273,2.133a.7.7,0,0,1-.87-.259c-.248-.342-.29.145-.145,1.5.124,1.108.217,2.4.217,2.847s.1.828.217.828a4.97,4.97,0,0,0,.062-2.112c-.124-1.615-.031-2.226.424-2.588C31.861,46.686,31.892,46.593,31.623,46.738ZM.474,136.789c-.59-.466-.611-.445-.166.124.28.362.549.642.642.642C1.271,137.555,1.1,137.265.474,136.789Zm1.366-.331c-.393-.29-.631-.642-.528-.807.228-.373-.352-.4-.7-.041-.135.145.093.621.538,1.1.8.849,1.418,1.087,1.418.559C2.565,137.1,2.244,136.748,1.841,136.458ZM30.805,58.995c-.186,0-.342.331-.342.735s.135.735.29.735.321-.331.352-.735S31,58.995,30.805,58.995Zm-.342-2.774c0,1.139.155,2.039.362,2.039s.373-.828.373-1.812a3.684,3.684,0,0,0-.373-2.039C30.609,54.274,30.464,54.978,30.464,56.22Z" transform="translate(139.141) rotate(90)" fill="#ff7d44"/>
</svg>
