<svg xmlns="http://www.w3.org/2000/svg" width="145.158" height="93.69" viewBox="0 0 145.158 93.69">
  <path id="line" d="M127.1,94.772c0-.191.138-.367.283-.367.161,0,.214.115.122.268s.031.276.245.276c.544,0,.8-.459.352-.651-.176-.077.107-.138.628-.138a3.749,3.749,0,0,0,2.113-.4.643.643,0,0,1,.643-.008c.207.122.245.077.107-.138-.283-.459.7-1.148,1.125-.789.23.191.7.092,1.631-.36,1.355-.651,2.006-.773,2.266-.429.191.26,1.072-.054,1.072-.375a.237.237,0,0,0-.26-.245c-.145,0-.237-.23-.214-.528.031-.383.138-.452.383-.245a.685.685,0,0,1,.276.551c-.13.658.559.467.88-.237l.344-.766.521.643c.283.352.513.5.513.337s.222-.3.49-.3c.758,0,.911-.314.413-.873-.567-.62-.3-.666.322-.054a2.4,2.4,0,0,0,2.5.145c.268-.153.352-.283.176-.291a.617.617,0,0,1-.459-.406c-.107-.276-.015-.345.283-.237.329.122.39.061.268-.253a.413.413,0,0,1,.191-.559c.23-.084.337.084.3.459-.084.926.13,1.271.628,1.011a6.618,6.618,0,0,1,1.6-.436,3.053,3.053,0,0,0,1.439-.559.687.687,0,0,1,.666-.23.522.522,0,0,0,.567-.176c.145-.214.26-.222.383-.031s.4.176.88-.077c.521-.268.789-.291,1-.069.23.222.306.214.306-.031,0-.176.2-.322.444-.322a15.092,15.092,0,0,0,2.243-.521,29.162,29.162,0,0,1,3.078-.689c.735-.1,1.263-.306,1.225-.475s.421-.322,1.148-.368a10.393,10.393,0,0,0,3.208-.528c.077-.077-.107-.138-.406-.138a1.631,1.631,0,0,1-1.011-.513c-.383-.436-.4-.544-.054-.666.283-.1.36-.015.245.283-.123.329-.069.383.191.222.214-.138.291-.115.184.054-.452.735,3.047.482,3.805-.276.337-.329.314-.459-.161-1.033-.383-.459-.544-.528-.559-.237s-.069.314-.23.061c-.122-.184-.291-.268-.375-.184a3.4,3.4,0,0,1-1.079.253c-.482.061-1.217.176-1.585.245s-1.141.214-1.684.314-1.355.276-1.761.39l-.766.222.681.283c.436.184.521.291.23.3a1.165,1.165,0,0,1-.789-.391c-.222-.276-.436-.329-.635-.168a5.221,5.221,0,0,1-1.654.452,6.325,6.325,0,0,0-1.96.582,2.143,2.143,0,0,1-1.079.337c-.926-.084-1.2.015-.988.367.145.245.092.237-.237-.023s-.482-.283-.628-.054a.436.436,0,0,1-.513.176c-.39-.145-1.095.337-1.309.9-.122.314-.161.291-.184-.092-.015-.352-.153-.452-.459-.337a3.225,3.225,0,0,1-.965.161c-.3,0-.467.107-.383.245.253.406-.429.674-.689.268-.161-.245-.322-.283-.452-.107a1.755,1.755,0,0,1-1.018.352,5.614,5.614,0,0,0-1.217.245,2.229,2.229,0,0,1-.873.107c-.62-.069-.88.452-.467.949.245.3.253.5.023.72-.237.237-.314.207-.314-.115,0-1.1-1.723-.712-2.014.459-.161.62-.245.681-.6.375a.847.847,0,0,1-.3-.773c.077-.291-.077-.421-.513-.421-.735,0-.865.6-.161.743q.471.1-.3.253c-.574.107-.727.061-.628-.207.084-.222-.054-.337-.375-.314a.86.86,0,0,0-.658.4c-.092.245-.406.3-1,.176-.7-.146-.827-.107-.635.207s.145.314-.23.008c-.4-.314-.505-.268-.773.329a1.84,1.84,0,0,1-.72.842c-.329.115-.345.069-.084-.23.276-.322.153-.375-.773-.352-.6.008-1.1.115-1.1.23s-.2.13-.444.038c-.3-.107-.39-.061-.268.138.237.375-1.592.911-2.4.712a27.212,27.212,0,0,0-5.191,1.248c-14.286,4.31-32.362,10.8-49.6,17.8-3.177,1.286-6.607,2.641-7.656,3.017a67.423,67.423,0,0,0-8.276,3.583c0,.107-.222.207-.49.23a67.271,67.271,0,0,0-7.71,3.522,11.93,11.93,0,0,1-1.715.835c-.743.322-4.395,2.151-8.146,4.088-7.243,3.759-8.031,4.349-7.564,5.688.436,1.271,1.592,1.148,4.471-.459,1.363-.766,4.594-2.435,7.2-3.721a27.346,27.346,0,0,0,4.586-2.549c-.077-.123.1-.161.4-.084a2.944,2.944,0,0,0,1.562-.406c.567-.3,1.6-.8,2.3-1.11,2.5-1.1,3.614-1.592,5.78-2.572,6.324-2.84,22.455-9.409,34.345-13.98,9.578-3.683,15.236-5.7,25.334-9.042C123.844,96.211,127.1,95.009,127.1,94.772Zm19.776-6.814c.329.084.651.038.735-.1a.523.523,0,0,1,.421-.245c.145,0,.084.191-.123.413-.482.482-1.148.536-1.409.107C146.352,87.9,146.467,87.851,146.873,87.958Zm-4.165.2a1.689,1.689,0,0,1,.681.276c.214.146.276.268.13.268a1.594,1.594,0,0,1-.674-.268C142.624,88.287,142.563,88.157,142.708,88.157Zm-5.972,2.45c.138,0,.015.161-.283.375s-.59.322-.666.245C135.642,91.082,136.354,90.615,136.736,90.607Zm-2.718,1.355c.766-.337,1.018-.337.819,0a1,1,0,0,1-.766.253C133.506,92.207,133.506,92.192,134.019,91.962Zm-1.37-.544a.277.277,0,0,1-.123.406c-.145.084-.268-.031-.268-.245C132.258,91.089,132.411,91.028,132.648,91.419Zm-1.9.812c.077,0,.184.107.283.276.092.153.046.268-.123.268a.27.27,0,0,1-.283-.268C130.627,92.337,130.673,92.23,130.749,92.23Zm-2.427.544a.525.525,0,0,1,.429-.268c.168,0,.207.107.115.268a.557.557,0,0,1-.436.276C128.261,93.049,128.223,92.935,128.322,92.774ZM168.1,89.191c0,.383-1.317,1.531-1.524,1.332a.382.382,0,0,0-.49.054,12.158,12.158,0,0,1-3.415.972c-.528.092-1.983.459-3.262.819s-3.216.9-4.341,1.194-2.274.628-2.557.735c-.375.138-.467.084-.322-.191.107-.214,0-.153-.237.145s-.49.452-.59.345a.372.372,0,0,0-.482.054,9.189,9.189,0,0,1-2.059.689c-.98.253-2.067.559-2.442.7s-1.6.505-2.718.819c-4.019,1.148-7.5,2.213-10.374,3.154-1.6.528-3.085,1-3.269,1.034a5.139,5.139,0,0,0-.743.237c-.949.4-6.982,2.427-7.6,2.565a2.928,2.928,0,0,0-.949.345,10.214,10.214,0,0,1-3.882,1.171c-.574-.145-1.049-.911-.574-.911.161,0,.214-.1.122-.245-.276-.452,5.581-2.886,6.286-2.618.214.084.322.054.245-.069-.161-.26,10.1-3.935,10.428-3.736a.266.266,0,0,0,.39-.092c.145-.23,6.99-2.5,11.147-3.69.9-.253,2.473-.758,3.5-1.118a12.261,12.261,0,0,1,2.5-.651,1.035,1.035,0,0,0,.8-.283.476.476,0,0,1,.559-.153c.214.084.375.015.375-.145s.176-.222.4-.138.452.054.528-.069a5.541,5.541,0,0,1,1.707-.567c.873-.2,2.075-.513,2.695-.7,2.381-.766,4.486-1.217,4.777-1.034.207.13.23.084.077-.161-.153-.26-.092-.314.23-.191.245.084.452.061.452-.054s.39-.337.88-.49A7.912,7.912,0,0,1,166.465,88c1.087.023,1.217.092,1.21.628-.008.322.084.536.2.459C168,89,168.1,89.045,168.1,89.191Z" transform="translate(15.53 -88.733) rotate(20)" fill="#61ddfe"/>
</svg>
