<svg xmlns="http://www.w3.org/2000/svg" width="22.521" height="22.518" viewBox="0 0 22.521 22.518">
  <path id="Path_43" data-name="Path 43" d="M11.259,2.028c3.006,0,3.362.013,4.55.066a6.219,6.219,0,0,1,2.09.388,3.479,3.479,0,0,1,1.295.844,3.479,3.479,0,0,1,.844,1.295,6.219,6.219,0,0,1,.388,2.09c.053,1.188.066,1.548.066,4.55s-.013,3.362-.066,4.55a6.219,6.219,0,0,1-.388,2.09A3.721,3.721,0,0,1,17.9,20.038a6.219,6.219,0,0,1-2.09.388c-1.188.053-1.548.066-4.55.066s-3.362-.013-4.55-.066a6.219,6.219,0,0,1-2.09-.388,3.479,3.479,0,0,1-1.295-.844A3.479,3.479,0,0,1,2.483,17.9a6.219,6.219,0,0,1-.388-2.09c-.053-1.188-.066-1.548-.066-4.55s.013-3.362.066-4.55a6.219,6.219,0,0,1,.388-2.09,3.479,3.479,0,0,1,.844-1.295A3.479,3.479,0,0,1,4.622,2.48a6.219,6.219,0,0,1,2.09-.388c1.188-.053,1.548-.066,4.55-.066m0-2.025C8.2,0,7.818.013,6.615.068a8.259,8.259,0,0,0-2.73.524A5.5,5.5,0,0,0,1.89,1.89a5.5,5.5,0,0,0-1.3,1.994,8.258,8.258,0,0,0-.524,2.73C.013,7.818,0,8.2,0,11.259S.013,14.7.068,15.9a8.258,8.258,0,0,0,.524,2.73,5.5,5.5,0,0,0,1.3,1.994,5.5,5.5,0,0,0,1.994,1.3,8.258,8.258,0,0,0,2.733.524c1.2.055,1.583.068,4.642.068s3.441-.013,4.644-.068a8.258,8.258,0,0,0,2.733-.524,5.762,5.762,0,0,0,3.293-3.293,8.258,8.258,0,0,0,.524-2.733c.055-1.2.068-1.583.068-4.644s-.013-3.441-.068-4.644a8.258,8.258,0,0,0-.526-2.727,5.5,5.5,0,0,0-1.3-1.994,5.5,5.5,0,0,0-1.994-1.3A8.258,8.258,0,0,0,15.9.068C14.7.013,14.317,0,11.259,0Z" fill="#ff7d44"/>
</svg>
