<svg xmlns="http://www.w3.org/2000/svg" width="34.436" height="34.436" viewBox="0 0 34.436 34.436">
  <path id="Path_1" data-name="Path 1" d="M1213.824,926.613c0-.063,0-.125,0-.187Zm17.6-14.217a17.7,17.7,0,0,1,3.328,3.176,17.219,17.219,0,1,0-34.276-2.355,17.207,17.207,0,0,0,14.29,16.97,17.353,17.353,0,0,0,2.928.248,17.145,17.145,0,0,0,10.557-3.615,17.277,17.277,0,0,0,5.281-6.838,14.15,14.15,0,0,0-24.386-1.03,10.293,10.293,0,0,0,15.783,1.584,7.182,7.182,0,0,0-3.893-1.139q-.234,0-.465.015a6.791,6.791,0,0,1-2.51.625q-.183.01-.369.01a6.8,6.8,0,0,1-3.936-1.248,10.678,10.678,0,0,1,15.8,1.379,13.758,13.758,0,1,1,1.864-7.781Z" transform="translate(930.435 -1200.48) rotate(90)" fill="#fff" fill-rule="evenodd"/>
</svg>
