<svg xmlns="http://www.w3.org/2000/svg" width="22.762" height="18.494" viewBox="0 0 22.762 18.494">
  <path id="Path_42" data-name="Path 42" d="M22.762,3.634a8.419,8.419,0,0,1-2.7.711A4.022,4.022,0,0,0,22.05,1.785a9.334,9.334,0,0,1-2.987,1.138A4.968,4.968,0,0,0,15.649,1.5,4.71,4.71,0,0,0,11.1,6.195a2.109,2.109,0,0,0,.142,1A13.09,13.09,0,0,1,1.565,2.354,4.359,4.359,0,0,0,1,4.772,4.669,4.669,0,0,0,3.13,8.613,5.962,5.962,0,0,1,1,8.044H1a4.592,4.592,0,0,0,3.7,4.552,3.939,3.939,0,0,1-1.28.142,1.8,1.8,0,0,1-.854-.142,4.609,4.609,0,0,0,4.41,3.272A9.046,9.046,0,0,1,1.138,17.86H0a13.88,13.88,0,0,0,7.113,2.134,13.168,13.168,0,0,0,13.23-13.23V6.195A8.271,8.271,0,0,0,22.762,3.634Z" transform="translate(0 -1.5)" fill="#ff7d44"/>
</svg>
