<svg width="464" height="65" viewBox="0 0 464 65" fill="none" xmlns="http://www.w3.org/2000/svg">
<path d="M4.31641 0.726562V51H0.625V0.726562H4.31641ZM38.8047 0.726562L14.8633 24.5273L39.6484 51H34.1289L11.1719 25.7578V23.5781L33.7422 0.726562H38.8047ZM44.2188 40.5586C44.2188 33.2227 49.0938 29.5547 58.8438 29.5547C62.2891 29.5547 65.9688 29.7891 69.8828 30.2578V25.7227C69.8828 20.0742 66.332 17.25 59.2305 17.25C55.4336 17.25 51.543 17.8359 47.5586 19.0078V15.8438C51.543 14.6719 55.4336 14.0859 59.2305 14.0859C68.793 14.0859 73.5742 17.9062 73.5742 25.5469V51H71.3242L70.4805 47.3438C65.8633 49.7812 61.3867 51 57.0508 51C48.4961 51 44.2188 47.5195 44.2188 40.5586ZM58.8438 32.7188C51.5547 32.7188 47.9102 35.2969 47.9102 40.4531C47.9102 45.375 50.957 47.8359 57.0508 47.8359C61.5508 47.8359 65.8281 46.6406 69.8828 44.25V33.4219C65.9688 32.9531 62.2891 32.7188 58.8438 32.7188ZM84.8594 51V14.0859H87.4961L87.8828 18.7266C91.6562 15.6328 95.7461 14.0859 100.152 14.0859C105.965 14.0859 109.727 15.7734 111.438 19.1484C115.68 15.7734 119.98 14.0859 124.34 14.0859C132.59 14.0859 136.715 18.1758 136.715 26.3555V51H133.023V26.3555C133.023 20.3789 130.117 17.3906 124.305 17.3906C119.664 17.3906 115.832 18.9844 112.809 22.1719V51H109.117V25.7578C109.117 20.1797 106.117 17.3906 100.117 17.3906C95.7578 17.3906 91.9023 18.9844 88.5508 22.1719V51H84.8594ZM152.746 0.726562V4.94531H148.352V0.726562H152.746ZM152.395 14.0859V51H148.703V14.0859H152.395ZM168.777 0.726562V51H165.086V0.726562H168.777ZM198.344 51V0.726562H219.789C229.352 0.726562 234.133 4.62891 234.133 12.4336C234.133 18.1523 230.664 22.2422 223.727 24.7031C231.086 25.9453 234.766 29.8711 234.766 36.4805C234.766 46.1602 229.527 51 219.051 51H198.344ZM218.664 47.8359C226.773 47.8359 230.828 44.0859 230.828 36.5859C230.828 29.9531 225.754 26.6367 215.605 26.6367H212.793V24.1406C224.512 23.0859 230.371 19.2656 230.371 12.6797C230.371 6.82031 226.762 3.89062 219.543 3.89062H202.035V47.8359H218.664ZM242.992 40.5586C242.992 33.2227 247.867 29.5547 257.617 29.5547C261.062 29.5547 264.742 29.7891 268.656 30.2578V25.7227C268.656 20.0742 265.105 17.25 258.004 17.25C254.207 17.25 250.316 17.8359 246.332 19.0078V15.8438C250.316 14.6719 254.207 14.0859 258.004 14.0859C267.566 14.0859 272.348 17.9062 272.348 25.5469V51H270.098L269.254 47.3438C264.637 49.7812 260.16 51 255.824 51C247.27 51 242.992 47.5195 242.992 40.5586ZM257.617 32.7188C250.328 32.7188 246.684 35.2969 246.684 40.4531C246.684 45.375 249.73 47.8359 255.824 47.8359C260.324 47.8359 264.602 46.6406 268.656 44.25V33.4219C264.742 32.9531 261.062 32.7188 257.617 32.7188ZM310.422 18.2344C307.023 17.6719 303.684 17.3906 300.402 17.3906C290.441 17.3906 285.461 22.3477 285.461 32.2617C285.461 42.4102 290.113 47.4844 299.418 47.4844C302.793 47.4844 306.461 46.8516 310.422 45.5859V18.2344ZM314.113 51C314.113 59.9062 308.688 64.3594 297.836 64.3594C293.289 64.3594 289.258 63.7734 285.742 62.6016V59.4375C289.328 60.6094 293.383 61.1953 297.906 61.1953C306.25 61.1953 310.422 57.7969 310.422 51V49.2422C306.25 50.4141 302.57 51 299.383 51C287.711 51 281.875 44.7773 281.875 32.332C281.875 20.168 288.145 14.0859 300.684 14.0859C305.441 14.0859 309.918 14.5898 314.113 15.5977V51ZM330.145 0.726562V4.94531H325.75V0.726562H330.145ZM329.793 14.0859V51H326.102V14.0859H329.793ZM341.781 51V14.0859H344.418L344.875 18.7969C349.586 15.6562 354.203 14.0859 358.727 14.0859C367.703 14.0859 372.191 17.9648 372.191 25.7227V51H368.5V25.6172C368.5 20.1328 365.184 17.3906 358.551 17.3906C354.121 17.3906 349.762 18.9492 345.473 22.0664V51H341.781ZM358.973 0.726562H364.562L356.16 9.12891H353.207L358.973 0.726562ZM382.773 49.2422V45.7266C386.875 47.1328 390.906 47.8359 394.867 47.8359C402.625 47.8359 406.504 45.375 406.504 40.4531C406.504 36.4688 403.633 34.4766 397.891 34.4766H393.18C385.445 34.4766 381.578 31.1953 381.578 24.6328C381.578 17.6016 386.699 14.0859 396.941 14.0859C400.879 14.0859 404.898 14.6719 409 15.8438V19.3594C404.898 17.9531 400.879 17.25 396.941 17.25C389.16 17.25 385.27 19.7109 385.27 24.6328C385.27 28.8516 387.906 30.9609 393.18 30.9609H397.891C406.094 30.9609 410.195 34.125 410.195 40.4531C410.195 47.4844 405.086 51 394.867 51C390.906 51 386.875 50.4141 382.773 49.2422ZM419.336 51V0.726562H423.027V17.3203C427.316 15.1641 432.039 14.0859 437.195 14.0859C445.914 14.0859 450.273 17.6367 450.273 24.7383C450.273 30.1289 446.406 33.8086 438.672 35.7773L451.188 51H445.773L434.031 35.707V33.4922C442.398 32.5312 446.582 29.6016 446.582 24.7031C446.582 19.7344 443.184 17.25 436.387 17.25C431.863 17.25 427.41 18.3516 423.027 20.5547V51H419.336ZM463.316 0.726562V4.94531H458.922V0.726562H463.316ZM462.965 14.0859V51H459.273V14.0859H462.965Z" fill="white"/>
</svg>
